<svg xmlns="http://www.w3.org/2000/svg" width="80" height="80" viewBox="0 0 80 80">
  <g id="Group_839" data-name="Group 839" transform="translate(-1447 -8338)">
    <g id="Group_828" data-name="Group 828" transform="translate(159.15 7766.23)">
      <path id="Path_446" data-name="Path 446" d="M1367.85,611.77a40,40,0,1,1-40-40A39.956,39.956,0,0,1,1367.85,611.77Z" fill="#1144da"/>
      <g id="Group_827" data-name="Group 827">
        <g id="AT4HXR.tif">
          <g id="Group_826" data-name="Group 826">
            <path id="Path_453" data-name="Path 453" d="M1344.111,614.957l1.1-6.97c1.607-.489,1.83.84,2.1,1.763a4.1,4.1,0,0,1-1.032,4.25A3.037,3.037,0,0,1,1344.111,614.957Z" transform="translate(-0.03)" fill="#abc6d6"/>
            <path id="Path_447" data-name="Path 447" d="M1303.44,643.98c-.12-.09-.25-.19-.37-.3a.4.4,0,0,0,.17-.08C1303.3,643.73,1303.37,643.85,1303.44,643.98Z" fill="#e4416a"/>
            <path id="Path_448" data-name="Path 448" d="M1309.31,639.774c.48-.245.961-.486,1.425-.742a7.972,7.972,0,0,1-1.087.628c-1.206.524-1.9,1.13-2.538,1.419.687-.442,1.375-.873,2.1-1.25C1309.244,639.812,1309.277,639.791,1309.31,639.774Z" fill="#e4416a"/>
            <path id="Path_449" data-name="Path 449" d="M1352.093,640.1a3.5,3.5,0,0,1-.393.267,3.529,3.529,0,0,1-3.254.148,7.365,7.365,0,0,1-1.037-.579c-2.474-1.627-4.729-3.658-7.677-4.482l.033-.033a.6.6,0,0,0-.038-.115.314.314,0,0,0-.033-.071.306.306,0,0,0-.077-.114.066.066,0,0,0-.027-.028.422.422,0,0,0-.158-.1l-.049-.016a.708.708,0,0,0-.148-.033,1.446,1.446,0,0,0-.153-.011c-.038,0-.076.006-.114.006h-.006c-.109-.164-.207-.333-.3-.5-.006-.006-.006-.011-.011-.011-.093-.17-.186-.344-.268-.514s-.169-.349-.245-.529c-.066-.153-.126-.306-.186-.459-.033-.1-.071-.2-.1-.3-.043-.12-.081-.246-.114-.366-.033-.087-.055-.169-.082-.257l-.1-.36c-.071-.3-.137-.606-.191-.912-.022-.1-.039-.2-.055-.3-.082-.48-.142-.972-.186-1.463q-.033-.286-.049-.573c-.016-.186-.027-.377-.038-.568-.027-.41-.044-1.376-.066-2.108,0-.2-.005-.387-.011-.535,0-.06-.005-.115-.005-.175,2.544-3.286,5.1-5.6,6.825-9.287.027-.054.049-.1.071-.158.093-.2.18-.4.262-.6a3.01,3.01,0,0,0,2.157-.961,4.11,4.11,0,0,0,1.021-4.247c-.268-.923-.492-2.25-2.086-1.764-3.806-.273-5.356-1.665-5.951-5.367a13.118,13.118,0,0,0-.743-2.965,1.577,1.577,0,0,0-.1-.218,1.544,1.544,0,0,0-.1-.2,1.442,1.442,0,0,0-.115-.2,1.587,1.587,0,0,0-.114-.175l-.126-.174a2.889,2.889,0,0,0-.267-.3,3.3,3.3,0,0,0-.606-.469,2.432,2.432,0,0,0-.273-.159.457.457,0,0,0-.1-.049,2.959,2.959,0,0,0-.333-.147,4.116,4.116,0,0,0-.442-.164q-.22-.074-.459-.131c-.12-.033-.251-.066-.376-.093-.306-.071-.634-.136-.989-.2-.207-.039-.425-.071-.655-.1a1.226,1.226,0,0,0-.147-.016,12.363,12.363,0,0,0-1.332-.121,1.208,1.208,0,0,0-.137-.005c-.259-.014-.517-.013-.776-.016-.819,0-1.637.05-2.461.114-.279.022-.557.049-.836.071-1.185.1-2.369.224-3.554.317-.311.027-.628.049-.945.071-.409.033-.813.054-1.223.076-.338.022-.677.033-1.015.044-.088.005-.18.011-.268.011-.382.011-.759.016-1.141.016-.366,0-.737-.005-1.108-.016q-.5-.016-1-.049c-.175-.011-.355-.022-.53-.038a22.8,22.8,0,0,1-2.408-.312c-.2-.032-.393-.076-.589-.12-.361-.071-.721-.158-1.082-.251-1.545-.415-2.118.246-2.462,1.556a31.5,31.5,0,0,0-.775,8.638c-2.048.928-2.643,2.609-2.272,4.673.334,1.873,1.327,3.145,3.44,3.112.1.235.191.47.3.7-.005.006,0,.011.006.017.082.2.169.393.262.584.191.431.4.851.617,1.272.126.251.257.5.393.748.142.267.289.529.442.792a33.087,33.087,0,0,0,6.295,7.736v.022c-.032.42-.054.846-.081,1.278s-.06.879-.1,1.315c-.022.252-.043.5-.071.748-.06.563-.136,1.12-.234,1.671-.033.18-.071.366-.11.546s-.071.333-.114.5c-.033.137-.071.279-.109.415s-.077.273-.126.41c-.06.175-.12.355-.18.529l-.049.115c-.066.164-.131.322-.2.481-.06.136-.126.278-.2.415-.049.1-.1.2-.153.289s-.1.191-.164.289c-.169.055-.344.12-.513.186s-.344.131-.508.2c-.333.136-.66.289-.982.453-.432.213-.858.448-1.272.688s-.83.491-1.24.748c-.131.082-.256.158-.382.24-.027.017-.049.028-.077.049-.256.159-.513.317-.775.481-.2.125-.409.256-.611.382-.055.033-.11.066-.164.1a7.972,7.972,0,0,1-1.087.628c-1.206.524-1.9,1.13-2.538,1.419h-.006c-.5-1.327-1.125-2.779-1.572-4.16-.066-.208-.131-.415-.191-.623a5.589,5.589,0,0,1,.6-4.881c1.971-3.09,1.174-6.273-.387-9.331a24.168,24.168,0,0,1-2.457-12.945,7.173,7.173,0,0,1,2.249-5.023,2.97,2.97,0,0,0,1.016-3.123,20.661,20.661,0,0,1,2.4-15.227c10.046-10.887,27.386-10.238,37.274,1.375,5.52,6.481,7.464,13.961,6.426,22.326a8.218,8.218,0,0,1-.928,3.106c-3.308,5.8-2.768,11.673-.3,17.565a27.171,27.171,0,0,1,1.987,5.929C1353.491,637.618,1353.409,639.1,1352.093,640.1Z" fill="#00137d"/>
            <path id="Path_450" data-name="Path 450" d="M1339.765,635.423l-.033.033a3.327,3.327,0,0,1-1.179,2.593c-5.4,5.192-15.129,5.334-20.742.328a2.128,2.128,0,0,1-.552-2.872V635.5c.06-.1.115-.191.164-.289a8.952,8.952,0,0,0,.552-1.185l.049-.115c.114-.3.218-.622.306-.939a4.124,4.124,0,0,0,.109-.415c.049-.163.087-.333.12-.5a22.519,22.519,0,0,0,.409-2.965c.039-.436.071-.879.1-1.315s.049-.858.081-1.278v-.022a25.854,25.854,0,0,0,7.5,2.392c.295.027.595.043.9.049a9.446,9.446,0,0,0,.967-.006c.158-.011.316-.022.475-.043a.337.337,0,0,0,.1-.017c2.878-.437,5.28-2.817,7.868-3.844,0,.06.005.115.005.175.006.175.017.35.022.53a28.853,28.853,0,0,0,.825,6.557,9.655,9.655,0,0,0,1.163,2.67C1339.142,635.243,1339.339,635.516,1339.765,635.423Z" fill="#abc6d6"/>
            <path id="Path_452" data-name="Path 452" d="M1309.793,606.842c-.043,2.659.872,5.181,1.233,7.783-2.23.035-3.274-1.241-3.629-3.112A3.815,3.815,0,0,1,1309.793,606.842Z" fill="#abc6d6"/>
            <path id="Path_454" data-name="Path 454" d="M1339.763,635.421c-.422.1-.619-.178-.8-.484C1339.342,634.915,1339.662,634.988,1339.763,635.421Z" fill="#00137d"/>
            <path id="Path_451" data-name="Path 451" d="M1337.1,625.79a15.442,15.442,0,0,1-7.218,3.147,17.041,17.041,0,0,1-9.175-1.421c-2.418-.964-4.079-3.1-5.576-5.138a35.3,35.3,0,0,1-4.291-7.644h0c-.341-2.617-1.21-5.154-1.169-7.828a31.656,31.656,0,0,1,.776-8.688c.342-1.318.915-1.983,2.462-1.569,5.452,1.461,10.984.548,16.474.117a19.265,19.265,0,0,1,4.732.214c3.687.63,4.487,1.632,5.139,5.679.6,3.726,2.146,5.127,5.956,5.4q-.546,3.5-1.094,7.009v.005a32.859,32.859,0,0,1-3.032,5.579,23.634,23.634,0,0,1-3.846,5.026Z" fill="#b9d5e6"/>
          </g>
        </g>
        <path id="Path_455" data-name="Path 455" d="M1352.19,642.86l-.15.42c-.07.18-.15.35-.24.53a40.008,40.008,0,0,1-48.36-.35c.1-.08.19-.15.21-.16.26-.17.52-.32.78-.47.76-.44,1.46-.96,2.19-1.44.16-.1.33-.21.48-.31h.01c.63-.29,1.33-.9,2.54-1.42a6.906,6.906,0,0,0,1.08-.63c.29-.15.57-.31.85-.49.19-.12.39-.26.58-.39.01-.01.02-.01.03-.02a.88.88,0,0,1,.1-.06.115.115,0,0,1,.07-.05c.13-.08.26-.15.38-.24.41-.26.82-.51,1.24-.75s.84-.47,1.28-.69c.32-.16.65-.32.98-.45.16-.07.34-.14.51-.21l.51-.18a2.142,2.142,0,0,0,.55,2.88c5.61,5,15.35,4.86,20.74-.33a3.313,3.313,0,0,0,1.18-2.59c2.95.82,5.21,2.85,7.68,4.48a7.745,7.745,0,0,0,1.04.58c.13.06.26.11.4.16A12.149,12.149,0,0,1,1352.19,642.86Z" fill="#00179a"/>
        <line id="Line_50" data-name="Line 50" x1="4.2" transform="translate(1323.65 651.77)" fill="none"/>
      </g>
    </g>
  </g>
</svg>
