<svg xmlns="http://www.w3.org/2000/svg" xmlns:xlink="http://www.w3.org/1999/xlink" width="208" height="232" viewBox="0 0 208 232">
  <defs>
    <clipPath id="clip-path">
      <rect width="232" height="208" fill="none"/>
    </clipPath>
  </defs>
  <g id="Repeat_Grid_63" data-name="Repeat Grid 63" transform="translate(208) rotate(90)" clip-path="url(#clip-path)">
    <g transform="translate(-219 -2573)">
      <circle id="Ellipse_31" data-name="Ellipse 31" cx="1.5" cy="1.5" r="1.5" transform="translate(219 2573)" fill="#cbcbcb"/>
    </g>
    <g transform="translate(-204 -2573)">
      <circle id="Ellipse_31-2" data-name="Ellipse 31" cx="1.5" cy="1.5" r="1.5" transform="translate(219 2573)" fill="#cbcbcb"/>
    </g>
    <g transform="translate(-189 -2573)">
      <circle id="Ellipse_31-3" data-name="Ellipse 31" cx="1.5" cy="1.5" r="1.5" transform="translate(219 2573)" fill="#cbcbcb"/>
    </g>
    <g transform="translate(-174 -2573)">
      <circle id="Ellipse_31-4" data-name="Ellipse 31" cx="1.5" cy="1.5" r="1.5" transform="translate(219 2573)" fill="#cbcbcb"/>
    </g>
    <g transform="translate(-159 -2573)">
      <circle id="Ellipse_31-5" data-name="Ellipse 31" cx="1.5" cy="1.5" r="1.5" transform="translate(219 2573)" fill="#cbcbcb"/>
    </g>
    <g transform="translate(-144 -2573)">
      <circle id="Ellipse_31-6" data-name="Ellipse 31" cx="1.5" cy="1.5" r="1.5" transform="translate(219 2573)" fill="#cbcbcb"/>
    </g>
    <g transform="translate(-129 -2573)">
      <circle id="Ellipse_31-7" data-name="Ellipse 31" cx="1.5" cy="1.5" r="1.5" transform="translate(219 2573)" fill="#cbcbcb"/>
    </g>
    <g transform="translate(-114 -2573)">
      <circle id="Ellipse_31-8" data-name="Ellipse 31" cx="1.5" cy="1.5" r="1.5" transform="translate(219 2573)" fill="#cbcbcb"/>
    </g>
    <g transform="translate(-99 -2573)">
      <circle id="Ellipse_31-9" data-name="Ellipse 31" cx="1.5" cy="1.5" r="1.5" transform="translate(219 2573)" fill="#cbcbcb"/>
    </g>
    <g transform="translate(-84 -2573)">
      <circle id="Ellipse_31-10" data-name="Ellipse 31" cx="1.5" cy="1.5" r="1.5" transform="translate(219 2573)" fill="#cbcbcb"/>
    </g>
    <g transform="translate(-69 -2573)">
      <circle id="Ellipse_31-11" data-name="Ellipse 31" cx="1.5" cy="1.5" r="1.5" transform="translate(219 2573)" fill="#cbcbcb"/>
    </g>
    <g transform="translate(-54 -2573)">
      <circle id="Ellipse_31-12" data-name="Ellipse 31" cx="1.5" cy="1.5" r="1.5" transform="translate(219 2573)" fill="#cbcbcb"/>
    </g>
    <g transform="translate(-39 -2573)">
      <circle id="Ellipse_31-13" data-name="Ellipse 31" cx="1.5" cy="1.5" r="1.5" transform="translate(219 2573)" fill="#cbcbcb"/>
    </g>
    <g transform="translate(-24 -2573)">
      <circle id="Ellipse_31-14" data-name="Ellipse 31" cx="1.5" cy="1.5" r="1.5" transform="translate(219 2573)" fill="#cbcbcb"/>
    </g>
    <g transform="translate(-9 -2573)">
      <circle id="Ellipse_31-15" data-name="Ellipse 31" cx="1.5" cy="1.5" r="1.5" transform="translate(219 2573)" fill="#cbcbcb"/>
    </g>
    <g transform="translate(6 -2573)">
      <circle id="Ellipse_31-16" data-name="Ellipse 31" cx="1.5" cy="1.5" r="1.5" transform="translate(219 2573)" fill="#cbcbcb"/>
    </g>
    <g transform="translate(-219 -2558)">
      <circle id="Ellipse_31-17" data-name="Ellipse 31" cx="1.5" cy="1.5" r="1.5" transform="translate(219 2573)" fill="#cbcbcb"/>
    </g>
    <g transform="translate(-204 -2558)">
      <circle id="Ellipse_31-18" data-name="Ellipse 31" cx="1.5" cy="1.5" r="1.5" transform="translate(219 2573)" fill="#cbcbcb"/>
    </g>
    <g transform="translate(-189 -2558)">
      <circle id="Ellipse_31-19" data-name="Ellipse 31" cx="1.5" cy="1.5" r="1.5" transform="translate(219 2573)" fill="#cbcbcb"/>
    </g>
    <g transform="translate(-174 -2558)">
      <circle id="Ellipse_31-20" data-name="Ellipse 31" cx="1.5" cy="1.5" r="1.5" transform="translate(219 2573)" fill="#cbcbcb"/>
    </g>
    <g transform="translate(-159 -2558)">
      <circle id="Ellipse_31-21" data-name="Ellipse 31" cx="1.5" cy="1.5" r="1.5" transform="translate(219 2573)" fill="#cbcbcb"/>
    </g>
    <g transform="translate(-144 -2558)">
      <circle id="Ellipse_31-22" data-name="Ellipse 31" cx="1.5" cy="1.5" r="1.5" transform="translate(219 2573)" fill="#cbcbcb"/>
    </g>
    <g transform="translate(-129 -2558)">
      <circle id="Ellipse_31-23" data-name="Ellipse 31" cx="1.5" cy="1.5" r="1.5" transform="translate(219 2573)" fill="#cbcbcb"/>
    </g>
    <g transform="translate(-114 -2558)">
      <circle id="Ellipse_31-24" data-name="Ellipse 31" cx="1.5" cy="1.5" r="1.5" transform="translate(219 2573)" fill="#cbcbcb"/>
    </g>
    <g transform="translate(-99 -2558)">
      <circle id="Ellipse_31-25" data-name="Ellipse 31" cx="1.5" cy="1.5" r="1.5" transform="translate(219 2573)" fill="#cbcbcb"/>
    </g>
    <g transform="translate(-84 -2558)">
      <circle id="Ellipse_31-26" data-name="Ellipse 31" cx="1.5" cy="1.5" r="1.5" transform="translate(219 2573)" fill="#cbcbcb"/>
    </g>
    <g transform="translate(-69 -2558)">
      <circle id="Ellipse_31-27" data-name="Ellipse 31" cx="1.5" cy="1.5" r="1.5" transform="translate(219 2573)" fill="#cbcbcb"/>
    </g>
    <g transform="translate(-54 -2558)">
      <circle id="Ellipse_31-28" data-name="Ellipse 31" cx="1.5" cy="1.5" r="1.5" transform="translate(219 2573)" fill="#cbcbcb"/>
    </g>
    <g transform="translate(-39 -2558)">
      <circle id="Ellipse_31-29" data-name="Ellipse 31" cx="1.5" cy="1.5" r="1.5" transform="translate(219 2573)" fill="#cbcbcb"/>
    </g>
    <g transform="translate(-24 -2558)">
      <circle id="Ellipse_31-30" data-name="Ellipse 31" cx="1.5" cy="1.5" r="1.5" transform="translate(219 2573)" fill="#cbcbcb"/>
    </g>
    <g transform="translate(-9 -2558)">
      <circle id="Ellipse_31-31" data-name="Ellipse 31" cx="1.5" cy="1.5" r="1.5" transform="translate(219 2573)" fill="#cbcbcb"/>
    </g>
    <g transform="translate(6 -2558)">
      <circle id="Ellipse_31-32" data-name="Ellipse 31" cx="1.5" cy="1.5" r="1.5" transform="translate(219 2573)" fill="#cbcbcb"/>
    </g>
    <g transform="translate(-219 -2543)">
      <circle id="Ellipse_31-33" data-name="Ellipse 31" cx="1.5" cy="1.5" r="1.5" transform="translate(219 2573)" fill="#cbcbcb"/>
    </g>
    <g transform="translate(-204 -2543)">
      <circle id="Ellipse_31-34" data-name="Ellipse 31" cx="1.5" cy="1.5" r="1.5" transform="translate(219 2573)" fill="#cbcbcb"/>
    </g>
    <g transform="translate(-189 -2543)">
      <circle id="Ellipse_31-35" data-name="Ellipse 31" cx="1.5" cy="1.5" r="1.5" transform="translate(219 2573)" fill="#cbcbcb"/>
    </g>
    <g transform="translate(-174 -2543)">
      <circle id="Ellipse_31-36" data-name="Ellipse 31" cx="1.5" cy="1.5" r="1.5" transform="translate(219 2573)" fill="#cbcbcb"/>
    </g>
    <g transform="translate(-159 -2543)">
      <circle id="Ellipse_31-37" data-name="Ellipse 31" cx="1.5" cy="1.5" r="1.5" transform="translate(219 2573)" fill="#cbcbcb"/>
    </g>
    <g transform="translate(-144 -2543)">
      <circle id="Ellipse_31-38" data-name="Ellipse 31" cx="1.5" cy="1.5" r="1.5" transform="translate(219 2573)" fill="#cbcbcb"/>
    </g>
    <g transform="translate(-129 -2543)">
      <circle id="Ellipse_31-39" data-name="Ellipse 31" cx="1.5" cy="1.5" r="1.5" transform="translate(219 2573)" fill="#cbcbcb"/>
    </g>
    <g transform="translate(-114 -2543)">
      <circle id="Ellipse_31-40" data-name="Ellipse 31" cx="1.5" cy="1.5" r="1.5" transform="translate(219 2573)" fill="#cbcbcb"/>
    </g>
    <g transform="translate(-99 -2543)">
      <circle id="Ellipse_31-41" data-name="Ellipse 31" cx="1.5" cy="1.5" r="1.5" transform="translate(219 2573)" fill="#cbcbcb"/>
    </g>
    <g transform="translate(-84 -2543)">
      <circle id="Ellipse_31-42" data-name="Ellipse 31" cx="1.5" cy="1.5" r="1.5" transform="translate(219 2573)" fill="#cbcbcb"/>
    </g>
    <g transform="translate(-69 -2543)">
      <circle id="Ellipse_31-43" data-name="Ellipse 31" cx="1.5" cy="1.5" r="1.5" transform="translate(219 2573)" fill="#cbcbcb"/>
    </g>
    <g transform="translate(-54 -2543)">
      <circle id="Ellipse_31-44" data-name="Ellipse 31" cx="1.5" cy="1.5" r="1.5" transform="translate(219 2573)" fill="#cbcbcb"/>
    </g>
    <g transform="translate(-39 -2543)">
      <circle id="Ellipse_31-45" data-name="Ellipse 31" cx="1.5" cy="1.5" r="1.5" transform="translate(219 2573)" fill="#cbcbcb"/>
    </g>
    <g transform="translate(-24 -2543)">
      <circle id="Ellipse_31-46" data-name="Ellipse 31" cx="1.5" cy="1.5" r="1.5" transform="translate(219 2573)" fill="#cbcbcb"/>
    </g>
    <g transform="translate(-9 -2543)">
      <circle id="Ellipse_31-47" data-name="Ellipse 31" cx="1.5" cy="1.5" r="1.5" transform="translate(219 2573)" fill="#cbcbcb"/>
    </g>
    <g transform="translate(6 -2543)">
      <circle id="Ellipse_31-48" data-name="Ellipse 31" cx="1.5" cy="1.5" r="1.5" transform="translate(219 2573)" fill="#cbcbcb"/>
    </g>
    <g transform="translate(-219 -2528)">
      <circle id="Ellipse_31-49" data-name="Ellipse 31" cx="1.5" cy="1.5" r="1.5" transform="translate(219 2573)" fill="#cbcbcb"/>
    </g>
    <g transform="translate(-204 -2528)">
      <circle id="Ellipse_31-50" data-name="Ellipse 31" cx="1.5" cy="1.5" r="1.5" transform="translate(219 2573)" fill="#cbcbcb"/>
    </g>
    <g transform="translate(-189 -2528)">
      <circle id="Ellipse_31-51" data-name="Ellipse 31" cx="1.5" cy="1.5" r="1.5" transform="translate(219 2573)" fill="#cbcbcb"/>
    </g>
    <g transform="translate(-174 -2528)">
      <circle id="Ellipse_31-52" data-name="Ellipse 31" cx="1.5" cy="1.5" r="1.5" transform="translate(219 2573)" fill="#cbcbcb"/>
    </g>
    <g transform="translate(-159 -2528)">
      <circle id="Ellipse_31-53" data-name="Ellipse 31" cx="1.5" cy="1.5" r="1.5" transform="translate(219 2573)" fill="#cbcbcb"/>
    </g>
    <g transform="translate(-144 -2528)">
      <circle id="Ellipse_31-54" data-name="Ellipse 31" cx="1.5" cy="1.5" r="1.5" transform="translate(219 2573)" fill="#cbcbcb"/>
    </g>
    <g transform="translate(-129 -2528)">
      <circle id="Ellipse_31-55" data-name="Ellipse 31" cx="1.5" cy="1.5" r="1.5" transform="translate(219 2573)" fill="#cbcbcb"/>
    </g>
    <g transform="translate(-114 -2528)">
      <circle id="Ellipse_31-56" data-name="Ellipse 31" cx="1.5" cy="1.5" r="1.5" transform="translate(219 2573)" fill="#cbcbcb"/>
    </g>
    <g transform="translate(-99 -2528)">
      <circle id="Ellipse_31-57" data-name="Ellipse 31" cx="1.5" cy="1.5" r="1.5" transform="translate(219 2573)" fill="#cbcbcb"/>
    </g>
    <g transform="translate(-84 -2528)">
      <circle id="Ellipse_31-58" data-name="Ellipse 31" cx="1.5" cy="1.5" r="1.5" transform="translate(219 2573)" fill="#cbcbcb"/>
    </g>
    <g transform="translate(-69 -2528)">
      <circle id="Ellipse_31-59" data-name="Ellipse 31" cx="1.5" cy="1.5" r="1.5" transform="translate(219 2573)" fill="#cbcbcb"/>
    </g>
    <g transform="translate(-54 -2528)">
      <circle id="Ellipse_31-60" data-name="Ellipse 31" cx="1.5" cy="1.5" r="1.5" transform="translate(219 2573)" fill="#cbcbcb"/>
    </g>
    <g transform="translate(-39 -2528)">
      <circle id="Ellipse_31-61" data-name="Ellipse 31" cx="1.5" cy="1.5" r="1.5" transform="translate(219 2573)" fill="#cbcbcb"/>
    </g>
    <g transform="translate(-24 -2528)">
      <circle id="Ellipse_31-62" data-name="Ellipse 31" cx="1.5" cy="1.5" r="1.5" transform="translate(219 2573)" fill="#cbcbcb"/>
    </g>
    <g transform="translate(-9 -2528)">
      <circle id="Ellipse_31-63" data-name="Ellipse 31" cx="1.5" cy="1.5" r="1.5" transform="translate(219 2573)" fill="#cbcbcb"/>
    </g>
    <g transform="translate(6 -2528)">
      <circle id="Ellipse_31-64" data-name="Ellipse 31" cx="1.5" cy="1.5" r="1.5" transform="translate(219 2573)" fill="#cbcbcb"/>
    </g>
    <g transform="translate(-219 -2513)">
      <circle id="Ellipse_31-65" data-name="Ellipse 31" cx="1.5" cy="1.5" r="1.5" transform="translate(219 2573)" fill="#cbcbcb"/>
    </g>
    <g transform="translate(-204 -2513)">
      <circle id="Ellipse_31-66" data-name="Ellipse 31" cx="1.5" cy="1.5" r="1.5" transform="translate(219 2573)" fill="#cbcbcb"/>
    </g>
    <g transform="translate(-189 -2513)">
      <circle id="Ellipse_31-67" data-name="Ellipse 31" cx="1.5" cy="1.5" r="1.5" transform="translate(219 2573)" fill="#cbcbcb"/>
    </g>
    <g transform="translate(-174 -2513)">
      <circle id="Ellipse_31-68" data-name="Ellipse 31" cx="1.5" cy="1.5" r="1.5" transform="translate(219 2573)" fill="#cbcbcb"/>
    </g>
    <g transform="translate(-159 -2513)">
      <circle id="Ellipse_31-69" data-name="Ellipse 31" cx="1.5" cy="1.5" r="1.5" transform="translate(219 2573)" fill="#cbcbcb"/>
    </g>
    <g transform="translate(-144 -2513)">
      <circle id="Ellipse_31-70" data-name="Ellipse 31" cx="1.5" cy="1.5" r="1.5" transform="translate(219 2573)" fill="#cbcbcb"/>
    </g>
    <g transform="translate(-129 -2513)">
      <circle id="Ellipse_31-71" data-name="Ellipse 31" cx="1.5" cy="1.5" r="1.5" transform="translate(219 2573)" fill="#cbcbcb"/>
    </g>
    <g transform="translate(-114 -2513)">
      <circle id="Ellipse_31-72" data-name="Ellipse 31" cx="1.5" cy="1.5" r="1.5" transform="translate(219 2573)" fill="#cbcbcb"/>
    </g>
    <g transform="translate(-99 -2513)">
      <circle id="Ellipse_31-73" data-name="Ellipse 31" cx="1.5" cy="1.5" r="1.5" transform="translate(219 2573)" fill="#cbcbcb"/>
    </g>
    <g transform="translate(-84 -2513)">
      <circle id="Ellipse_31-74" data-name="Ellipse 31" cx="1.5" cy="1.5" r="1.5" transform="translate(219 2573)" fill="#cbcbcb"/>
    </g>
    <g transform="translate(-69 -2513)">
      <circle id="Ellipse_31-75" data-name="Ellipse 31" cx="1.5" cy="1.5" r="1.5" transform="translate(219 2573)" fill="#cbcbcb"/>
    </g>
    <g transform="translate(-54 -2513)">
      <circle id="Ellipse_31-76" data-name="Ellipse 31" cx="1.5" cy="1.5" r="1.5" transform="translate(219 2573)" fill="#cbcbcb"/>
    </g>
    <g transform="translate(-39 -2513)">
      <circle id="Ellipse_31-77" data-name="Ellipse 31" cx="1.5" cy="1.5" r="1.5" transform="translate(219 2573)" fill="#cbcbcb"/>
    </g>
    <g transform="translate(-24 -2513)">
      <circle id="Ellipse_31-78" data-name="Ellipse 31" cx="1.5" cy="1.5" r="1.5" transform="translate(219 2573)" fill="#cbcbcb"/>
    </g>
    <g transform="translate(-9 -2513)">
      <circle id="Ellipse_31-79" data-name="Ellipse 31" cx="1.5" cy="1.5" r="1.5" transform="translate(219 2573)" fill="#cbcbcb"/>
    </g>
    <g transform="translate(6 -2513)">
      <circle id="Ellipse_31-80" data-name="Ellipse 31" cx="1.5" cy="1.5" r="1.5" transform="translate(219 2573)" fill="#cbcbcb"/>
    </g>
    <g transform="translate(-219 -2498)">
      <circle id="Ellipse_31-81" data-name="Ellipse 31" cx="1.5" cy="1.5" r="1.5" transform="translate(219 2573)" fill="#cbcbcb"/>
    </g>
    <g transform="translate(-204 -2498)">
      <circle id="Ellipse_31-82" data-name="Ellipse 31" cx="1.5" cy="1.5" r="1.5" transform="translate(219 2573)" fill="#cbcbcb"/>
    </g>
    <g transform="translate(-189 -2498)">
      <circle id="Ellipse_31-83" data-name="Ellipse 31" cx="1.5" cy="1.5" r="1.5" transform="translate(219 2573)" fill="#cbcbcb"/>
    </g>
    <g transform="translate(-174 -2498)">
      <circle id="Ellipse_31-84" data-name="Ellipse 31" cx="1.5" cy="1.5" r="1.5" transform="translate(219 2573)" fill="#cbcbcb"/>
    </g>
    <g transform="translate(-159 -2498)">
      <circle id="Ellipse_31-85" data-name="Ellipse 31" cx="1.5" cy="1.5" r="1.5" transform="translate(219 2573)" fill="#cbcbcb"/>
    </g>
    <g transform="translate(-144 -2498)">
      <circle id="Ellipse_31-86" data-name="Ellipse 31" cx="1.5" cy="1.5" r="1.5" transform="translate(219 2573)" fill="#cbcbcb"/>
    </g>
    <g transform="translate(-129 -2498)">
      <circle id="Ellipse_31-87" data-name="Ellipse 31" cx="1.5" cy="1.5" r="1.5" transform="translate(219 2573)" fill="#cbcbcb"/>
    </g>
    <g transform="translate(-114 -2498)">
      <circle id="Ellipse_31-88" data-name="Ellipse 31" cx="1.5" cy="1.5" r="1.5" transform="translate(219 2573)" fill="#cbcbcb"/>
    </g>
    <g transform="translate(-99 -2498)">
      <circle id="Ellipse_31-89" data-name="Ellipse 31" cx="1.5" cy="1.5" r="1.5" transform="translate(219 2573)" fill="#cbcbcb"/>
    </g>
    <g transform="translate(-84 -2498)">
      <circle id="Ellipse_31-90" data-name="Ellipse 31" cx="1.5" cy="1.5" r="1.5" transform="translate(219 2573)" fill="#cbcbcb"/>
    </g>
    <g transform="translate(-69 -2498)">
      <circle id="Ellipse_31-91" data-name="Ellipse 31" cx="1.5" cy="1.5" r="1.5" transform="translate(219 2573)" fill="#cbcbcb"/>
    </g>
    <g transform="translate(-54 -2498)">
      <circle id="Ellipse_31-92" data-name="Ellipse 31" cx="1.5" cy="1.5" r="1.5" transform="translate(219 2573)" fill="#cbcbcb"/>
    </g>
    <g transform="translate(-39 -2498)">
      <circle id="Ellipse_31-93" data-name="Ellipse 31" cx="1.5" cy="1.5" r="1.5" transform="translate(219 2573)" fill="#cbcbcb"/>
    </g>
    <g transform="translate(-24 -2498)">
      <circle id="Ellipse_31-94" data-name="Ellipse 31" cx="1.5" cy="1.5" r="1.5" transform="translate(219 2573)" fill="#cbcbcb"/>
    </g>
    <g transform="translate(-9 -2498)">
      <circle id="Ellipse_31-95" data-name="Ellipse 31" cx="1.5" cy="1.5" r="1.5" transform="translate(219 2573)" fill="#cbcbcb"/>
    </g>
    <g transform="translate(6 -2498)">
      <circle id="Ellipse_31-96" data-name="Ellipse 31" cx="1.5" cy="1.5" r="1.5" transform="translate(219 2573)" fill="#cbcbcb"/>
    </g>
    <g transform="translate(-219 -2483)">
      <circle id="Ellipse_31-97" data-name="Ellipse 31" cx="1.5" cy="1.5" r="1.5" transform="translate(219 2573)" fill="#cbcbcb"/>
    </g>
    <g transform="translate(-204 -2483)">
      <circle id="Ellipse_31-98" data-name="Ellipse 31" cx="1.5" cy="1.5" r="1.5" transform="translate(219 2573)" fill="#cbcbcb"/>
    </g>
    <g transform="translate(-189 -2483)">
      <circle id="Ellipse_31-99" data-name="Ellipse 31" cx="1.5" cy="1.5" r="1.5" transform="translate(219 2573)" fill="#cbcbcb"/>
    </g>
    <g transform="translate(-174 -2483)">
      <circle id="Ellipse_31-100" data-name="Ellipse 31" cx="1.5" cy="1.5" r="1.5" transform="translate(219 2573)" fill="#cbcbcb"/>
    </g>
    <g transform="translate(-159 -2483)">
      <circle id="Ellipse_31-101" data-name="Ellipse 31" cx="1.5" cy="1.5" r="1.5" transform="translate(219 2573)" fill="#cbcbcb"/>
    </g>
    <g transform="translate(-144 -2483)">
      <circle id="Ellipse_31-102" data-name="Ellipse 31" cx="1.5" cy="1.5" r="1.5" transform="translate(219 2573)" fill="#cbcbcb"/>
    </g>
    <g transform="translate(-129 -2483)">
      <circle id="Ellipse_31-103" data-name="Ellipse 31" cx="1.5" cy="1.5" r="1.5" transform="translate(219 2573)" fill="#cbcbcb"/>
    </g>
    <g transform="translate(-114 -2483)">
      <circle id="Ellipse_31-104" data-name="Ellipse 31" cx="1.5" cy="1.5" r="1.5" transform="translate(219 2573)" fill="#cbcbcb"/>
    </g>
    <g transform="translate(-99 -2483)">
      <circle id="Ellipse_31-105" data-name="Ellipse 31" cx="1.5" cy="1.5" r="1.5" transform="translate(219 2573)" fill="#cbcbcb"/>
    </g>
    <g transform="translate(-84 -2483)">
      <circle id="Ellipse_31-106" data-name="Ellipse 31" cx="1.5" cy="1.5" r="1.5" transform="translate(219 2573)" fill="#cbcbcb"/>
    </g>
    <g transform="translate(-69 -2483)">
      <circle id="Ellipse_31-107" data-name="Ellipse 31" cx="1.5" cy="1.5" r="1.5" transform="translate(219 2573)" fill="#cbcbcb"/>
    </g>
    <g transform="translate(-54 -2483)">
      <circle id="Ellipse_31-108" data-name="Ellipse 31" cx="1.5" cy="1.5" r="1.5" transform="translate(219 2573)" fill="#cbcbcb"/>
    </g>
    <g transform="translate(-39 -2483)">
      <circle id="Ellipse_31-109" data-name="Ellipse 31" cx="1.5" cy="1.5" r="1.5" transform="translate(219 2573)" fill="#cbcbcb"/>
    </g>
    <g transform="translate(-24 -2483)">
      <circle id="Ellipse_31-110" data-name="Ellipse 31" cx="1.5" cy="1.5" r="1.5" transform="translate(219 2573)" fill="#cbcbcb"/>
    </g>
    <g transform="translate(-9 -2483)">
      <circle id="Ellipse_31-111" data-name="Ellipse 31" cx="1.5" cy="1.5" r="1.5" transform="translate(219 2573)" fill="#cbcbcb"/>
    </g>
    <g transform="translate(6 -2483)">
      <circle id="Ellipse_31-112" data-name="Ellipse 31" cx="1.5" cy="1.5" r="1.5" transform="translate(219 2573)" fill="#cbcbcb"/>
    </g>
    <g transform="translate(-219 -2468)">
      <circle id="Ellipse_31-113" data-name="Ellipse 31" cx="1.5" cy="1.5" r="1.5" transform="translate(219 2573)" fill="#cbcbcb"/>
    </g>
    <g transform="translate(-204 -2468)">
      <circle id="Ellipse_31-114" data-name="Ellipse 31" cx="1.5" cy="1.5" r="1.5" transform="translate(219 2573)" fill="#cbcbcb"/>
    </g>
    <g transform="translate(-189 -2468)">
      <circle id="Ellipse_31-115" data-name="Ellipse 31" cx="1.5" cy="1.5" r="1.5" transform="translate(219 2573)" fill="#cbcbcb"/>
    </g>
    <g transform="translate(-174 -2468)">
      <circle id="Ellipse_31-116" data-name="Ellipse 31" cx="1.5" cy="1.5" r="1.5" transform="translate(219 2573)" fill="#cbcbcb"/>
    </g>
    <g transform="translate(-159 -2468)">
      <circle id="Ellipse_31-117" data-name="Ellipse 31" cx="1.5" cy="1.5" r="1.5" transform="translate(219 2573)" fill="#cbcbcb"/>
    </g>
    <g transform="translate(-144 -2468)">
      <circle id="Ellipse_31-118" data-name="Ellipse 31" cx="1.5" cy="1.5" r="1.5" transform="translate(219 2573)" fill="#cbcbcb"/>
    </g>
    <g transform="translate(-129 -2468)">
      <circle id="Ellipse_31-119" data-name="Ellipse 31" cx="1.5" cy="1.5" r="1.5" transform="translate(219 2573)" fill="#cbcbcb"/>
    </g>
    <g transform="translate(-114 -2468)">
      <circle id="Ellipse_31-120" data-name="Ellipse 31" cx="1.5" cy="1.5" r="1.5" transform="translate(219 2573)" fill="#cbcbcb"/>
    </g>
    <g transform="translate(-99 -2468)">
      <circle id="Ellipse_31-121" data-name="Ellipse 31" cx="1.5" cy="1.5" r="1.5" transform="translate(219 2573)" fill="#cbcbcb"/>
    </g>
    <g transform="translate(-84 -2468)">
      <circle id="Ellipse_31-122" data-name="Ellipse 31" cx="1.5" cy="1.5" r="1.5" transform="translate(219 2573)" fill="#cbcbcb"/>
    </g>
    <g transform="translate(-69 -2468)">
      <circle id="Ellipse_31-123" data-name="Ellipse 31" cx="1.5" cy="1.5" r="1.5" transform="translate(219 2573)" fill="#cbcbcb"/>
    </g>
    <g transform="translate(-54 -2468)">
      <circle id="Ellipse_31-124" data-name="Ellipse 31" cx="1.5" cy="1.5" r="1.5" transform="translate(219 2573)" fill="#cbcbcb"/>
    </g>
    <g transform="translate(-39 -2468)">
      <circle id="Ellipse_31-125" data-name="Ellipse 31" cx="1.5" cy="1.5" r="1.5" transform="translate(219 2573)" fill="#cbcbcb"/>
    </g>
    <g transform="translate(-24 -2468)">
      <circle id="Ellipse_31-126" data-name="Ellipse 31" cx="1.5" cy="1.5" r="1.5" transform="translate(219 2573)" fill="#cbcbcb"/>
    </g>
    <g transform="translate(-9 -2468)">
      <circle id="Ellipse_31-127" data-name="Ellipse 31" cx="1.5" cy="1.5" r="1.5" transform="translate(219 2573)" fill="#cbcbcb"/>
    </g>
    <g transform="translate(6 -2468)">
      <circle id="Ellipse_31-128" data-name="Ellipse 31" cx="1.5" cy="1.5" r="1.5" transform="translate(219 2573)" fill="#cbcbcb"/>
    </g>
    <g transform="translate(-219 -2453)">
      <circle id="Ellipse_31-129" data-name="Ellipse 31" cx="1.5" cy="1.5" r="1.5" transform="translate(219 2573)" fill="#cbcbcb"/>
    </g>
    <g transform="translate(-204 -2453)">
      <circle id="Ellipse_31-130" data-name="Ellipse 31" cx="1.5" cy="1.5" r="1.5" transform="translate(219 2573)" fill="#cbcbcb"/>
    </g>
    <g transform="translate(-189 -2453)">
      <circle id="Ellipse_31-131" data-name="Ellipse 31" cx="1.5" cy="1.5" r="1.5" transform="translate(219 2573)" fill="#cbcbcb"/>
    </g>
    <g transform="translate(-174 -2453)">
      <circle id="Ellipse_31-132" data-name="Ellipse 31" cx="1.5" cy="1.5" r="1.5" transform="translate(219 2573)" fill="#cbcbcb"/>
    </g>
    <g transform="translate(-159 -2453)">
      <circle id="Ellipse_31-133" data-name="Ellipse 31" cx="1.5" cy="1.5" r="1.5" transform="translate(219 2573)" fill="#cbcbcb"/>
    </g>
    <g transform="translate(-144 -2453)">
      <circle id="Ellipse_31-134" data-name="Ellipse 31" cx="1.5" cy="1.5" r="1.5" transform="translate(219 2573)" fill="#cbcbcb"/>
    </g>
    <g transform="translate(-129 -2453)">
      <circle id="Ellipse_31-135" data-name="Ellipse 31" cx="1.5" cy="1.5" r="1.5" transform="translate(219 2573)" fill="#cbcbcb"/>
    </g>
    <g transform="translate(-114 -2453)">
      <circle id="Ellipse_31-136" data-name="Ellipse 31" cx="1.5" cy="1.5" r="1.5" transform="translate(219 2573)" fill="#cbcbcb"/>
    </g>
    <g transform="translate(-99 -2453)">
      <circle id="Ellipse_31-137" data-name="Ellipse 31" cx="1.5" cy="1.5" r="1.5" transform="translate(219 2573)" fill="#cbcbcb"/>
    </g>
    <g transform="translate(-84 -2453)">
      <circle id="Ellipse_31-138" data-name="Ellipse 31" cx="1.5" cy="1.5" r="1.5" transform="translate(219 2573)" fill="#cbcbcb"/>
    </g>
    <g transform="translate(-69 -2453)">
      <circle id="Ellipse_31-139" data-name="Ellipse 31" cx="1.5" cy="1.5" r="1.5" transform="translate(219 2573)" fill="#cbcbcb"/>
    </g>
    <g transform="translate(-54 -2453)">
      <circle id="Ellipse_31-140" data-name="Ellipse 31" cx="1.5" cy="1.5" r="1.5" transform="translate(219 2573)" fill="#cbcbcb"/>
    </g>
    <g transform="translate(-39 -2453)">
      <circle id="Ellipse_31-141" data-name="Ellipse 31" cx="1.5" cy="1.5" r="1.5" transform="translate(219 2573)" fill="#cbcbcb"/>
    </g>
    <g transform="translate(-24 -2453)">
      <circle id="Ellipse_31-142" data-name="Ellipse 31" cx="1.5" cy="1.5" r="1.5" transform="translate(219 2573)" fill="#cbcbcb"/>
    </g>
    <g transform="translate(-9 -2453)">
      <circle id="Ellipse_31-143" data-name="Ellipse 31" cx="1.5" cy="1.5" r="1.5" transform="translate(219 2573)" fill="#cbcbcb"/>
    </g>
    <g transform="translate(6 -2453)">
      <circle id="Ellipse_31-144" data-name="Ellipse 31" cx="1.5" cy="1.5" r="1.5" transform="translate(219 2573)" fill="#cbcbcb"/>
    </g>
    <g transform="translate(-219 -2438)">
      <circle id="Ellipse_31-145" data-name="Ellipse 31" cx="1.5" cy="1.5" r="1.5" transform="translate(219 2573)" fill="#cbcbcb"/>
    </g>
    <g transform="translate(-204 -2438)">
      <circle id="Ellipse_31-146" data-name="Ellipse 31" cx="1.5" cy="1.5" r="1.5" transform="translate(219 2573)" fill="#cbcbcb"/>
    </g>
    <g transform="translate(-189 -2438)">
      <circle id="Ellipse_31-147" data-name="Ellipse 31" cx="1.5" cy="1.5" r="1.5" transform="translate(219 2573)" fill="#cbcbcb"/>
    </g>
    <g transform="translate(-174 -2438)">
      <circle id="Ellipse_31-148" data-name="Ellipse 31" cx="1.5" cy="1.5" r="1.5" transform="translate(219 2573)" fill="#cbcbcb"/>
    </g>
    <g transform="translate(-159 -2438)">
      <circle id="Ellipse_31-149" data-name="Ellipse 31" cx="1.5" cy="1.5" r="1.5" transform="translate(219 2573)" fill="#cbcbcb"/>
    </g>
    <g transform="translate(-144 -2438)">
      <circle id="Ellipse_31-150" data-name="Ellipse 31" cx="1.5" cy="1.5" r="1.5" transform="translate(219 2573)" fill="#cbcbcb"/>
    </g>
    <g transform="translate(-129 -2438)">
      <circle id="Ellipse_31-151" data-name="Ellipse 31" cx="1.5" cy="1.5" r="1.5" transform="translate(219 2573)" fill="#cbcbcb"/>
    </g>
    <g transform="translate(-114 -2438)">
      <circle id="Ellipse_31-152" data-name="Ellipse 31" cx="1.5" cy="1.5" r="1.5" transform="translate(219 2573)" fill="#cbcbcb"/>
    </g>
    <g transform="translate(-99 -2438)">
      <circle id="Ellipse_31-153" data-name="Ellipse 31" cx="1.5" cy="1.5" r="1.5" transform="translate(219 2573)" fill="#cbcbcb"/>
    </g>
    <g transform="translate(-84 -2438)">
      <circle id="Ellipse_31-154" data-name="Ellipse 31" cx="1.5" cy="1.5" r="1.5" transform="translate(219 2573)" fill="#cbcbcb"/>
    </g>
    <g transform="translate(-69 -2438)">
      <circle id="Ellipse_31-155" data-name="Ellipse 31" cx="1.5" cy="1.5" r="1.5" transform="translate(219 2573)" fill="#cbcbcb"/>
    </g>
    <g transform="translate(-54 -2438)">
      <circle id="Ellipse_31-156" data-name="Ellipse 31" cx="1.5" cy="1.5" r="1.5" transform="translate(219 2573)" fill="#cbcbcb"/>
    </g>
    <g transform="translate(-39 -2438)">
      <circle id="Ellipse_31-157" data-name="Ellipse 31" cx="1.5" cy="1.5" r="1.5" transform="translate(219 2573)" fill="#cbcbcb"/>
    </g>
    <g transform="translate(-24 -2438)">
      <circle id="Ellipse_31-158" data-name="Ellipse 31" cx="1.5" cy="1.5" r="1.5" transform="translate(219 2573)" fill="#cbcbcb"/>
    </g>
    <g transform="translate(-9 -2438)">
      <circle id="Ellipse_31-159" data-name="Ellipse 31" cx="1.5" cy="1.5" r="1.5" transform="translate(219 2573)" fill="#cbcbcb"/>
    </g>
    <g transform="translate(6 -2438)">
      <circle id="Ellipse_31-160" data-name="Ellipse 31" cx="1.5" cy="1.5" r="1.5" transform="translate(219 2573)" fill="#cbcbcb"/>
    </g>
    <g transform="translate(-219 -2423)">
      <circle id="Ellipse_31-161" data-name="Ellipse 31" cx="1.5" cy="1.5" r="1.5" transform="translate(219 2573)" fill="#cbcbcb"/>
    </g>
    <g transform="translate(-204 -2423)">
      <circle id="Ellipse_31-162" data-name="Ellipse 31" cx="1.5" cy="1.5" r="1.5" transform="translate(219 2573)" fill="#cbcbcb"/>
    </g>
    <g transform="translate(-189 -2423)">
      <circle id="Ellipse_31-163" data-name="Ellipse 31" cx="1.5" cy="1.5" r="1.5" transform="translate(219 2573)" fill="#cbcbcb"/>
    </g>
    <g transform="translate(-174 -2423)">
      <circle id="Ellipse_31-164" data-name="Ellipse 31" cx="1.5" cy="1.5" r="1.5" transform="translate(219 2573)" fill="#cbcbcb"/>
    </g>
    <g transform="translate(-159 -2423)">
      <circle id="Ellipse_31-165" data-name="Ellipse 31" cx="1.5" cy="1.5" r="1.5" transform="translate(219 2573)" fill="#cbcbcb"/>
    </g>
    <g transform="translate(-144 -2423)">
      <circle id="Ellipse_31-166" data-name="Ellipse 31" cx="1.5" cy="1.5" r="1.5" transform="translate(219 2573)" fill="#cbcbcb"/>
    </g>
    <g transform="translate(-129 -2423)">
      <circle id="Ellipse_31-167" data-name="Ellipse 31" cx="1.5" cy="1.5" r="1.5" transform="translate(219 2573)" fill="#cbcbcb"/>
    </g>
    <g transform="translate(-114 -2423)">
      <circle id="Ellipse_31-168" data-name="Ellipse 31" cx="1.5" cy="1.5" r="1.5" transform="translate(219 2573)" fill="#cbcbcb"/>
    </g>
    <g transform="translate(-99 -2423)">
      <circle id="Ellipse_31-169" data-name="Ellipse 31" cx="1.5" cy="1.5" r="1.5" transform="translate(219 2573)" fill="#cbcbcb"/>
    </g>
    <g transform="translate(-84 -2423)">
      <circle id="Ellipse_31-170" data-name="Ellipse 31" cx="1.5" cy="1.5" r="1.5" transform="translate(219 2573)" fill="#cbcbcb"/>
    </g>
    <g transform="translate(-69 -2423)">
      <circle id="Ellipse_31-171" data-name="Ellipse 31" cx="1.5" cy="1.5" r="1.5" transform="translate(219 2573)" fill="#cbcbcb"/>
    </g>
    <g transform="translate(-54 -2423)">
      <circle id="Ellipse_31-172" data-name="Ellipse 31" cx="1.5" cy="1.5" r="1.5" transform="translate(219 2573)" fill="#cbcbcb"/>
    </g>
    <g transform="translate(-39 -2423)">
      <circle id="Ellipse_31-173" data-name="Ellipse 31" cx="1.5" cy="1.5" r="1.5" transform="translate(219 2573)" fill="#cbcbcb"/>
    </g>
    <g transform="translate(-24 -2423)">
      <circle id="Ellipse_31-174" data-name="Ellipse 31" cx="1.5" cy="1.5" r="1.5" transform="translate(219 2573)" fill="#cbcbcb"/>
    </g>
    <g transform="translate(-9 -2423)">
      <circle id="Ellipse_31-175" data-name="Ellipse 31" cx="1.5" cy="1.5" r="1.5" transform="translate(219 2573)" fill="#cbcbcb"/>
    </g>
    <g transform="translate(6 -2423)">
      <circle id="Ellipse_31-176" data-name="Ellipse 31" cx="1.5" cy="1.5" r="1.5" transform="translate(219 2573)" fill="#cbcbcb"/>
    </g>
    <g transform="translate(-219 -2408)">
      <circle id="Ellipse_31-177" data-name="Ellipse 31" cx="1.5" cy="1.5" r="1.5" transform="translate(219 2573)" fill="#cbcbcb"/>
    </g>
    <g transform="translate(-204 -2408)">
      <circle id="Ellipse_31-178" data-name="Ellipse 31" cx="1.5" cy="1.5" r="1.5" transform="translate(219 2573)" fill="#cbcbcb"/>
    </g>
    <g transform="translate(-189 -2408)">
      <circle id="Ellipse_31-179" data-name="Ellipse 31" cx="1.5" cy="1.5" r="1.5" transform="translate(219 2573)" fill="#cbcbcb"/>
    </g>
    <g transform="translate(-174 -2408)">
      <circle id="Ellipse_31-180" data-name="Ellipse 31" cx="1.5" cy="1.5" r="1.5" transform="translate(219 2573)" fill="#cbcbcb"/>
    </g>
    <g transform="translate(-159 -2408)">
      <circle id="Ellipse_31-181" data-name="Ellipse 31" cx="1.5" cy="1.5" r="1.5" transform="translate(219 2573)" fill="#cbcbcb"/>
    </g>
    <g transform="translate(-144 -2408)">
      <circle id="Ellipse_31-182" data-name="Ellipse 31" cx="1.5" cy="1.5" r="1.5" transform="translate(219 2573)" fill="#cbcbcb"/>
    </g>
    <g transform="translate(-129 -2408)">
      <circle id="Ellipse_31-183" data-name="Ellipse 31" cx="1.5" cy="1.5" r="1.5" transform="translate(219 2573)" fill="#cbcbcb"/>
    </g>
    <g transform="translate(-114 -2408)">
      <circle id="Ellipse_31-184" data-name="Ellipse 31" cx="1.5" cy="1.5" r="1.5" transform="translate(219 2573)" fill="#cbcbcb"/>
    </g>
    <g transform="translate(-99 -2408)">
      <circle id="Ellipse_31-185" data-name="Ellipse 31" cx="1.5" cy="1.5" r="1.5" transform="translate(219 2573)" fill="#cbcbcb"/>
    </g>
    <g transform="translate(-84 -2408)">
      <circle id="Ellipse_31-186" data-name="Ellipse 31" cx="1.5" cy="1.5" r="1.5" transform="translate(219 2573)" fill="#cbcbcb"/>
    </g>
    <g transform="translate(-69 -2408)">
      <circle id="Ellipse_31-187" data-name="Ellipse 31" cx="1.5" cy="1.5" r="1.5" transform="translate(219 2573)" fill="#cbcbcb"/>
    </g>
    <g transform="translate(-54 -2408)">
      <circle id="Ellipse_31-188" data-name="Ellipse 31" cx="1.5" cy="1.5" r="1.5" transform="translate(219 2573)" fill="#cbcbcb"/>
    </g>
    <g transform="translate(-39 -2408)">
      <circle id="Ellipse_31-189" data-name="Ellipse 31" cx="1.5" cy="1.5" r="1.5" transform="translate(219 2573)" fill="#cbcbcb"/>
    </g>
    <g transform="translate(-24 -2408)">
      <circle id="Ellipse_31-190" data-name="Ellipse 31" cx="1.5" cy="1.5" r="1.5" transform="translate(219 2573)" fill="#cbcbcb"/>
    </g>
    <g transform="translate(-9 -2408)">
      <circle id="Ellipse_31-191" data-name="Ellipse 31" cx="1.5" cy="1.5" r="1.5" transform="translate(219 2573)" fill="#cbcbcb"/>
    </g>
    <g transform="translate(6 -2408)">
      <circle id="Ellipse_31-192" data-name="Ellipse 31" cx="1.5" cy="1.5" r="1.5" transform="translate(219 2573)" fill="#cbcbcb"/>
    </g>
    <g transform="translate(-219 -2393)">
      <circle id="Ellipse_31-193" data-name="Ellipse 31" cx="1.5" cy="1.5" r="1.5" transform="translate(219 2573)" fill="#cbcbcb"/>
    </g>
    <g transform="translate(-204 -2393)">
      <circle id="Ellipse_31-194" data-name="Ellipse 31" cx="1.5" cy="1.5" r="1.5" transform="translate(219 2573)" fill="#cbcbcb"/>
    </g>
    <g transform="translate(-189 -2393)">
      <circle id="Ellipse_31-195" data-name="Ellipse 31" cx="1.5" cy="1.5" r="1.5" transform="translate(219 2573)" fill="#cbcbcb"/>
    </g>
    <g transform="translate(-174 -2393)">
      <circle id="Ellipse_31-196" data-name="Ellipse 31" cx="1.5" cy="1.5" r="1.5" transform="translate(219 2573)" fill="#cbcbcb"/>
    </g>
    <g transform="translate(-159 -2393)">
      <circle id="Ellipse_31-197" data-name="Ellipse 31" cx="1.5" cy="1.5" r="1.5" transform="translate(219 2573)" fill="#cbcbcb"/>
    </g>
    <g transform="translate(-144 -2393)">
      <circle id="Ellipse_31-198" data-name="Ellipse 31" cx="1.5" cy="1.5" r="1.5" transform="translate(219 2573)" fill="#cbcbcb"/>
    </g>
    <g transform="translate(-129 -2393)">
      <circle id="Ellipse_31-199" data-name="Ellipse 31" cx="1.5" cy="1.5" r="1.5" transform="translate(219 2573)" fill="#cbcbcb"/>
    </g>
    <g transform="translate(-114 -2393)">
      <circle id="Ellipse_31-200" data-name="Ellipse 31" cx="1.5" cy="1.5" r="1.5" transform="translate(219 2573)" fill="#cbcbcb"/>
    </g>
    <g transform="translate(-99 -2393)">
      <circle id="Ellipse_31-201" data-name="Ellipse 31" cx="1.5" cy="1.5" r="1.5" transform="translate(219 2573)" fill="#cbcbcb"/>
    </g>
    <g transform="translate(-84 -2393)">
      <circle id="Ellipse_31-202" data-name="Ellipse 31" cx="1.5" cy="1.5" r="1.5" transform="translate(219 2573)" fill="#cbcbcb"/>
    </g>
    <g transform="translate(-69 -2393)">
      <circle id="Ellipse_31-203" data-name="Ellipse 31" cx="1.5" cy="1.5" r="1.5" transform="translate(219 2573)" fill="#cbcbcb"/>
    </g>
    <g transform="translate(-54 -2393)">
      <circle id="Ellipse_31-204" data-name="Ellipse 31" cx="1.5" cy="1.5" r="1.5" transform="translate(219 2573)" fill="#cbcbcb"/>
    </g>
    <g transform="translate(-39 -2393)">
      <circle id="Ellipse_31-205" data-name="Ellipse 31" cx="1.5" cy="1.5" r="1.5" transform="translate(219 2573)" fill="#cbcbcb"/>
    </g>
    <g transform="translate(-24 -2393)">
      <circle id="Ellipse_31-206" data-name="Ellipse 31" cx="1.5" cy="1.5" r="1.5" transform="translate(219 2573)" fill="#cbcbcb"/>
    </g>
    <g transform="translate(-9 -2393)">
      <circle id="Ellipse_31-207" data-name="Ellipse 31" cx="1.5" cy="1.5" r="1.5" transform="translate(219 2573)" fill="#cbcbcb"/>
    </g>
    <g transform="translate(6 -2393)">
      <circle id="Ellipse_31-208" data-name="Ellipse 31" cx="1.5" cy="1.5" r="1.5" transform="translate(219 2573)" fill="#cbcbcb"/>
    </g>
    <g transform="translate(-219 -2378)">
      <circle id="Ellipse_31-209" data-name="Ellipse 31" cx="1.5" cy="1.5" r="1.5" transform="translate(219 2573)" fill="#cbcbcb"/>
    </g>
    <g transform="translate(-204 -2378)">
      <circle id="Ellipse_31-210" data-name="Ellipse 31" cx="1.5" cy="1.5" r="1.5" transform="translate(219 2573)" fill="#cbcbcb"/>
    </g>
    <g transform="translate(-189 -2378)">
      <circle id="Ellipse_31-211" data-name="Ellipse 31" cx="1.5" cy="1.5" r="1.5" transform="translate(219 2573)" fill="#cbcbcb"/>
    </g>
    <g transform="translate(-174 -2378)">
      <circle id="Ellipse_31-212" data-name="Ellipse 31" cx="1.5" cy="1.5" r="1.5" transform="translate(219 2573)" fill="#cbcbcb"/>
    </g>
    <g transform="translate(-159 -2378)">
      <circle id="Ellipse_31-213" data-name="Ellipse 31" cx="1.5" cy="1.5" r="1.5" transform="translate(219 2573)" fill="#cbcbcb"/>
    </g>
    <g transform="translate(-144 -2378)">
      <circle id="Ellipse_31-214" data-name="Ellipse 31" cx="1.5" cy="1.5" r="1.5" transform="translate(219 2573)" fill="#cbcbcb"/>
    </g>
    <g transform="translate(-129 -2378)">
      <circle id="Ellipse_31-215" data-name="Ellipse 31" cx="1.5" cy="1.5" r="1.5" transform="translate(219 2573)" fill="#cbcbcb"/>
    </g>
    <g transform="translate(-114 -2378)">
      <circle id="Ellipse_31-216" data-name="Ellipse 31" cx="1.5" cy="1.5" r="1.5" transform="translate(219 2573)" fill="#cbcbcb"/>
    </g>
    <g transform="translate(-99 -2378)">
      <circle id="Ellipse_31-217" data-name="Ellipse 31" cx="1.5" cy="1.5" r="1.5" transform="translate(219 2573)" fill="#cbcbcb"/>
    </g>
    <g transform="translate(-84 -2378)">
      <circle id="Ellipse_31-218" data-name="Ellipse 31" cx="1.5" cy="1.5" r="1.5" transform="translate(219 2573)" fill="#cbcbcb"/>
    </g>
    <g transform="translate(-69 -2378)">
      <circle id="Ellipse_31-219" data-name="Ellipse 31" cx="1.5" cy="1.5" r="1.5" transform="translate(219 2573)" fill="#cbcbcb"/>
    </g>
    <g transform="translate(-54 -2378)">
      <circle id="Ellipse_31-220" data-name="Ellipse 31" cx="1.5" cy="1.5" r="1.5" transform="translate(219 2573)" fill="#cbcbcb"/>
    </g>
    <g transform="translate(-39 -2378)">
      <circle id="Ellipse_31-221" data-name="Ellipse 31" cx="1.5" cy="1.5" r="1.5" transform="translate(219 2573)" fill="#cbcbcb"/>
    </g>
    <g transform="translate(-24 -2378)">
      <circle id="Ellipse_31-222" data-name="Ellipse 31" cx="1.5" cy="1.5" r="1.5" transform="translate(219 2573)" fill="#cbcbcb"/>
    </g>
    <g transform="translate(-9 -2378)">
      <circle id="Ellipse_31-223" data-name="Ellipse 31" cx="1.5" cy="1.5" r="1.5" transform="translate(219 2573)" fill="#cbcbcb"/>
    </g>
    <g transform="translate(6 -2378)">
      <circle id="Ellipse_31-224" data-name="Ellipse 31" cx="1.5" cy="1.5" r="1.5" transform="translate(219 2573)" fill="#cbcbcb"/>
    </g>
  </g>
</svg>
