<svg xmlns="http://www.w3.org/2000/svg" xmlns:xlink="http://www.w3.org/1999/xlink" viewBox="0 0 49.101 49.1">
  <defs>
    <style>
      .cls-1 {
        opacity: 0.776;
        fill: url(#linear-gradient);
      }
    </style>
    <linearGradient id="linear-gradient" x1="0.245" y1="0.84" x2="1.884" y2="0.53" gradientUnits="objectBoundingBox">
      <stop offset="0" stop-color="#3679ff"/>
      <stop offset="1" stop-color="#fff" stop-opacity="0"/>
    </linearGradient>
  </defs>
  <path id="Subtraction_6" data-name="Subtraction 6" class="cls-1" d="M20.045,40.09a20.193,20.193,0,0,1-4.04-.407,19.935,19.935,0,0,1-7.168-3.016,20.1,20.1,0,0,1-7.262-8.819A19.944,19.944,0,0,1,.407,24.085a20.24,20.24,0,0,1,0-8.08A19.935,19.935,0,0,1,3.423,8.838a20.1,20.1,0,0,1,8.819-7.262A19.944,19.944,0,0,1,16.005.407a20.241,20.241,0,0,1,8.08,0,19.936,19.936,0,0,1,7.168,3.016,20.1,20.1,0,0,1,7.262,8.819,19.945,19.945,0,0,1,1.168,3.763,20.24,20.24,0,0,1,0,8.08,19.936,19.936,0,0,1-3.016,7.168,20.1,20.1,0,0,1-8.819,7.263,19.945,19.945,0,0,1-3.763,1.168A20.194,20.194,0,0,1,20.045,40.09ZM20.1,8.729a11.317,11.317,0,0,0-6.357,1.942,11.4,11.4,0,0,0-4.119,5,11.355,11.355,0,0,0,1.048,10.783,11.4,11.4,0,0,0,5,4.119,11.355,11.355,0,0,0,10.783-1.048,11.4,11.4,0,0,0,4.119-5,11.355,11.355,0,0,0-1.048-10.783,11.4,11.4,0,0,0-5-4.119A11.3,11.3,0,0,0,20.1,8.729Z" transform="matrix(0.259, -0.966, 0.966, 0.259, 0, 38.724)"/>
</svg>
