<svg xmlns="http://www.w3.org/2000/svg" viewBox="0 0 226.16 45.87"><defs><style>.a{opacity:0.7;}.b,.c{fill:#f2f8ff;}.c{font-size:33px;font-family:Sailec-Light, Sailec;font-weight:300;letter-spacing:-0.1em;}</style></defs><g class="a" transform="translate(-5292.84 -6884)"><g transform="translate(5064.54 6721.55)"><g transform="translate(228.3 162.476)"><g transform="translate(0 0)"><path class="b" d="M102.9,135.5h-2.6v23.284h2.6Z" transform="translate(-100.3 -135.5)"/></g></g><g transform="translate(233.457 162.476)"><g transform="translate(0 0)"><path class="b" d="M112.93,135.5H110.3v23.284h2.63Z" transform="translate(-110.3 -135.5)"/></g></g><g transform="translate(238.458 162.476)"><g transform="translate(0 0)"><path class="b" d="M120.35,135.5v23.284h2.63V135.5Z" transform="translate(-120.35 -135.5)"/></g></g><g transform="translate(243.55 162.476)"><g transform="translate(0 0)"><path class="b" d="M133,135.5h-2.6v23.284H133Z" transform="translate(-130.4 -135.5)"/></g></g><g transform="translate(248.616 162.476)"><g transform="translate(0 0)"><path class="b" d="M143.03,135.5H140.4v23.284h2.63Z" transform="translate(-140.4 -135.5)"/></g></g><g transform="translate(253.016 182.791)"><g transform="translate(0 0)"><path class="b" d="M173.084,178.23V175.6H149.8v2.63Z" transform="translate(-149.8 -175.6)"/></g></g><g transform="translate(253.016 177.699)"><g transform="translate(0)"><path class="b" d="M173.084,168.18v-2.63H149.8v2.63Z" transform="translate(-149.8 -165.55)"/></g></g><g transform="translate(253.016 172.633)"><g transform="translate(0)"><path class="b" d="M173.084,158.154v-2.6H149.8v2.6Z" transform="translate(-149.8 -155.55)"/></g></g><g transform="translate(253.016 167.633)"><g transform="translate(0 0)"><path class="b" d="M173.084,148.13V145.5H149.8v2.63Z" transform="translate(-149.8 -145.5)"/></g></g><g transform="translate(253.016 162.45)"><g transform="translate(0)"><path class="b" d="M173.084,138.08v-2.63H149.8v2.63Z" transform="translate(-149.8 -135.45)"/></g></g><g transform="translate(273.67 185.01)"><g transform="translate(0 0)"><path class="b" d="M192.48,180.7h-2.63v23.284h2.63Z" transform="translate(-189.85 -180.7)"/></g></g><g transform="translate(268.487 185.01)"><g transform="translate(0 0)"><path class="b" d="M182.43,180.7H179.8v23.284h2.63Z" transform="translate(-179.8 -180.7)"/></g></g><g transform="translate(263.512 185.01)"><g transform="translate(0 0)"><path class="b" d="M172.4,180.7h-2.6v23.284h2.6Z" transform="translate(-169.8 -180.7)"/></g></g><g transform="translate(258.42 185.01)"><g transform="translate(0 0)"><path class="b" d="M162.38,203.984V180.7h-2.63v23.284Z" transform="translate(-159.75 -180.7)"/></g></g><g transform="translate(253.328 185.01)"><g transform="translate(0 0)"><path class="b" d="M152.33,180.7H149.7v23.284h2.63Z" transform="translate(-149.7 -180.7)"/></g></g><g transform="translate(228.3 205.69)"><g transform="translate(0)"><path class="b" d="M123.584,223.43V220.8H100.3v2.63Z" transform="translate(-100.3 -220.8)"/></g></g><g transform="translate(228.3 200.533)"><g transform="translate(0 0)"><path class="b" d="M123.584,213.4v-2.6H100.3v2.6Z" transform="translate(-100.3 -210.8)"/></g></g><g transform="translate(228.3 195.532)"><g transform="translate(0)"><path class="b" d="M123.584,203.38v-2.63H100.3v2.63Z" transform="translate(-100.3 -200.75)"/></g></g><g transform="translate(228.3 190.441)"><g transform="translate(0 0)"><path class="b" d="M100.3,190.7v2.63h23.284V190.7Z" transform="translate(-100.3 -190.7)"/></g></g><g transform="translate(228.3 185.375)"><g transform="translate(0 0)"><path class="b" d="M100.3,180.7v2.6h23.284v-2.6Z" transform="translate(-100.3 -180.7)"/></g></g></g><text class="c" transform="translate(5361 6916)"><tspan x="0" y="0">LABRYNTH</tspan></text></g></svg>