<?xml version="1.0" encoding="utf-8"?>
<!-- Generator: Adobe Illustrator 23.0.1, SVG Export Plug-In . SVG Version: 6.00 Build 0)  -->
<svg version="1.1" id="Layer_1" xmlns="http://www.w3.org/2000/svg" xmlns:xlink="http://www.w3.org/1999/xlink" x="0px" y="0px"
	 viewBox="0 0 88.8 82" style="enable-background:new 0 0 88.8 82;" xml:space="preserve">
<style type="text/css">
	.st0{enable-background:new    ;}
	.st1{fill:#ECF4FD;}
</style>
<g class="st0">
	<path class="st1" d="M43.7,25.8c-7.2,7.8-10.9,16.6-10.9,26.4c0,3,0.5,5.9,1.6,8.7c-1.1,0.8-2.8,1.4-5.1,1.9
		c-2.3,0.5-4.2,0.8-5.9,0.8c-4.2,0-7.5-1.2-9.9-3.5c-2.4-2.3-3.6-5.5-3.6-9.5c0-4,0.7-7.5,2.1-10.4c1.4-3,3.3-5.6,5.8-7.8
		c5.5-4.9,12.1-7.3,19.9-7.3C39.1,24.9,41.2,25.2,43.7,25.8z M77.3,25.8C70,33.6,66.4,42.4,66.4,52.1c0,3,0.5,5.9,1.6,8.7
		c-1.1,0.8-2.8,1.4-5.1,1.9c-2.3,0.5-4.2,0.8-5.9,0.8c-4.2,0-7.5-1.2-9.9-3.5c-2.4-2.3-3.6-5.5-3.6-9.4s0.7-7.4,2.1-10.4
		c1.4-3,3.3-5.6,5.8-7.9c5.5-4.9,12.1-7.3,19.9-7.3C72.7,24.9,74.7,25.2,77.3,25.8z"/>
</g>
</svg>
