<svg xmlns="http://www.w3.org/2000/svg" xmlns:xlink="http://www.w3.org/1999/xlink" width="172.986" height="172.986" viewBox="0 0 172.986 172.986"><defs><style>.a,.e{fill:#f1f7fe;}.a{opacity:0.389;}.b{fill:none;}.c{clip-path:url(#a);}.d{clip-path:url(#b);}</style><clipPath id="a"><path class="a" d="M86.493,172.986a87.128,87.128,0,0,1-17.431-1.757,86.018,86.018,0,0,1-30.928-13.014A86.747,86.747,0,0,1,6.8,120.16a86.057,86.057,0,0,1-5.04-16.236,87.335,87.335,0,0,1,0-34.863A86.017,86.017,0,0,1,14.772,38.134,86.747,86.747,0,0,1,52.826,6.8a86.062,86.062,0,0,1,16.236-5.04,87.333,87.333,0,0,1,34.863,0,86.016,86.016,0,0,1,30.928,13.014,86.746,86.746,0,0,1,31.337,38.054,86.06,86.06,0,0,1,5.04,16.236,87.335,87.335,0,0,1,0,34.863,86.019,86.019,0,0,1-13.014,30.928,86.745,86.745,0,0,1-38.054,31.337,86.056,86.056,0,0,1-16.236,5.04A87.126,87.126,0,0,1,86.493,172.986Zm.232-135.32a49.42,49.42,0,0,0-9.887,1A48.791,48.791,0,0,0,59.3,46.045,49.2,49.2,0,0,0,41.522,67.629a48.811,48.811,0,0,0-2.859,9.209,49.537,49.537,0,0,0,0,19.774,48.79,48.79,0,0,0,7.382,17.542,49.2,49.2,0,0,0,21.585,17.774,48.814,48.814,0,0,0,9.209,2.859,49.536,49.536,0,0,0,19.774,0,48.788,48.788,0,0,0,17.542-7.382,49.2,49.2,0,0,0,17.774-21.585,48.812,48.812,0,0,0,2.859-9.209,49.538,49.538,0,0,0,0-19.774A48.791,48.791,0,0,0,127.406,59.3a49.2,49.2,0,0,0-21.585-17.774,48.814,48.814,0,0,0-9.209-2.859A49.42,49.42,0,0,0,86.726,37.666Z" transform="translate(0 0)"/></clipPath><clipPath id="b"><rect class="b" width="233.574" height="233.574"/></clipPath></defs><g class="c"><g class="d" transform="translate(191.521 -40.328) rotate(90)"><g transform="translate(-219 -2573)"><circle class="e" cx="1.5" cy="1.5" r="1.5" transform="translate(219 2573)"/></g><g transform="translate(-210 -2573)"><circle class="e" cx="1.5" cy="1.5" r="1.5" transform="translate(219 2573)"/></g><g transform="translate(-201 -2573)"><circle class="e" cx="1.5" cy="1.5" r="1.5" transform="translate(219 2573)"/></g><g transform="translate(-192 -2573)"><circle class="e" cx="1.5" cy="1.5" r="1.5" transform="translate(219 2573)"/></g><g transform="translate(-183 -2573)"><circle class="e" cx="1.5" cy="1.5" r="1.5" transform="translate(219 2573)"/></g><g transform="translate(-174 -2573)"><circle class="e" cx="1.5" cy="1.5" r="1.5" transform="translate(219 2573)"/></g><g transform="translate(-165 -2573)"><circle class="e" cx="1.5" cy="1.5" r="1.5" transform="translate(219 2573)"/></g><g transform="translate(-156 -2573)"><circle class="e" cx="1.5" cy="1.5" r="1.5" transform="translate(219 2573)"/></g><g transform="translate(-147 -2573)"><circle class="e" cx="1.5" cy="1.5" r="1.5" transform="translate(219 2573)"/></g><g transform="translate(-138 -2573)"><circle class="e" cx="1.5" cy="1.5" r="1.5" transform="translate(219 2573)"/></g><g transform="translate(-129 -2573)"><circle class="e" cx="1.5" cy="1.5" r="1.5" transform="translate(219 2573)"/></g><g transform="translate(-120 -2573)"><circle class="e" cx="1.5" cy="1.5" r="1.5" transform="translate(219 2573)"/></g><g transform="translate(-111 -2573)"><circle class="e" cx="1.5" cy="1.5" r="1.5" transform="translate(219 2573)"/></g><g transform="translate(-102 -2573)"><circle class="e" cx="1.5" cy="1.5" r="1.5" transform="translate(219 2573)"/></g><g transform="translate(-93 -2573)"><circle class="e" cx="1.5" cy="1.5" r="1.5" transform="translate(219 2573)"/></g><g transform="translate(-84 -2573)"><circle class="e" cx="1.5" cy="1.5" r="1.5" transform="translate(219 2573)"/></g><g transform="translate(-75 -2573)"><circle class="e" cx="1.5" cy="1.5" r="1.5" transform="translate(219 2573)"/></g><g transform="translate(-66 -2573)"><circle class="e" cx="1.5" cy="1.5" r="1.5" transform="translate(219 2573)"/></g><g transform="translate(-57 -2573)"><circle class="e" cx="1.5" cy="1.5" r="1.5" transform="translate(219 2573)"/></g><g transform="translate(-48 -2573)"><circle class="e" cx="1.5" cy="1.5" r="1.5" transform="translate(219 2573)"/></g><g transform="translate(-39 -2573)"><circle class="e" cx="1.5" cy="1.5" r="1.5" transform="translate(219 2573)"/></g><g transform="translate(-30 -2573)"><circle class="e" cx="1.5" cy="1.5" r="1.5" transform="translate(219 2573)"/></g><g transform="translate(-21 -2573)"><circle class="e" cx="1.5" cy="1.5" r="1.5" transform="translate(219 2573)"/></g><g transform="translate(-12 -2573)"><circle class="e" cx="1.5" cy="1.5" r="1.5" transform="translate(219 2573)"/></g><g transform="translate(-3 -2573)"><circle class="e" cx="1.5" cy="1.5" r="1.5" transform="translate(219 2573)"/></g><g transform="translate(6 -2573)"><circle class="e" cx="1.5" cy="1.5" r="1.5" transform="translate(219 2573)"/></g><g transform="translate(-219 -2564)"><circle class="e" cx="1.5" cy="1.5" r="1.5" transform="translate(219 2573)"/></g><g transform="translate(-210 -2564)"><circle class="e" cx="1.5" cy="1.5" r="1.5" transform="translate(219 2573)"/></g><g transform="translate(-201 -2564)"><circle class="e" cx="1.5" cy="1.5" r="1.5" transform="translate(219 2573)"/></g><g transform="translate(-192 -2564)"><circle class="e" cx="1.5" cy="1.5" r="1.5" transform="translate(219 2573)"/></g><g transform="translate(-183 -2564)"><circle class="e" cx="1.5" cy="1.5" r="1.5" transform="translate(219 2573)"/></g><g transform="translate(-174 -2564)"><circle class="e" cx="1.5" cy="1.5" r="1.5" transform="translate(219 2573)"/></g><g transform="translate(-165 -2564)"><circle class="e" cx="1.5" cy="1.5" r="1.5" transform="translate(219 2573)"/></g><g transform="translate(-156 -2564)"><circle class="e" cx="1.5" cy="1.5" r="1.5" transform="translate(219 2573)"/></g><g transform="translate(-147 -2564)"><circle class="e" cx="1.5" cy="1.5" r="1.5" transform="translate(219 2573)"/></g><g transform="translate(-138 -2564)"><circle class="e" cx="1.5" cy="1.5" r="1.5" transform="translate(219 2573)"/></g><g transform="translate(-129 -2564)"><circle class="e" cx="1.5" cy="1.5" r="1.5" transform="translate(219 2573)"/></g><g transform="translate(-120 -2564)"><circle class="e" cx="1.5" cy="1.5" r="1.5" transform="translate(219 2573)"/></g><g transform="translate(-111 -2564)"><circle class="e" cx="1.5" cy="1.5" r="1.5" transform="translate(219 2573)"/></g><g transform="translate(-102 -2564)"><circle class="e" cx="1.5" cy="1.5" r="1.5" transform="translate(219 2573)"/></g><g transform="translate(-93 -2564)"><circle class="e" cx="1.5" cy="1.5" r="1.5" transform="translate(219 2573)"/></g><g transform="translate(-84 -2564)"><circle class="e" cx="1.5" cy="1.5" r="1.5" transform="translate(219 2573)"/></g><g transform="translate(-75 -2564)"><circle class="e" cx="1.5" cy="1.5" r="1.5" transform="translate(219 2573)"/></g><g transform="translate(-66 -2564)"><circle class="e" cx="1.5" cy="1.5" r="1.5" transform="translate(219 2573)"/></g><g transform="translate(-57 -2564)"><circle class="e" cx="1.5" cy="1.5" r="1.5" transform="translate(219 2573)"/></g><g transform="translate(-48 -2564)"><circle class="e" cx="1.5" cy="1.5" r="1.5" transform="translate(219 2573)"/></g><g transform="translate(-39 -2564)"><circle class="e" cx="1.5" cy="1.5" r="1.5" transform="translate(219 2573)"/></g><g transform="translate(-30 -2564)"><circle class="e" cx="1.5" cy="1.5" r="1.5" transform="translate(219 2573)"/></g><g transform="translate(-21 -2564)"><circle class="e" cx="1.5" cy="1.5" r="1.5" transform="translate(219 2573)"/></g><g transform="translate(-12 -2564)"><circle class="e" cx="1.5" cy="1.5" r="1.5" transform="translate(219 2573)"/></g><g transform="translate(-3 -2564)"><circle class="e" cx="1.5" cy="1.5" r="1.5" transform="translate(219 2573)"/></g><g transform="translate(6 -2564)"><circle class="e" cx="1.5" cy="1.5" r="1.5" transform="translate(219 2573)"/></g><g transform="translate(-219 -2555)"><circle class="e" cx="1.5" cy="1.5" r="1.5" transform="translate(219 2573)"/></g><g transform="translate(-210 -2555)"><circle class="e" cx="1.5" cy="1.5" r="1.5" transform="translate(219 2573)"/></g><g transform="translate(-201 -2555)"><circle class="e" cx="1.5" cy="1.5" r="1.5" transform="translate(219 2573)"/></g><g transform="translate(-192 -2555)"><circle class="e" cx="1.5" cy="1.5" r="1.5" transform="translate(219 2573)"/></g><g transform="translate(-183 -2555)"><circle class="e" cx="1.5" cy="1.5" r="1.5" transform="translate(219 2573)"/></g><g transform="translate(-174 -2555)"><circle class="e" cx="1.5" cy="1.5" r="1.5" transform="translate(219 2573)"/></g><g transform="translate(-165 -2555)"><circle class="e" cx="1.5" cy="1.5" r="1.5" transform="translate(219 2573)"/></g><g transform="translate(-156 -2555)"><circle class="e" cx="1.5" cy="1.5" r="1.5" transform="translate(219 2573)"/></g><g transform="translate(-147 -2555)"><circle class="e" cx="1.5" cy="1.5" r="1.5" transform="translate(219 2573)"/></g><g transform="translate(-138 -2555)"><circle class="e" cx="1.5" cy="1.5" r="1.5" transform="translate(219 2573)"/></g><g transform="translate(-129 -2555)"><circle class="e" cx="1.5" cy="1.5" r="1.5" transform="translate(219 2573)"/></g><g transform="translate(-120 -2555)"><circle class="e" cx="1.5" cy="1.5" r="1.5" transform="translate(219 2573)"/></g><g transform="translate(-111 -2555)"><circle class="e" cx="1.5" cy="1.5" r="1.5" transform="translate(219 2573)"/></g><g transform="translate(-102 -2555)"><circle class="e" cx="1.5" cy="1.5" r="1.5" transform="translate(219 2573)"/></g><g transform="translate(-93 -2555)"><circle class="e" cx="1.5" cy="1.5" r="1.5" transform="translate(219 2573)"/></g><g transform="translate(-84 -2555)"><circle class="e" cx="1.5" cy="1.5" r="1.5" transform="translate(219 2573)"/></g><g transform="translate(-75 -2555)"><circle class="e" cx="1.5" cy="1.5" r="1.5" transform="translate(219 2573)"/></g><g transform="translate(-66 -2555)"><circle class="e" cx="1.5" cy="1.5" r="1.5" transform="translate(219 2573)"/></g><g transform="translate(-57 -2555)"><circle class="e" cx="1.5" cy="1.5" r="1.5" transform="translate(219 2573)"/></g><g transform="translate(-48 -2555)"><circle class="e" cx="1.5" cy="1.5" r="1.5" transform="translate(219 2573)"/></g><g transform="translate(-39 -2555)"><circle class="e" cx="1.5" cy="1.5" r="1.5" transform="translate(219 2573)"/></g><g transform="translate(-30 -2555)"><circle class="e" cx="1.5" cy="1.5" r="1.5" transform="translate(219 2573)"/></g><g transform="translate(-21 -2555)"><circle class="e" cx="1.5" cy="1.5" r="1.5" transform="translate(219 2573)"/></g><g transform="translate(-12 -2555)"><circle class="e" cx="1.5" cy="1.5" r="1.5" transform="translate(219 2573)"/></g><g transform="translate(-3 -2555)"><circle class="e" cx="1.5" cy="1.5" r="1.5" transform="translate(219 2573)"/></g><g transform="translate(6 -2555)"><circle class="e" cx="1.5" cy="1.5" r="1.5" transform="translate(219 2573)"/></g><g transform="translate(-219 -2546)"><circle class="e" cx="1.5" cy="1.5" r="1.5" transform="translate(219 2573)"/></g><g transform="translate(-210 -2546)"><circle class="e" cx="1.5" cy="1.5" r="1.5" transform="translate(219 2573)"/></g><g transform="translate(-201 -2546)"><circle class="e" cx="1.5" cy="1.5" r="1.5" transform="translate(219 2573)"/></g><g transform="translate(-192 -2546)"><circle class="e" cx="1.5" cy="1.5" r="1.5" transform="translate(219 2573)"/></g><g transform="translate(-183 -2546)"><circle class="e" cx="1.5" cy="1.5" r="1.5" transform="translate(219 2573)"/></g><g transform="translate(-174 -2546)"><circle class="e" cx="1.5" cy="1.5" r="1.5" transform="translate(219 2573)"/></g><g transform="translate(-165 -2546)"><circle class="e" cx="1.5" cy="1.5" r="1.5" transform="translate(219 2573)"/></g><g transform="translate(-156 -2546)"><circle class="e" cx="1.5" cy="1.5" r="1.5" transform="translate(219 2573)"/></g><g transform="translate(-147 -2546)"><circle class="e" cx="1.5" cy="1.5" r="1.5" transform="translate(219 2573)"/></g><g transform="translate(-138 -2546)"><circle class="e" cx="1.5" cy="1.5" r="1.5" transform="translate(219 2573)"/></g><g transform="translate(-129 -2546)"><circle class="e" cx="1.5" cy="1.5" r="1.5" transform="translate(219 2573)"/></g><g transform="translate(-120 -2546)"><circle class="e" cx="1.5" cy="1.5" r="1.5" transform="translate(219 2573)"/></g><g transform="translate(-111 -2546)"><circle class="e" cx="1.5" cy="1.5" r="1.5" transform="translate(219 2573)"/></g><g transform="translate(-102 -2546)"><circle class="e" cx="1.5" cy="1.5" r="1.5" transform="translate(219 2573)"/></g><g transform="translate(-93 -2546)"><circle class="e" cx="1.5" cy="1.5" r="1.5" transform="translate(219 2573)"/></g><g transform="translate(-84 -2546)"><circle class="e" cx="1.5" cy="1.5" r="1.5" transform="translate(219 2573)"/></g><g transform="translate(-75 -2546)"><circle class="e" cx="1.5" cy="1.5" r="1.5" transform="translate(219 2573)"/></g><g transform="translate(-66 -2546)"><circle class="e" cx="1.5" cy="1.5" r="1.5" transform="translate(219 2573)"/></g><g transform="translate(-57 -2546)"><circle class="e" cx="1.5" cy="1.5" r="1.5" transform="translate(219 2573)"/></g><g transform="translate(-48 -2546)"><circle class="e" cx="1.5" cy="1.5" r="1.5" transform="translate(219 2573)"/></g><g transform="translate(-39 -2546)"><circle class="e" cx="1.5" cy="1.5" r="1.5" transform="translate(219 2573)"/></g><g transform="translate(-30 -2546)"><circle class="e" cx="1.5" cy="1.5" r="1.5" transform="translate(219 2573)"/></g><g transform="translate(-21 -2546)"><circle class="e" cx="1.5" cy="1.5" r="1.5" transform="translate(219 2573)"/></g><g transform="translate(-12 -2546)"><circle class="e" cx="1.5" cy="1.5" r="1.5" transform="translate(219 2573)"/></g><g transform="translate(-3 -2546)"><circle class="e" cx="1.5" cy="1.5" r="1.5" transform="translate(219 2573)"/></g><g transform="translate(6 -2546)"><circle class="e" cx="1.5" cy="1.5" r="1.5" transform="translate(219 2573)"/></g><g transform="translate(-219 -2537)"><circle class="e" cx="1.5" cy="1.5" r="1.5" transform="translate(219 2573)"/></g><g transform="translate(-210 -2537)"><circle class="e" cx="1.5" cy="1.5" r="1.5" transform="translate(219 2573)"/></g><g transform="translate(-201 -2537)"><circle class="e" cx="1.5" cy="1.5" r="1.5" transform="translate(219 2573)"/></g><g transform="translate(-192 -2537)"><circle class="e" cx="1.5" cy="1.5" r="1.5" transform="translate(219 2573)"/></g><g transform="translate(-183 -2537)"><circle class="e" cx="1.5" cy="1.5" r="1.5" transform="translate(219 2573)"/></g><g transform="translate(-174 -2537)"><circle class="e" cx="1.5" cy="1.5" r="1.5" transform="translate(219 2573)"/></g><g transform="translate(-165 -2537)"><circle class="e" cx="1.5" cy="1.5" r="1.5" transform="translate(219 2573)"/></g><g transform="translate(-156 -2537)"><circle class="e" cx="1.5" cy="1.5" r="1.5" transform="translate(219 2573)"/></g><g transform="translate(-147 -2537)"><circle class="e" cx="1.5" cy="1.5" r="1.5" transform="translate(219 2573)"/></g><g transform="translate(-138 -2537)"><circle class="e" cx="1.5" cy="1.5" r="1.5" transform="translate(219 2573)"/></g><g transform="translate(-129 -2537)"><circle class="e" cx="1.5" cy="1.5" r="1.5" transform="translate(219 2573)"/></g><g transform="translate(-120 -2537)"><circle class="e" cx="1.5" cy="1.5" r="1.5" transform="translate(219 2573)"/></g><g transform="translate(-111 -2537)"><circle class="e" cx="1.5" cy="1.5" r="1.5" transform="translate(219 2573)"/></g><g transform="translate(-102 -2537)"><circle class="e" cx="1.5" cy="1.5" r="1.5" transform="translate(219 2573)"/></g><g transform="translate(-93 -2537)"><circle class="e" cx="1.5" cy="1.5" r="1.5" transform="translate(219 2573)"/></g><g transform="translate(-84 -2537)"><circle class="e" cx="1.5" cy="1.5" r="1.5" transform="translate(219 2573)"/></g><g transform="translate(-75 -2537)"><circle class="e" cx="1.5" cy="1.5" r="1.5" transform="translate(219 2573)"/></g><g transform="translate(-66 -2537)"><circle class="e" cx="1.5" cy="1.5" r="1.5" transform="translate(219 2573)"/></g><g transform="translate(-57 -2537)"><circle class="e" cx="1.5" cy="1.5" r="1.5" transform="translate(219 2573)"/></g><g transform="translate(-48 -2537)"><circle class="e" cx="1.5" cy="1.5" r="1.5" transform="translate(219 2573)"/></g><g transform="translate(-39 -2537)"><circle class="e" cx="1.5" cy="1.5" r="1.5" transform="translate(219 2573)"/></g><g transform="translate(-30 -2537)"><circle class="e" cx="1.5" cy="1.5" r="1.5" transform="translate(219 2573)"/></g><g transform="translate(-21 -2537)"><circle class="e" cx="1.5" cy="1.5" r="1.5" transform="translate(219 2573)"/></g><g transform="translate(-12 -2537)"><circle class="e" cx="1.5" cy="1.5" r="1.5" transform="translate(219 2573)"/></g><g transform="translate(-3 -2537)"><circle class="e" cx="1.5" cy="1.5" r="1.5" transform="translate(219 2573)"/></g><g transform="translate(6 -2537)"><circle class="e" cx="1.5" cy="1.5" r="1.5" transform="translate(219 2573)"/></g><g transform="translate(-219 -2528)"><circle class="e" cx="1.5" cy="1.5" r="1.5" transform="translate(219 2573)"/></g><g transform="translate(-210 -2528)"><circle class="e" cx="1.5" cy="1.5" r="1.5" transform="translate(219 2573)"/></g><g transform="translate(-201 -2528)"><circle class="e" cx="1.5" cy="1.5" r="1.5" transform="translate(219 2573)"/></g><g transform="translate(-192 -2528)"><circle class="e" cx="1.5" cy="1.5" r="1.5" transform="translate(219 2573)"/></g><g transform="translate(-183 -2528)"><circle class="e" cx="1.5" cy="1.5" r="1.5" transform="translate(219 2573)"/></g><g transform="translate(-174 -2528)"><circle class="e" cx="1.5" cy="1.5" r="1.5" transform="translate(219 2573)"/></g><g transform="translate(-165 -2528)"><circle class="e" cx="1.5" cy="1.5" r="1.5" transform="translate(219 2573)"/></g><g transform="translate(-156 -2528)"><circle class="e" cx="1.5" cy="1.5" r="1.5" transform="translate(219 2573)"/></g><g transform="translate(-147 -2528)"><circle class="e" cx="1.5" cy="1.5" r="1.5" transform="translate(219 2573)"/></g><g transform="translate(-138 -2528)"><circle class="e" cx="1.5" cy="1.5" r="1.5" transform="translate(219 2573)"/></g><g transform="translate(-129 -2528)"><circle class="e" cx="1.5" cy="1.5" r="1.5" transform="translate(219 2573)"/></g><g transform="translate(-120 -2528)"><circle class="e" cx="1.5" cy="1.5" r="1.5" transform="translate(219 2573)"/></g><g transform="translate(-111 -2528)"><circle class="e" cx="1.5" cy="1.5" r="1.5" transform="translate(219 2573)"/></g><g transform="translate(-102 -2528)"><circle class="e" cx="1.5" cy="1.5" r="1.5" transform="translate(219 2573)"/></g><g transform="translate(-93 -2528)"><circle class="e" cx="1.5" cy="1.5" r="1.5" transform="translate(219 2573)"/></g><g transform="translate(-84 -2528)"><circle class="e" cx="1.5" cy="1.5" r="1.5" transform="translate(219 2573)"/></g><g transform="translate(-75 -2528)"><circle class="e" cx="1.5" cy="1.5" r="1.5" transform="translate(219 2573)"/></g><g transform="translate(-66 -2528)"><circle class="e" cx="1.5" cy="1.5" r="1.5" transform="translate(219 2573)"/></g><g transform="translate(-57 -2528)"><circle class="e" cx="1.5" cy="1.5" r="1.5" transform="translate(219 2573)"/></g><g transform="translate(-48 -2528)"><circle class="e" cx="1.5" cy="1.5" r="1.5" transform="translate(219 2573)"/></g><g transform="translate(-39 -2528)"><circle class="e" cx="1.5" cy="1.5" r="1.5" transform="translate(219 2573)"/></g><g transform="translate(-30 -2528)"><circle class="e" cx="1.5" cy="1.5" r="1.5" transform="translate(219 2573)"/></g><g transform="translate(-21 -2528)"><circle class="e" cx="1.5" cy="1.5" r="1.5" transform="translate(219 2573)"/></g><g transform="translate(-12 -2528)"><circle class="e" cx="1.5" cy="1.5" r="1.5" transform="translate(219 2573)"/></g><g transform="translate(-3 -2528)"><circle class="e" cx="1.5" cy="1.5" r="1.5" transform="translate(219 2573)"/></g><g transform="translate(6 -2528)"><circle class="e" cx="1.5" cy="1.5" r="1.5" transform="translate(219 2573)"/></g><g transform="translate(-219 -2519)"><circle class="e" cx="1.5" cy="1.5" r="1.5" transform="translate(219 2573)"/></g><g transform="translate(-210 -2519)"><circle class="e" cx="1.5" cy="1.5" r="1.5" transform="translate(219 2573)"/></g><g transform="translate(-201 -2519)"><circle class="e" cx="1.5" cy="1.5" r="1.5" transform="translate(219 2573)"/></g><g transform="translate(-192 -2519)"><circle class="e" cx="1.5" cy="1.5" r="1.5" transform="translate(219 2573)"/></g><g transform="translate(-183 -2519)"><circle class="e" cx="1.5" cy="1.5" r="1.5" transform="translate(219 2573)"/></g><g transform="translate(-174 -2519)"><circle class="e" cx="1.5" cy="1.5" r="1.5" transform="translate(219 2573)"/></g><g transform="translate(-165 -2519)"><circle class="e" cx="1.5" cy="1.5" r="1.5" transform="translate(219 2573)"/></g><g transform="translate(-156 -2519)"><circle class="e" cx="1.5" cy="1.5" r="1.5" transform="translate(219 2573)"/></g><g transform="translate(-147 -2519)"><circle class="e" cx="1.5" cy="1.5" r="1.5" transform="translate(219 2573)"/></g><g transform="translate(-138 -2519)"><circle class="e" cx="1.5" cy="1.5" r="1.5" transform="translate(219 2573)"/></g><g transform="translate(-129 -2519)"><circle class="e" cx="1.5" cy="1.5" r="1.5" transform="translate(219 2573)"/></g><g transform="translate(-120 -2519)"><circle class="e" cx="1.5" cy="1.5" r="1.5" transform="translate(219 2573)"/></g><g transform="translate(-111 -2519)"><circle class="e" cx="1.5" cy="1.5" r="1.5" transform="translate(219 2573)"/></g><g transform="translate(-102 -2519)"><circle class="e" cx="1.5" cy="1.5" r="1.5" transform="translate(219 2573)"/></g><g transform="translate(-93 -2519)"><circle class="e" cx="1.5" cy="1.5" r="1.5" transform="translate(219 2573)"/></g><g transform="translate(-84 -2519)"><circle class="e" cx="1.5" cy="1.5" r="1.5" transform="translate(219 2573)"/></g><g transform="translate(-75 -2519)"><circle class="e" cx="1.5" cy="1.5" r="1.5" transform="translate(219 2573)"/></g><g transform="translate(-66 -2519)"><circle class="e" cx="1.5" cy="1.5" r="1.5" transform="translate(219 2573)"/></g><g transform="translate(-57 -2519)"><circle class="e" cx="1.5" cy="1.5" r="1.5" transform="translate(219 2573)"/></g><g transform="translate(-48 -2519)"><circle class="e" cx="1.5" cy="1.5" r="1.5" transform="translate(219 2573)"/></g><g transform="translate(-39 -2519)"><circle class="e" cx="1.5" cy="1.5" r="1.5" transform="translate(219 2573)"/></g><g transform="translate(-30 -2519)"><circle class="e" cx="1.5" cy="1.5" r="1.5" transform="translate(219 2573)"/></g><g transform="translate(-21 -2519)"><circle class="e" cx="1.5" cy="1.5" r="1.5" transform="translate(219 2573)"/></g><g transform="translate(-12 -2519)"><circle class="e" cx="1.5" cy="1.5" r="1.5" transform="translate(219 2573)"/></g><g transform="translate(-3 -2519)"><circle class="e" cx="1.5" cy="1.5" r="1.5" transform="translate(219 2573)"/></g><g transform="translate(6 -2519)"><circle class="e" cx="1.5" cy="1.5" r="1.5" transform="translate(219 2573)"/></g><g transform="translate(-219 -2510)"><circle class="e" cx="1.5" cy="1.5" r="1.5" transform="translate(219 2573)"/></g><g transform="translate(-210 -2510)"><circle class="e" cx="1.5" cy="1.5" r="1.5" transform="translate(219 2573)"/></g><g transform="translate(-201 -2510)"><circle class="e" cx="1.5" cy="1.5" r="1.5" transform="translate(219 2573)"/></g><g transform="translate(-192 -2510)"><circle class="e" cx="1.5" cy="1.5" r="1.5" transform="translate(219 2573)"/></g><g transform="translate(-183 -2510)"><circle class="e" cx="1.5" cy="1.5" r="1.5" transform="translate(219 2573)"/></g><g transform="translate(-174 -2510)"><circle class="e" cx="1.5" cy="1.5" r="1.5" transform="translate(219 2573)"/></g><g transform="translate(-165 -2510)"><circle class="e" cx="1.5" cy="1.5" r="1.5" transform="translate(219 2573)"/></g><g transform="translate(-156 -2510)"><circle class="e" cx="1.5" cy="1.5" r="1.5" transform="translate(219 2573)"/></g><g transform="translate(-147 -2510)"><circle class="e" cx="1.5" cy="1.5" r="1.5" transform="translate(219 2573)"/></g><g transform="translate(-138 -2510)"><circle class="e" cx="1.5" cy="1.5" r="1.5" transform="translate(219 2573)"/></g><g transform="translate(-129 -2510)"><circle class="e" cx="1.5" cy="1.5" r="1.5" transform="translate(219 2573)"/></g><g transform="translate(-120 -2510)"><circle class="e" cx="1.5" cy="1.5" r="1.5" transform="translate(219 2573)"/></g><g transform="translate(-111 -2510)"><circle class="e" cx="1.5" cy="1.5" r="1.5" transform="translate(219 2573)"/></g><g transform="translate(-102 -2510)"><circle class="e" cx="1.5" cy="1.5" r="1.5" transform="translate(219 2573)"/></g><g transform="translate(-93 -2510)"><circle class="e" cx="1.5" cy="1.5" r="1.5" transform="translate(219 2573)"/></g><g transform="translate(-84 -2510)"><circle class="e" cx="1.5" cy="1.5" r="1.5" transform="translate(219 2573)"/></g><g transform="translate(-75 -2510)"><circle class="e" cx="1.5" cy="1.5" r="1.5" transform="translate(219 2573)"/></g><g transform="translate(-66 -2510)"><circle class="e" cx="1.5" cy="1.5" r="1.5" transform="translate(219 2573)"/></g><g transform="translate(-57 -2510)"><circle class="e" cx="1.5" cy="1.5" r="1.5" transform="translate(219 2573)"/></g><g transform="translate(-48 -2510)"><circle class="e" cx="1.5" cy="1.5" r="1.5" transform="translate(219 2573)"/></g><g transform="translate(-39 -2510)"><circle class="e" cx="1.5" cy="1.5" r="1.5" transform="translate(219 2573)"/></g><g transform="translate(-30 -2510)"><circle class="e" cx="1.5" cy="1.5" r="1.5" transform="translate(219 2573)"/></g><g transform="translate(-21 -2510)"><circle class="e" cx="1.5" cy="1.5" r="1.5" transform="translate(219 2573)"/></g><g transform="translate(-12 -2510)"><circle class="e" cx="1.5" cy="1.5" r="1.5" transform="translate(219 2573)"/></g><g transform="translate(-3 -2510)"><circle class="e" cx="1.5" cy="1.5" r="1.5" transform="translate(219 2573)"/></g><g transform="translate(6 -2510)"><circle class="e" cx="1.5" cy="1.5" r="1.5" transform="translate(219 2573)"/></g><g transform="translate(-219 -2501)"><circle class="e" cx="1.5" cy="1.5" r="1.5" transform="translate(219 2573)"/></g><g transform="translate(-210 -2501)"><circle class="e" cx="1.5" cy="1.5" r="1.5" transform="translate(219 2573)"/></g><g transform="translate(-201 -2501)"><circle class="e" cx="1.5" cy="1.5" r="1.5" transform="translate(219 2573)"/></g><g transform="translate(-192 -2501)"><circle class="e" cx="1.5" cy="1.5" r="1.5" transform="translate(219 2573)"/></g><g transform="translate(-183 -2501)"><circle class="e" cx="1.5" cy="1.5" r="1.5" transform="translate(219 2573)"/></g><g transform="translate(-174 -2501)"><circle class="e" cx="1.5" cy="1.5" r="1.5" transform="translate(219 2573)"/></g><g transform="translate(-165 -2501)"><circle class="e" cx="1.5" cy="1.5" r="1.5" transform="translate(219 2573)"/></g><g transform="translate(-156 -2501)"><circle class="e" cx="1.5" cy="1.5" r="1.5" transform="translate(219 2573)"/></g><g transform="translate(-147 -2501)"><circle class="e" cx="1.5" cy="1.5" r="1.5" transform="translate(219 2573)"/></g><g transform="translate(-138 -2501)"><circle class="e" cx="1.5" cy="1.5" r="1.5" transform="translate(219 2573)"/></g><g transform="translate(-129 -2501)"><circle class="e" cx="1.5" cy="1.5" r="1.5" transform="translate(219 2573)"/></g><g transform="translate(-120 -2501)"><circle class="e" cx="1.5" cy="1.5" r="1.5" transform="translate(219 2573)"/></g><g transform="translate(-111 -2501)"><circle class="e" cx="1.5" cy="1.5" r="1.5" transform="translate(219 2573)"/></g><g transform="translate(-102 -2501)"><circle class="e" cx="1.5" cy="1.5" r="1.5" transform="translate(219 2573)"/></g><g transform="translate(-93 -2501)"><circle class="e" cx="1.5" cy="1.5" r="1.5" transform="translate(219 2573)"/></g><g transform="translate(-84 -2501)"><circle class="e" cx="1.5" cy="1.5" r="1.5" transform="translate(219 2573)"/></g><g transform="translate(-75 -2501)"><circle class="e" cx="1.5" cy="1.5" r="1.5" transform="translate(219 2573)"/></g><g transform="translate(-66 -2501)"><circle class="e" cx="1.5" cy="1.5" r="1.5" transform="translate(219 2573)"/></g><g transform="translate(-57 -2501)"><circle class="e" cx="1.5" cy="1.5" r="1.5" transform="translate(219 2573)"/></g><g transform="translate(-48 -2501)"><circle class="e" cx="1.5" cy="1.5" r="1.5" transform="translate(219 2573)"/></g><g transform="translate(-39 -2501)"><circle class="e" cx="1.5" cy="1.5" r="1.5" transform="translate(219 2573)"/></g><g transform="translate(-30 -2501)"><circle class="e" cx="1.5" cy="1.5" r="1.5" transform="translate(219 2573)"/></g><g transform="translate(-21 -2501)"><circle class="e" cx="1.5" cy="1.5" r="1.5" transform="translate(219 2573)"/></g><g transform="translate(-12 -2501)"><circle class="e" cx="1.5" cy="1.5" r="1.5" transform="translate(219 2573)"/></g><g transform="translate(-3 -2501)"><circle class="e" cx="1.5" cy="1.5" r="1.5" transform="translate(219 2573)"/></g><g transform="translate(6 -2501)"><circle class="e" cx="1.5" cy="1.5" r="1.5" transform="translate(219 2573)"/></g><g transform="translate(-219 -2492)"><circle class="e" cx="1.5" cy="1.5" r="1.5" transform="translate(219 2573)"/></g><g transform="translate(-210 -2492)"><circle class="e" cx="1.5" cy="1.5" r="1.5" transform="translate(219 2573)"/></g><g transform="translate(-201 -2492)"><circle class="e" cx="1.5" cy="1.5" r="1.5" transform="translate(219 2573)"/></g><g transform="translate(-192 -2492)"><circle class="e" cx="1.5" cy="1.5" r="1.5" transform="translate(219 2573)"/></g><g transform="translate(-183 -2492)"><circle class="e" cx="1.5" cy="1.5" r="1.5" transform="translate(219 2573)"/></g><g transform="translate(-174 -2492)"><circle class="e" cx="1.5" cy="1.5" r="1.5" transform="translate(219 2573)"/></g><g transform="translate(-165 -2492)"><circle class="e" cx="1.5" cy="1.5" r="1.5" transform="translate(219 2573)"/></g><g transform="translate(-156 -2492)"><circle class="e" cx="1.5" cy="1.5" r="1.5" transform="translate(219 2573)"/></g><g transform="translate(-147 -2492)"><circle class="e" cx="1.5" cy="1.5" r="1.5" transform="translate(219 2573)"/></g><g transform="translate(-138 -2492)"><circle class="e" cx="1.5" cy="1.5" r="1.5" transform="translate(219 2573)"/></g><g transform="translate(-129 -2492)"><circle class="e" cx="1.5" cy="1.5" r="1.5" transform="translate(219 2573)"/></g><g transform="translate(-120 -2492)"><circle class="e" cx="1.5" cy="1.5" r="1.5" transform="translate(219 2573)"/></g><g transform="translate(-111 -2492)"><circle class="e" cx="1.5" cy="1.5" r="1.5" transform="translate(219 2573)"/></g><g transform="translate(-102 -2492)"><circle class="e" cx="1.5" cy="1.5" r="1.5" transform="translate(219 2573)"/></g><g transform="translate(-93 -2492)"><circle class="e" cx="1.5" cy="1.5" r="1.5" transform="translate(219 2573)"/></g><g transform="translate(-84 -2492)"><circle class="e" cx="1.5" cy="1.5" r="1.5" transform="translate(219 2573)"/></g><g transform="translate(-75 -2492)"><circle class="e" cx="1.5" cy="1.5" r="1.5" transform="translate(219 2573)"/></g><g transform="translate(-66 -2492)"><circle class="e" cx="1.5" cy="1.5" r="1.5" transform="translate(219 2573)"/></g><g transform="translate(-57 -2492)"><circle class="e" cx="1.5" cy="1.5" r="1.5" transform="translate(219 2573)"/></g><g transform="translate(-48 -2492)"><circle class="e" cx="1.5" cy="1.5" r="1.5" transform="translate(219 2573)"/></g><g transform="translate(-39 -2492)"><circle class="e" cx="1.5" cy="1.5" r="1.5" transform="translate(219 2573)"/></g><g transform="translate(-30 -2492)"><circle class="e" cx="1.5" cy="1.5" r="1.5" transform="translate(219 2573)"/></g><g transform="translate(-21 -2492)"><circle class="e" cx="1.5" cy="1.5" r="1.5" transform="translate(219 2573)"/></g><g transform="translate(-12 -2492)"><circle class="e" cx="1.5" cy="1.5" r="1.5" transform="translate(219 2573)"/></g><g transform="translate(-3 -2492)"><circle class="e" cx="1.5" cy="1.5" r="1.5" transform="translate(219 2573)"/></g><g transform="translate(6 -2492)"><circle class="e" cx="1.5" cy="1.5" r="1.5" transform="translate(219 2573)"/></g><g transform="translate(-219 -2483)"><circle class="e" cx="1.5" cy="1.5" r="1.5" transform="translate(219 2573)"/></g><g transform="translate(-210 -2483)"><circle class="e" cx="1.5" cy="1.5" r="1.5" transform="translate(219 2573)"/></g><g transform="translate(-201 -2483)"><circle class="e" cx="1.5" cy="1.5" r="1.5" transform="translate(219 2573)"/></g><g transform="translate(-192 -2483)"><circle class="e" cx="1.5" cy="1.5" r="1.5" transform="translate(219 2573)"/></g><g transform="translate(-183 -2483)"><circle class="e" cx="1.5" cy="1.5" r="1.5" transform="translate(219 2573)"/></g><g transform="translate(-174 -2483)"><circle class="e" cx="1.5" cy="1.5" r="1.5" transform="translate(219 2573)"/></g><g transform="translate(-165 -2483)"><circle class="e" cx="1.5" cy="1.5" r="1.5" transform="translate(219 2573)"/></g><g transform="translate(-156 -2483)"><circle class="e" cx="1.5" cy="1.5" r="1.5" transform="translate(219 2573)"/></g><g transform="translate(-147 -2483)"><circle class="e" cx="1.5" cy="1.5" r="1.5" transform="translate(219 2573)"/></g><g transform="translate(-138 -2483)"><circle class="e" cx="1.5" cy="1.5" r="1.5" transform="translate(219 2573)"/></g><g transform="translate(-129 -2483)"><circle class="e" cx="1.5" cy="1.5" r="1.5" transform="translate(219 2573)"/></g><g transform="translate(-120 -2483)"><circle class="e" cx="1.5" cy="1.5" r="1.5" transform="translate(219 2573)"/></g><g transform="translate(-111 -2483)"><circle class="e" cx="1.5" cy="1.5" r="1.5" transform="translate(219 2573)"/></g><g transform="translate(-102 -2483)"><circle class="e" cx="1.5" cy="1.5" r="1.5" transform="translate(219 2573)"/></g><g transform="translate(-93 -2483)"><circle class="e" cx="1.5" cy="1.5" r="1.5" transform="translate(219 2573)"/></g><g transform="translate(-84 -2483)"><circle class="e" cx="1.5" cy="1.5" r="1.5" transform="translate(219 2573)"/></g><g transform="translate(-75 -2483)"><circle class="e" cx="1.5" cy="1.5" r="1.5" transform="translate(219 2573)"/></g><g transform="translate(-66 -2483)"><circle class="e" cx="1.5" cy="1.5" r="1.5" transform="translate(219 2573)"/></g><g transform="translate(-57 -2483)"><circle class="e" cx="1.5" cy="1.5" r="1.5" transform="translate(219 2573)"/></g><g transform="translate(-48 -2483)"><circle class="e" cx="1.5" cy="1.5" r="1.5" transform="translate(219 2573)"/></g><g transform="translate(-39 -2483)"><circle class="e" cx="1.5" cy="1.5" r="1.5" transform="translate(219 2573)"/></g><g transform="translate(-30 -2483)"><circle class="e" cx="1.5" cy="1.5" r="1.5" transform="translate(219 2573)"/></g><g transform="translate(-21 -2483)"><circle class="e" cx="1.5" cy="1.5" r="1.5" transform="translate(219 2573)"/></g><g transform="translate(-12 -2483)"><circle class="e" cx="1.5" cy="1.5" r="1.5" transform="translate(219 2573)"/></g><g transform="translate(-3 -2483)"><circle class="e" cx="1.5" cy="1.5" r="1.5" transform="translate(219 2573)"/></g><g transform="translate(6 -2483)"><circle class="e" cx="1.5" cy="1.5" r="1.5" transform="translate(219 2573)"/></g><g transform="translate(-219 -2474)"><circle class="e" cx="1.5" cy="1.5" r="1.5" transform="translate(219 2573)"/></g><g transform="translate(-210 -2474)"><circle class="e" cx="1.5" cy="1.5" r="1.5" transform="translate(219 2573)"/></g><g transform="translate(-201 -2474)"><circle class="e" cx="1.5" cy="1.5" r="1.5" transform="translate(219 2573)"/></g><g transform="translate(-192 -2474)"><circle class="e" cx="1.5" cy="1.5" r="1.5" transform="translate(219 2573)"/></g><g transform="translate(-183 -2474)"><circle class="e" cx="1.5" cy="1.5" r="1.5" transform="translate(219 2573)"/></g><g transform="translate(-174 -2474)"><circle class="e" cx="1.5" cy="1.5" r="1.5" transform="translate(219 2573)"/></g><g transform="translate(-165 -2474)"><circle class="e" cx="1.5" cy="1.5" r="1.5" transform="translate(219 2573)"/></g><g transform="translate(-156 -2474)"><circle class="e" cx="1.5" cy="1.5" r="1.5" transform="translate(219 2573)"/></g><g transform="translate(-147 -2474)"><circle class="e" cx="1.5" cy="1.5" r="1.5" transform="translate(219 2573)"/></g><g transform="translate(-138 -2474)"><circle class="e" cx="1.5" cy="1.5" r="1.5" transform="translate(219 2573)"/></g><g transform="translate(-129 -2474)"><circle class="e" cx="1.5" cy="1.5" r="1.5" transform="translate(219 2573)"/></g><g transform="translate(-120 -2474)"><circle class="e" cx="1.5" cy="1.5" r="1.5" transform="translate(219 2573)"/></g><g transform="translate(-111 -2474)"><circle class="e" cx="1.5" cy="1.5" r="1.5" transform="translate(219 2573)"/></g><g transform="translate(-102 -2474)"><circle class="e" cx="1.5" cy="1.5" r="1.5" transform="translate(219 2573)"/></g><g transform="translate(-93 -2474)"><circle class="e" cx="1.5" cy="1.5" r="1.5" transform="translate(219 2573)"/></g><g transform="translate(-84 -2474)"><circle class="e" cx="1.5" cy="1.5" r="1.5" transform="translate(219 2573)"/></g><g transform="translate(-75 -2474)"><circle class="e" cx="1.5" cy="1.5" r="1.5" transform="translate(219 2573)"/></g><g transform="translate(-66 -2474)"><circle class="e" cx="1.5" cy="1.5" r="1.5" transform="translate(219 2573)"/></g><g transform="translate(-57 -2474)"><circle class="e" cx="1.5" cy="1.5" r="1.5" transform="translate(219 2573)"/></g><g transform="translate(-48 -2474)"><circle class="e" cx="1.5" cy="1.5" r="1.5" transform="translate(219 2573)"/></g><g transform="translate(-39 -2474)"><circle class="e" cx="1.5" cy="1.5" r="1.5" transform="translate(219 2573)"/></g><g transform="translate(-30 -2474)"><circle class="e" cx="1.5" cy="1.5" r="1.5" transform="translate(219 2573)"/></g><g transform="translate(-21 -2474)"><circle class="e" cx="1.5" cy="1.5" r="1.5" transform="translate(219 2573)"/></g><g transform="translate(-12 -2474)"><circle class="e" cx="1.5" cy="1.5" r="1.5" transform="translate(219 2573)"/></g><g transform="translate(-3 -2474)"><circle class="e" cx="1.5" cy="1.5" r="1.5" transform="translate(219 2573)"/></g><g transform="translate(6 -2474)"><circle class="e" cx="1.5" cy="1.5" r="1.5" transform="translate(219 2573)"/></g><g transform="translate(-219 -2465)"><circle class="e" cx="1.5" cy="1.5" r="1.5" transform="translate(219 2573)"/></g><g transform="translate(-210 -2465)"><circle class="e" cx="1.5" cy="1.5" r="1.5" transform="translate(219 2573)"/></g><g transform="translate(-201 -2465)"><circle class="e" cx="1.5" cy="1.5" r="1.5" transform="translate(219 2573)"/></g><g transform="translate(-192 -2465)"><circle class="e" cx="1.5" cy="1.5" r="1.5" transform="translate(219 2573)"/></g><g transform="translate(-183 -2465)"><circle class="e" cx="1.5" cy="1.5" r="1.5" transform="translate(219 2573)"/></g><g transform="translate(-174 -2465)"><circle class="e" cx="1.5" cy="1.5" r="1.5" transform="translate(219 2573)"/></g><g transform="translate(-165 -2465)"><circle class="e" cx="1.5" cy="1.5" r="1.5" transform="translate(219 2573)"/></g><g transform="translate(-156 -2465)"><circle class="e" cx="1.5" cy="1.5" r="1.5" transform="translate(219 2573)"/></g><g transform="translate(-147 -2465)"><circle class="e" cx="1.5" cy="1.5" r="1.5" transform="translate(219 2573)"/></g><g transform="translate(-138 -2465)"><circle class="e" cx="1.5" cy="1.5" r="1.5" transform="translate(219 2573)"/></g><g transform="translate(-129 -2465)"><circle class="e" cx="1.5" cy="1.5" r="1.5" transform="translate(219 2573)"/></g><g transform="translate(-120 -2465)"><circle class="e" cx="1.5" cy="1.5" r="1.5" transform="translate(219 2573)"/></g><g transform="translate(-111 -2465)"><circle class="e" cx="1.5" cy="1.5" r="1.5" transform="translate(219 2573)"/></g><g transform="translate(-102 -2465)"><circle class="e" cx="1.5" cy="1.5" r="1.5" transform="translate(219 2573)"/></g><g transform="translate(-93 -2465)"><circle class="e" cx="1.5" cy="1.5" r="1.5" transform="translate(219 2573)"/></g><g transform="translate(-84 -2465)"><circle class="e" cx="1.5" cy="1.5" r="1.5" transform="translate(219 2573)"/></g><g transform="translate(-75 -2465)"><circle class="e" cx="1.5" cy="1.5" r="1.5" transform="translate(219 2573)"/></g><g transform="translate(-66 -2465)"><circle class="e" cx="1.5" cy="1.5" r="1.5" transform="translate(219 2573)"/></g><g transform="translate(-57 -2465)"><circle class="e" cx="1.5" cy="1.5" r="1.5" transform="translate(219 2573)"/></g><g transform="translate(-48 -2465)"><circle class="e" cx="1.5" cy="1.5" r="1.5" transform="translate(219 2573)"/></g><g transform="translate(-39 -2465)"><circle class="e" cx="1.5" cy="1.5" r="1.5" transform="translate(219 2573)"/></g><g transform="translate(-30 -2465)"><circle class="e" cx="1.5" cy="1.5" r="1.5" transform="translate(219 2573)"/></g><g transform="translate(-21 -2465)"><circle class="e" cx="1.5" cy="1.5" r="1.5" transform="translate(219 2573)"/></g><g transform="translate(-12 -2465)"><circle class="e" cx="1.5" cy="1.5" r="1.5" transform="translate(219 2573)"/></g><g transform="translate(-3 -2465)"><circle class="e" cx="1.5" cy="1.5" r="1.5" transform="translate(219 2573)"/></g><g transform="translate(6 -2465)"><circle class="e" cx="1.5" cy="1.5" r="1.5" transform="translate(219 2573)"/></g><g transform="translate(-219 -2456)"><circle class="e" cx="1.5" cy="1.5" r="1.5" transform="translate(219 2573)"/></g><g transform="translate(-210 -2456)"><circle class="e" cx="1.5" cy="1.5" r="1.5" transform="translate(219 2573)"/></g><g transform="translate(-201 -2456)"><circle class="e" cx="1.5" cy="1.5" r="1.5" transform="translate(219 2573)"/></g><g transform="translate(-192 -2456)"><circle class="e" cx="1.5" cy="1.5" r="1.5" transform="translate(219 2573)"/></g><g transform="translate(-183 -2456)"><circle class="e" cx="1.5" cy="1.5" r="1.5" transform="translate(219 2573)"/></g><g transform="translate(-174 -2456)"><circle class="e" cx="1.5" cy="1.5" r="1.5" transform="translate(219 2573)"/></g><g transform="translate(-165 -2456)"><circle class="e" cx="1.5" cy="1.5" r="1.5" transform="translate(219 2573)"/></g><g transform="translate(-156 -2456)"><circle class="e" cx="1.5" cy="1.5" r="1.5" transform="translate(219 2573)"/></g><g transform="translate(-147 -2456)"><circle class="e" cx="1.5" cy="1.5" r="1.5" transform="translate(219 2573)"/></g><g transform="translate(-138 -2456)"><circle class="e" cx="1.5" cy="1.5" r="1.5" transform="translate(219 2573)"/></g><g transform="translate(-129 -2456)"><circle class="e" cx="1.5" cy="1.5" r="1.5" transform="translate(219 2573)"/></g><g transform="translate(-120 -2456)"><circle class="e" cx="1.5" cy="1.5" r="1.5" transform="translate(219 2573)"/></g><g transform="translate(-111 -2456)"><circle class="e" cx="1.5" cy="1.5" r="1.5" transform="translate(219 2573)"/></g><g transform="translate(-102 -2456)"><circle class="e" cx="1.5" cy="1.5" r="1.5" transform="translate(219 2573)"/></g><g transform="translate(-93 -2456)"><circle class="e" cx="1.5" cy="1.5" r="1.5" transform="translate(219 2573)"/></g><g transform="translate(-84 -2456)"><circle class="e" cx="1.5" cy="1.5" r="1.5" transform="translate(219 2573)"/></g><g transform="translate(-75 -2456)"><circle class="e" cx="1.5" cy="1.5" r="1.5" transform="translate(219 2573)"/></g><g transform="translate(-66 -2456)"><circle class="e" cx="1.5" cy="1.5" r="1.5" transform="translate(219 2573)"/></g><g transform="translate(-57 -2456)"><circle class="e" cx="1.5" cy="1.5" r="1.5" transform="translate(219 2573)"/></g><g transform="translate(-48 -2456)"><circle class="e" cx="1.5" cy="1.5" r="1.5" transform="translate(219 2573)"/></g><g transform="translate(-39 -2456)"><circle class="e" cx="1.5" cy="1.5" r="1.5" transform="translate(219 2573)"/></g><g transform="translate(-30 -2456)"><circle class="e" cx="1.5" cy="1.5" r="1.5" transform="translate(219 2573)"/></g><g transform="translate(-21 -2456)"><circle class="e" cx="1.5" cy="1.5" r="1.5" transform="translate(219 2573)"/></g><g transform="translate(-12 -2456)"><circle class="e" cx="1.5" cy="1.5" r="1.5" transform="translate(219 2573)"/></g><g transform="translate(-3 -2456)"><circle class="e" cx="1.5" cy="1.5" r="1.5" transform="translate(219 2573)"/></g><g transform="translate(6 -2456)"><circle class="e" cx="1.5" cy="1.5" r="1.5" transform="translate(219 2573)"/></g><g transform="translate(-219 -2447)"><circle class="e" cx="1.5" cy="1.5" r="1.5" transform="translate(219 2573)"/></g><g transform="translate(-210 -2447)"><circle class="e" cx="1.5" cy="1.5" r="1.5" transform="translate(219 2573)"/></g><g transform="translate(-201 -2447)"><circle class="e" cx="1.5" cy="1.5" r="1.5" transform="translate(219 2573)"/></g><g transform="translate(-192 -2447)"><circle class="e" cx="1.5" cy="1.5" r="1.5" transform="translate(219 2573)"/></g><g transform="translate(-183 -2447)"><circle class="e" cx="1.5" cy="1.5" r="1.5" transform="translate(219 2573)"/></g><g transform="translate(-174 -2447)"><circle class="e" cx="1.5" cy="1.5" r="1.5" transform="translate(219 2573)"/></g><g transform="translate(-165 -2447)"><circle class="e" cx="1.5" cy="1.5" r="1.5" transform="translate(219 2573)"/></g><g transform="translate(-156 -2447)"><circle class="e" cx="1.5" cy="1.5" r="1.5" transform="translate(219 2573)"/></g><g transform="translate(-147 -2447)"><circle class="e" cx="1.5" cy="1.5" r="1.5" transform="translate(219 2573)"/></g><g transform="translate(-138 -2447)"><circle class="e" cx="1.5" cy="1.5" r="1.5" transform="translate(219 2573)"/></g><g transform="translate(-129 -2447)"><circle class="e" cx="1.5" cy="1.5" r="1.5" transform="translate(219 2573)"/></g><g transform="translate(-120 -2447)"><circle class="e" cx="1.5" cy="1.5" r="1.5" transform="translate(219 2573)"/></g><g transform="translate(-111 -2447)"><circle class="e" cx="1.5" cy="1.5" r="1.5" transform="translate(219 2573)"/></g><g transform="translate(-102 -2447)"><circle class="e" cx="1.5" cy="1.5" r="1.5" transform="translate(219 2573)"/></g><g transform="translate(-93 -2447)"><circle class="e" cx="1.5" cy="1.5" r="1.5" transform="translate(219 2573)"/></g><g transform="translate(-84 -2447)"><circle class="e" cx="1.5" cy="1.5" r="1.5" transform="translate(219 2573)"/></g><g transform="translate(-75 -2447)"><circle class="e" cx="1.5" cy="1.5" r="1.5" transform="translate(219 2573)"/></g><g transform="translate(-66 -2447)"><circle class="e" cx="1.5" cy="1.5" r="1.5" transform="translate(219 2573)"/></g><g transform="translate(-57 -2447)"><circle class="e" cx="1.5" cy="1.5" r="1.5" transform="translate(219 2573)"/></g><g transform="translate(-48 -2447)"><circle class="e" cx="1.5" cy="1.5" r="1.5" transform="translate(219 2573)"/></g><g transform="translate(-39 -2447)"><circle class="e" cx="1.5" cy="1.5" r="1.5" transform="translate(219 2573)"/></g><g transform="translate(-30 -2447)"><circle class="e" cx="1.5" cy="1.5" r="1.5" transform="translate(219 2573)"/></g><g transform="translate(-21 -2447)"><circle class="e" cx="1.5" cy="1.5" r="1.5" transform="translate(219 2573)"/></g><g transform="translate(-12 -2447)"><circle class="e" cx="1.5" cy="1.5" r="1.5" transform="translate(219 2573)"/></g><g transform="translate(-3 -2447)"><circle class="e" cx="1.5" cy="1.5" r="1.5" transform="translate(219 2573)"/></g><g transform="translate(6 -2447)"><circle class="e" cx="1.5" cy="1.5" r="1.5" transform="translate(219 2573)"/></g><g transform="translate(-219 -2438)"><circle class="e" cx="1.5" cy="1.5" r="1.5" transform="translate(219 2573)"/></g><g transform="translate(-210 -2438)"><circle class="e" cx="1.5" cy="1.5" r="1.5" transform="translate(219 2573)"/></g><g transform="translate(-201 -2438)"><circle class="e" cx="1.5" cy="1.5" r="1.5" transform="translate(219 2573)"/></g><g transform="translate(-192 -2438)"><circle class="e" cx="1.5" cy="1.5" r="1.5" transform="translate(219 2573)"/></g><g transform="translate(-183 -2438)"><circle class="e" cx="1.5" cy="1.5" r="1.5" transform="translate(219 2573)"/></g><g transform="translate(-174 -2438)"><circle class="e" cx="1.5" cy="1.5" r="1.5" transform="translate(219 2573)"/></g><g transform="translate(-165 -2438)"><circle class="e" cx="1.5" cy="1.5" r="1.5" transform="translate(219 2573)"/></g><g transform="translate(-156 -2438)"><circle class="e" cx="1.5" cy="1.5" r="1.5" transform="translate(219 2573)"/></g><g transform="translate(-147 -2438)"><circle class="e" cx="1.5" cy="1.5" r="1.5" transform="translate(219 2573)"/></g><g transform="translate(-138 -2438)"><circle class="e" cx="1.5" cy="1.5" r="1.5" transform="translate(219 2573)"/></g><g transform="translate(-129 -2438)"><circle class="e" cx="1.5" cy="1.5" r="1.5" transform="translate(219 2573)"/></g><g transform="translate(-120 -2438)"><circle class="e" cx="1.5" cy="1.5" r="1.5" transform="translate(219 2573)"/></g><g transform="translate(-111 -2438)"><circle class="e" cx="1.5" cy="1.5" r="1.5" transform="translate(219 2573)"/></g><g transform="translate(-102 -2438)"><circle class="e" cx="1.5" cy="1.5" r="1.5" transform="translate(219 2573)"/></g><g transform="translate(-93 -2438)"><circle class="e" cx="1.5" cy="1.5" r="1.5" transform="translate(219 2573)"/></g><g transform="translate(-84 -2438)"><circle class="e" cx="1.5" cy="1.5" r="1.5" transform="translate(219 2573)"/></g><g transform="translate(-75 -2438)"><circle class="e" cx="1.5" cy="1.5" r="1.5" transform="translate(219 2573)"/></g><g transform="translate(-66 -2438)"><circle class="e" cx="1.5" cy="1.5" r="1.5" transform="translate(219 2573)"/></g><g transform="translate(-57 -2438)"><circle class="e" cx="1.5" cy="1.5" r="1.5" transform="translate(219 2573)"/></g><g transform="translate(-48 -2438)"><circle class="e" cx="1.5" cy="1.5" r="1.5" transform="translate(219 2573)"/></g><g transform="translate(-39 -2438)"><circle class="e" cx="1.5" cy="1.5" r="1.5" transform="translate(219 2573)"/></g><g transform="translate(-30 -2438)"><circle class="e" cx="1.5" cy="1.5" r="1.5" transform="translate(219 2573)"/></g><g transform="translate(-21 -2438)"><circle class="e" cx="1.5" cy="1.5" r="1.5" transform="translate(219 2573)"/></g><g transform="translate(-12 -2438)"><circle class="e" cx="1.5" cy="1.5" r="1.5" transform="translate(219 2573)"/></g><g transform="translate(-3 -2438)"><circle class="e" cx="1.5" cy="1.5" r="1.5" transform="translate(219 2573)"/></g><g transform="translate(6 -2438)"><circle class="e" cx="1.5" cy="1.5" r="1.5" transform="translate(219 2573)"/></g><g transform="translate(-219 -2429)"><circle class="e" cx="1.5" cy="1.5" r="1.5" transform="translate(219 2573)"/></g><g transform="translate(-210 -2429)"><circle class="e" cx="1.5" cy="1.5" r="1.5" transform="translate(219 2573)"/></g><g transform="translate(-201 -2429)"><circle class="e" cx="1.5" cy="1.5" r="1.5" transform="translate(219 2573)"/></g><g transform="translate(-192 -2429)"><circle class="e" cx="1.5" cy="1.5" r="1.5" transform="translate(219 2573)"/></g><g transform="translate(-183 -2429)"><circle class="e" cx="1.5" cy="1.5" r="1.5" transform="translate(219 2573)"/></g><g transform="translate(-174 -2429)"><circle class="e" cx="1.5" cy="1.5" r="1.5" transform="translate(219 2573)"/></g><g transform="translate(-165 -2429)"><circle class="e" cx="1.5" cy="1.5" r="1.5" transform="translate(219 2573)"/></g><g transform="translate(-156 -2429)"><circle class="e" cx="1.5" cy="1.5" r="1.5" transform="translate(219 2573)"/></g><g transform="translate(-147 -2429)"><circle class="e" cx="1.5" cy="1.5" r="1.5" transform="translate(219 2573)"/></g><g transform="translate(-138 -2429)"><circle class="e" cx="1.5" cy="1.5" r="1.5" transform="translate(219 2573)"/></g><g transform="translate(-129 -2429)"><circle class="e" cx="1.5" cy="1.5" r="1.5" transform="translate(219 2573)"/></g><g transform="translate(-120 -2429)"><circle class="e" cx="1.5" cy="1.5" r="1.5" transform="translate(219 2573)"/></g><g transform="translate(-111 -2429)"><circle class="e" cx="1.5" cy="1.5" r="1.5" transform="translate(219 2573)"/></g><g transform="translate(-102 -2429)"><circle class="e" cx="1.5" cy="1.5" r="1.5" transform="translate(219 2573)"/></g><g transform="translate(-93 -2429)"><circle class="e" cx="1.5" cy="1.5" r="1.5" transform="translate(219 2573)"/></g><g transform="translate(-84 -2429)"><circle class="e" cx="1.5" cy="1.5" r="1.5" transform="translate(219 2573)"/></g><g transform="translate(-75 -2429)"><circle class="e" cx="1.5" cy="1.5" r="1.5" transform="translate(219 2573)"/></g><g transform="translate(-66 -2429)"><circle class="e" cx="1.5" cy="1.5" r="1.5" transform="translate(219 2573)"/></g><g transform="translate(-57 -2429)"><circle class="e" cx="1.5" cy="1.5" r="1.5" transform="translate(219 2573)"/></g><g transform="translate(-48 -2429)"><circle class="e" cx="1.5" cy="1.5" r="1.5" transform="translate(219 2573)"/></g><g transform="translate(-39 -2429)"><circle class="e" cx="1.5" cy="1.5" r="1.5" transform="translate(219 2573)"/></g><g transform="translate(-30 -2429)"><circle class="e" cx="1.5" cy="1.5" r="1.5" transform="translate(219 2573)"/></g><g transform="translate(-21 -2429)"><circle class="e" cx="1.5" cy="1.5" r="1.5" transform="translate(219 2573)"/></g><g transform="translate(-12 -2429)"><circle class="e" cx="1.5" cy="1.5" r="1.5" transform="translate(219 2573)"/></g><g transform="translate(-3 -2429)"><circle class="e" cx="1.5" cy="1.5" r="1.5" transform="translate(219 2573)"/></g><g transform="translate(6 -2429)"><circle class="e" cx="1.5" cy="1.5" r="1.5" transform="translate(219 2573)"/></g><g transform="translate(-219 -2420)"><circle class="e" cx="1.5" cy="1.5" r="1.5" transform="translate(219 2573)"/></g><g transform="translate(-210 -2420)"><circle class="e" cx="1.5" cy="1.5" r="1.5" transform="translate(219 2573)"/></g><g transform="translate(-201 -2420)"><circle class="e" cx="1.5" cy="1.5" r="1.5" transform="translate(219 2573)"/></g><g transform="translate(-192 -2420)"><circle class="e" cx="1.5" cy="1.5" r="1.5" transform="translate(219 2573)"/></g><g transform="translate(-183 -2420)"><circle class="e" cx="1.5" cy="1.5" r="1.5" transform="translate(219 2573)"/></g><g transform="translate(-174 -2420)"><circle class="e" cx="1.5" cy="1.5" r="1.5" transform="translate(219 2573)"/></g><g transform="translate(-165 -2420)"><circle class="e" cx="1.5" cy="1.5" r="1.5" transform="translate(219 2573)"/></g><g transform="translate(-156 -2420)"><circle class="e" cx="1.5" cy="1.5" r="1.5" transform="translate(219 2573)"/></g><g transform="translate(-147 -2420)"><circle class="e" cx="1.5" cy="1.5" r="1.5" transform="translate(219 2573)"/></g><g transform="translate(-138 -2420)"><circle class="e" cx="1.5" cy="1.5" r="1.5" transform="translate(219 2573)"/></g><g transform="translate(-129 -2420)"><circle class="e" cx="1.5" cy="1.5" r="1.5" transform="translate(219 2573)"/></g><g transform="translate(-120 -2420)"><circle class="e" cx="1.5" cy="1.5" r="1.5" transform="translate(219 2573)"/></g><g transform="translate(-111 -2420)"><circle class="e" cx="1.5" cy="1.5" r="1.5" transform="translate(219 2573)"/></g><g transform="translate(-102 -2420)"><circle class="e" cx="1.5" cy="1.5" r="1.5" transform="translate(219 2573)"/></g><g transform="translate(-93 -2420)"><circle class="e" cx="1.5" cy="1.5" r="1.5" transform="translate(219 2573)"/></g><g transform="translate(-84 -2420)"><circle class="e" cx="1.5" cy="1.5" r="1.5" transform="translate(219 2573)"/></g><g transform="translate(-75 -2420)"><circle class="e" cx="1.5" cy="1.5" r="1.5" transform="translate(219 2573)"/></g><g transform="translate(-66 -2420)"><circle class="e" cx="1.5" cy="1.5" r="1.5" transform="translate(219 2573)"/></g><g transform="translate(-57 -2420)"><circle class="e" cx="1.5" cy="1.5" r="1.5" transform="translate(219 2573)"/></g><g transform="translate(-48 -2420)"><circle class="e" cx="1.5" cy="1.5" r="1.5" transform="translate(219 2573)"/></g><g transform="translate(-39 -2420)"><circle class="e" cx="1.5" cy="1.5" r="1.5" transform="translate(219 2573)"/></g><g transform="translate(-30 -2420)"><circle class="e" cx="1.5" cy="1.5" r="1.5" transform="translate(219 2573)"/></g><g transform="translate(-21 -2420)"><circle class="e" cx="1.5" cy="1.5" r="1.5" transform="translate(219 2573)"/></g><g transform="translate(-12 -2420)"><circle class="e" cx="1.5" cy="1.5" r="1.5" transform="translate(219 2573)"/></g><g transform="translate(-3 -2420)"><circle class="e" cx="1.5" cy="1.5" r="1.5" transform="translate(219 2573)"/></g><g transform="translate(6 -2420)"><circle class="e" cx="1.5" cy="1.5" r="1.5" transform="translate(219 2573)"/></g><g transform="translate(-219 -2411)"><circle class="e" cx="1.5" cy="1.5" r="1.5" transform="translate(219 2573)"/></g><g transform="translate(-210 -2411)"><circle class="e" cx="1.5" cy="1.5" r="1.5" transform="translate(219 2573)"/></g><g transform="translate(-201 -2411)"><circle class="e" cx="1.5" cy="1.5" r="1.5" transform="translate(219 2573)"/></g><g transform="translate(-192 -2411)"><circle class="e" cx="1.5" cy="1.5" r="1.5" transform="translate(219 2573)"/></g><g transform="translate(-183 -2411)"><circle class="e" cx="1.5" cy="1.5" r="1.5" transform="translate(219 2573)"/></g><g transform="translate(-174 -2411)"><circle class="e" cx="1.5" cy="1.5" r="1.5" transform="translate(219 2573)"/></g><g transform="translate(-165 -2411)"><circle class="e" cx="1.5" cy="1.5" r="1.5" transform="translate(219 2573)"/></g><g transform="translate(-156 -2411)"><circle class="e" cx="1.5" cy="1.5" r="1.5" transform="translate(219 2573)"/></g><g transform="translate(-147 -2411)"><circle class="e" cx="1.5" cy="1.5" r="1.5" transform="translate(219 2573)"/></g><g transform="translate(-138 -2411)"><circle class="e" cx="1.5" cy="1.5" r="1.5" transform="translate(219 2573)"/></g><g transform="translate(-129 -2411)"><circle class="e" cx="1.5" cy="1.5" r="1.5" transform="translate(219 2573)"/></g><g transform="translate(-120 -2411)"><circle class="e" cx="1.5" cy="1.5" r="1.5" transform="translate(219 2573)"/></g><g transform="translate(-111 -2411)"><circle class="e" cx="1.5" cy="1.5" r="1.5" transform="translate(219 2573)"/></g><g transform="translate(-102 -2411)"><circle class="e" cx="1.5" cy="1.5" r="1.5" transform="translate(219 2573)"/></g><g transform="translate(-93 -2411)"><circle class="e" cx="1.5" cy="1.5" r="1.5" transform="translate(219 2573)"/></g><g transform="translate(-84 -2411)"><circle class="e" cx="1.5" cy="1.5" r="1.5" transform="translate(219 2573)"/></g><g transform="translate(-75 -2411)"><circle class="e" cx="1.5" cy="1.5" r="1.5" transform="translate(219 2573)"/></g><g transform="translate(-66 -2411)"><circle class="e" cx="1.5" cy="1.5" r="1.5" transform="translate(219 2573)"/></g><g transform="translate(-57 -2411)"><circle class="e" cx="1.5" cy="1.5" r="1.5" transform="translate(219 2573)"/></g><g transform="translate(-48 -2411)"><circle class="e" cx="1.5" cy="1.5" r="1.5" transform="translate(219 2573)"/></g><g transform="translate(-39 -2411)"><circle class="e" cx="1.5" cy="1.5" r="1.5" transform="translate(219 2573)"/></g><g transform="translate(-30 -2411)"><circle class="e" cx="1.5" cy="1.5" r="1.5" transform="translate(219 2573)"/></g><g transform="translate(-21 -2411)"><circle class="e" cx="1.5" cy="1.5" r="1.5" transform="translate(219 2573)"/></g><g transform="translate(-12 -2411)"><circle class="e" cx="1.5" cy="1.5" r="1.5" transform="translate(219 2573)"/></g><g transform="translate(-3 -2411)"><circle class="e" cx="1.5" cy="1.5" r="1.5" transform="translate(219 2573)"/></g><g transform="translate(6 -2411)"><circle class="e" cx="1.5" cy="1.5" r="1.5" transform="translate(219 2573)"/></g><g transform="translate(-219 -2402)"><circle class="e" cx="1.5" cy="1.5" r="1.5" transform="translate(219 2573)"/></g><g transform="translate(-210 -2402)"><circle class="e" cx="1.5" cy="1.5" r="1.5" transform="translate(219 2573)"/></g><g transform="translate(-201 -2402)"><circle class="e" cx="1.5" cy="1.5" r="1.5" transform="translate(219 2573)"/></g><g transform="translate(-192 -2402)"><circle class="e" cx="1.5" cy="1.5" r="1.5" transform="translate(219 2573)"/></g><g transform="translate(-183 -2402)"><circle class="e" cx="1.5" cy="1.5" r="1.5" transform="translate(219 2573)"/></g><g transform="translate(-174 -2402)"><circle class="e" cx="1.5" cy="1.5" r="1.5" transform="translate(219 2573)"/></g><g transform="translate(-165 -2402)"><circle class="e" cx="1.5" cy="1.5" r="1.5" transform="translate(219 2573)"/></g><g transform="translate(-156 -2402)"><circle class="e" cx="1.5" cy="1.5" r="1.5" transform="translate(219 2573)"/></g><g transform="translate(-147 -2402)"><circle class="e" cx="1.5" cy="1.5" r="1.5" transform="translate(219 2573)"/></g><g transform="translate(-138 -2402)"><circle class="e" cx="1.5" cy="1.5" r="1.5" transform="translate(219 2573)"/></g><g transform="translate(-129 -2402)"><circle class="e" cx="1.5" cy="1.5" r="1.5" transform="translate(219 2573)"/></g><g transform="translate(-120 -2402)"><circle class="e" cx="1.5" cy="1.5" r="1.5" transform="translate(219 2573)"/></g><g transform="translate(-111 -2402)"><circle class="e" cx="1.5" cy="1.5" r="1.5" transform="translate(219 2573)"/></g><g transform="translate(-102 -2402)"><circle class="e" cx="1.5" cy="1.5" r="1.5" transform="translate(219 2573)"/></g><g transform="translate(-93 -2402)"><circle class="e" cx="1.5" cy="1.5" r="1.5" transform="translate(219 2573)"/></g><g transform="translate(-84 -2402)"><circle class="e" cx="1.5" cy="1.5" r="1.5" transform="translate(219 2573)"/></g><g transform="translate(-75 -2402)"><circle class="e" cx="1.5" cy="1.5" r="1.5" transform="translate(219 2573)"/></g><g transform="translate(-66 -2402)"><circle class="e" cx="1.5" cy="1.5" r="1.5" transform="translate(219 2573)"/></g><g transform="translate(-57 -2402)"><circle class="e" cx="1.5" cy="1.5" r="1.5" transform="translate(219 2573)"/></g><g transform="translate(-48 -2402)"><circle class="e" cx="1.5" cy="1.5" r="1.5" transform="translate(219 2573)"/></g><g transform="translate(-39 -2402)"><circle class="e" cx="1.5" cy="1.5" r="1.5" transform="translate(219 2573)"/></g><g transform="translate(-30 -2402)"><circle class="e" cx="1.5" cy="1.5" r="1.5" transform="translate(219 2573)"/></g><g transform="translate(-21 -2402)"><circle class="e" cx="1.5" cy="1.5" r="1.5" transform="translate(219 2573)"/></g><g transform="translate(-12 -2402)"><circle class="e" cx="1.5" cy="1.5" r="1.5" transform="translate(219 2573)"/></g><g transform="translate(-3 -2402)"><circle class="e" cx="1.5" cy="1.5" r="1.5" transform="translate(219 2573)"/></g><g transform="translate(6 -2402)"><circle class="e" cx="1.5" cy="1.5" r="1.5" transform="translate(219 2573)"/></g><g transform="translate(-219 -2393)"><circle class="e" cx="1.5" cy="1.5" r="1.5" transform="translate(219 2573)"/></g><g transform="translate(-210 -2393)"><circle class="e" cx="1.5" cy="1.5" r="1.5" transform="translate(219 2573)"/></g><g transform="translate(-201 -2393)"><circle class="e" cx="1.5" cy="1.5" r="1.5" transform="translate(219 2573)"/></g><g transform="translate(-192 -2393)"><circle class="e" cx="1.5" cy="1.5" r="1.5" transform="translate(219 2573)"/></g><g transform="translate(-183 -2393)"><circle class="e" cx="1.5" cy="1.5" r="1.5" transform="translate(219 2573)"/></g><g transform="translate(-174 -2393)"><circle class="e" cx="1.5" cy="1.5" r="1.5" transform="translate(219 2573)"/></g><g transform="translate(-165 -2393)"><circle class="e" cx="1.5" cy="1.5" r="1.5" transform="translate(219 2573)"/></g><g transform="translate(-156 -2393)"><circle class="e" cx="1.5" cy="1.5" r="1.5" transform="translate(219 2573)"/></g><g transform="translate(-147 -2393)"><circle class="e" cx="1.5" cy="1.5" r="1.5" transform="translate(219 2573)"/></g><g transform="translate(-138 -2393)"><circle class="e" cx="1.5" cy="1.5" r="1.5" transform="translate(219 2573)"/></g><g transform="translate(-129 -2393)"><circle class="e" cx="1.5" cy="1.5" r="1.5" transform="translate(219 2573)"/></g><g transform="translate(-120 -2393)"><circle class="e" cx="1.5" cy="1.5" r="1.5" transform="translate(219 2573)"/></g><g transform="translate(-111 -2393)"><circle class="e" cx="1.5" cy="1.5" r="1.5" transform="translate(219 2573)"/></g><g transform="translate(-102 -2393)"><circle class="e" cx="1.5" cy="1.5" r="1.5" transform="translate(219 2573)"/></g><g transform="translate(-93 -2393)"><circle class="e" cx="1.5" cy="1.5" r="1.5" transform="translate(219 2573)"/></g><g transform="translate(-84 -2393)"><circle class="e" cx="1.5" cy="1.5" r="1.5" transform="translate(219 2573)"/></g><g transform="translate(-75 -2393)"><circle class="e" cx="1.5" cy="1.5" r="1.5" transform="translate(219 2573)"/></g><g transform="translate(-66 -2393)"><circle class="e" cx="1.5" cy="1.5" r="1.5" transform="translate(219 2573)"/></g><g transform="translate(-57 -2393)"><circle class="e" cx="1.5" cy="1.5" r="1.5" transform="translate(219 2573)"/></g><g transform="translate(-48 -2393)"><circle class="e" cx="1.5" cy="1.5" r="1.5" transform="translate(219 2573)"/></g><g transform="translate(-39 -2393)"><circle class="e" cx="1.5" cy="1.5" r="1.5" transform="translate(219 2573)"/></g><g transform="translate(-30 -2393)"><circle class="e" cx="1.5" cy="1.5" r="1.5" transform="translate(219 2573)"/></g><g transform="translate(-21 -2393)"><circle class="e" cx="1.5" cy="1.5" r="1.5" transform="translate(219 2573)"/></g><g transform="translate(-12 -2393)"><circle class="e" cx="1.5" cy="1.5" r="1.5" transform="translate(219 2573)"/></g><g transform="translate(-3 -2393)"><circle class="e" cx="1.5" cy="1.5" r="1.5" transform="translate(219 2573)"/></g><g transform="translate(6 -2393)"><circle class="e" cx="1.5" cy="1.5" r="1.5" transform="translate(219 2573)"/></g><g transform="translate(-219 -2384)"><circle class="e" cx="1.5" cy="1.5" r="1.5" transform="translate(219 2573)"/></g><g transform="translate(-210 -2384)"><circle class="e" cx="1.5" cy="1.5" r="1.5" transform="translate(219 2573)"/></g><g transform="translate(-201 -2384)"><circle class="e" cx="1.5" cy="1.5" r="1.5" transform="translate(219 2573)"/></g><g transform="translate(-192 -2384)"><circle class="e" cx="1.5" cy="1.5" r="1.5" transform="translate(219 2573)"/></g><g transform="translate(-183 -2384)"><circle class="e" cx="1.5" cy="1.5" r="1.5" transform="translate(219 2573)"/></g><g transform="translate(-174 -2384)"><circle class="e" cx="1.5" cy="1.5" r="1.5" transform="translate(219 2573)"/></g><g transform="translate(-165 -2384)"><circle class="e" cx="1.5" cy="1.5" r="1.5" transform="translate(219 2573)"/></g><g transform="translate(-156 -2384)"><circle class="e" cx="1.5" cy="1.5" r="1.5" transform="translate(219 2573)"/></g><g transform="translate(-147 -2384)"><circle class="e" cx="1.5" cy="1.5" r="1.5" transform="translate(219 2573)"/></g><g transform="translate(-138 -2384)"><circle class="e" cx="1.5" cy="1.5" r="1.5" transform="translate(219 2573)"/></g><g transform="translate(-129 -2384)"><circle class="e" cx="1.5" cy="1.5" r="1.5" transform="translate(219 2573)"/></g><g transform="translate(-120 -2384)"><circle class="e" cx="1.5" cy="1.5" r="1.5" transform="translate(219 2573)"/></g><g transform="translate(-111 -2384)"><circle class="e" cx="1.5" cy="1.5" r="1.5" transform="translate(219 2573)"/></g><g transform="translate(-102 -2384)"><circle class="e" cx="1.5" cy="1.5" r="1.5" transform="translate(219 2573)"/></g><g transform="translate(-93 -2384)"><circle class="e" cx="1.5" cy="1.5" r="1.5" transform="translate(219 2573)"/></g><g transform="translate(-84 -2384)"><circle class="e" cx="1.5" cy="1.5" r="1.5" transform="translate(219 2573)"/></g><g transform="translate(-75 -2384)"><circle class="e" cx="1.5" cy="1.5" r="1.5" transform="translate(219 2573)"/></g><g transform="translate(-66 -2384)"><circle class="e" cx="1.5" cy="1.5" r="1.5" transform="translate(219 2573)"/></g><g transform="translate(-57 -2384)"><circle class="e" cx="1.5" cy="1.5" r="1.5" transform="translate(219 2573)"/></g><g transform="translate(-48 -2384)"><circle class="e" cx="1.5" cy="1.5" r="1.5" transform="translate(219 2573)"/></g><g transform="translate(-39 -2384)"><circle class="e" cx="1.5" cy="1.5" r="1.5" transform="translate(219 2573)"/></g><g transform="translate(-30 -2384)"><circle class="e" cx="1.5" cy="1.5" r="1.5" transform="translate(219 2573)"/></g><g transform="translate(-21 -2384)"><circle class="e" cx="1.5" cy="1.5" r="1.5" transform="translate(219 2573)"/></g><g transform="translate(-12 -2384)"><circle class="e" cx="1.5" cy="1.5" r="1.5" transform="translate(219 2573)"/></g><g transform="translate(-3 -2384)"><circle class="e" cx="1.5" cy="1.5" r="1.5" transform="translate(219 2573)"/></g><g transform="translate(6 -2384)"><circle class="e" cx="1.5" cy="1.5" r="1.5" transform="translate(219 2573)"/></g><g transform="translate(-219 -2375)"><circle class="e" cx="1.5" cy="1.5" r="1.5" transform="translate(219 2573)"/></g><g transform="translate(-210 -2375)"><circle class="e" cx="1.5" cy="1.5" r="1.5" transform="translate(219 2573)"/></g><g transform="translate(-201 -2375)"><circle class="e" cx="1.5" cy="1.5" r="1.5" transform="translate(219 2573)"/></g><g transform="translate(-192 -2375)"><circle class="e" cx="1.5" cy="1.5" r="1.5" transform="translate(219 2573)"/></g><g transform="translate(-183 -2375)"><circle class="e" cx="1.5" cy="1.5" r="1.5" transform="translate(219 2573)"/></g><g transform="translate(-174 -2375)"><circle class="e" cx="1.5" cy="1.5" r="1.5" transform="translate(219 2573)"/></g><g transform="translate(-165 -2375)"><circle class="e" cx="1.5" cy="1.5" r="1.5" transform="translate(219 2573)"/></g><g transform="translate(-156 -2375)"><circle class="e" cx="1.5" cy="1.5" r="1.5" transform="translate(219 2573)"/></g><g transform="translate(-147 -2375)"><circle class="e" cx="1.5" cy="1.5" r="1.5" transform="translate(219 2573)"/></g><g transform="translate(-138 -2375)"><circle class="e" cx="1.5" cy="1.5" r="1.5" transform="translate(219 2573)"/></g><g transform="translate(-129 -2375)"><circle class="e" cx="1.5" cy="1.5" r="1.5" transform="translate(219 2573)"/></g><g transform="translate(-120 -2375)"><circle class="e" cx="1.5" cy="1.5" r="1.5" transform="translate(219 2573)"/></g><g transform="translate(-111 -2375)"><circle class="e" cx="1.5" cy="1.5" r="1.5" transform="translate(219 2573)"/></g><g transform="translate(-102 -2375)"><circle class="e" cx="1.5" cy="1.5" r="1.5" transform="translate(219 2573)"/></g><g transform="translate(-93 -2375)"><circle class="e" cx="1.5" cy="1.5" r="1.5" transform="translate(219 2573)"/></g><g transform="translate(-84 -2375)"><circle class="e" cx="1.5" cy="1.5" r="1.5" transform="translate(219 2573)"/></g><g transform="translate(-75 -2375)"><circle class="e" cx="1.5" cy="1.5" r="1.5" transform="translate(219 2573)"/></g><g transform="translate(-66 -2375)"><circle class="e" cx="1.5" cy="1.5" r="1.5" transform="translate(219 2573)"/></g><g transform="translate(-57 -2375)"><circle class="e" cx="1.5" cy="1.5" r="1.5" transform="translate(219 2573)"/></g><g transform="translate(-48 -2375)"><circle class="e" cx="1.5" cy="1.5" r="1.5" transform="translate(219 2573)"/></g><g transform="translate(-39 -2375)"><circle class="e" cx="1.5" cy="1.5" r="1.5" transform="translate(219 2573)"/></g><g transform="translate(-30 -2375)"><circle class="e" cx="1.5" cy="1.5" r="1.5" transform="translate(219 2573)"/></g><g transform="translate(-21 -2375)"><circle class="e" cx="1.5" cy="1.5" r="1.5" transform="translate(219 2573)"/></g><g transform="translate(-12 -2375)"><circle class="e" cx="1.5" cy="1.5" r="1.5" transform="translate(219 2573)"/></g><g transform="translate(-3 -2375)"><circle class="e" cx="1.5" cy="1.5" r="1.5" transform="translate(219 2573)"/></g><g transform="translate(6 -2375)"><circle class="e" cx="1.5" cy="1.5" r="1.5" transform="translate(219 2573)"/></g><g transform="translate(-219 -2366)"><circle class="e" cx="1.5" cy="1.5" r="1.5" transform="translate(219 2573)"/></g><g transform="translate(-210 -2366)"><circle class="e" cx="1.5" cy="1.5" r="1.5" transform="translate(219 2573)"/></g><g transform="translate(-201 -2366)"><circle class="e" cx="1.5" cy="1.5" r="1.5" transform="translate(219 2573)"/></g><g transform="translate(-192 -2366)"><circle class="e" cx="1.5" cy="1.5" r="1.5" transform="translate(219 2573)"/></g><g transform="translate(-183 -2366)"><circle class="e" cx="1.5" cy="1.5" r="1.5" transform="translate(219 2573)"/></g><g transform="translate(-174 -2366)"><circle class="e" cx="1.5" cy="1.5" r="1.5" transform="translate(219 2573)"/></g><g transform="translate(-165 -2366)"><circle class="e" cx="1.5" cy="1.5" r="1.5" transform="translate(219 2573)"/></g><g transform="translate(-156 -2366)"><circle class="e" cx="1.5" cy="1.5" r="1.5" transform="translate(219 2573)"/></g><g transform="translate(-147 -2366)"><circle class="e" cx="1.5" cy="1.5" r="1.5" transform="translate(219 2573)"/></g><g transform="translate(-138 -2366)"><circle class="e" cx="1.5" cy="1.5" r="1.5" transform="translate(219 2573)"/></g><g transform="translate(-129 -2366)"><circle class="e" cx="1.5" cy="1.5" r="1.5" transform="translate(219 2573)"/></g><g transform="translate(-120 -2366)"><circle class="e" cx="1.5" cy="1.5" r="1.5" transform="translate(219 2573)"/></g><g transform="translate(-111 -2366)"><circle class="e" cx="1.5" cy="1.5" r="1.5" transform="translate(219 2573)"/></g><g transform="translate(-102 -2366)"><circle class="e" cx="1.5" cy="1.5" r="1.5" transform="translate(219 2573)"/></g><g transform="translate(-93 -2366)"><circle class="e" cx="1.5" cy="1.5" r="1.5" transform="translate(219 2573)"/></g><g transform="translate(-84 -2366)"><circle class="e" cx="1.5" cy="1.5" r="1.5" transform="translate(219 2573)"/></g><g transform="translate(-75 -2366)"><circle class="e" cx="1.5" cy="1.5" r="1.5" transform="translate(219 2573)"/></g><g transform="translate(-66 -2366)"><circle class="e" cx="1.5" cy="1.5" r="1.5" transform="translate(219 2573)"/></g><g transform="translate(-57 -2366)"><circle class="e" cx="1.5" cy="1.5" r="1.5" transform="translate(219 2573)"/></g><g transform="translate(-48 -2366)"><circle class="e" cx="1.5" cy="1.5" r="1.5" transform="translate(219 2573)"/></g><g transform="translate(-39 -2366)"><circle class="e" cx="1.5" cy="1.5" r="1.5" transform="translate(219 2573)"/></g><g transform="translate(-30 -2366)"><circle class="e" cx="1.5" cy="1.5" r="1.5" transform="translate(219 2573)"/></g><g transform="translate(-21 -2366)"><circle class="e" cx="1.5" cy="1.5" r="1.5" transform="translate(219 2573)"/></g><g transform="translate(-12 -2366)"><circle class="e" cx="1.5" cy="1.5" r="1.5" transform="translate(219 2573)"/></g><g transform="translate(-3 -2366)"><circle class="e" cx="1.5" cy="1.5" r="1.5" transform="translate(219 2573)"/></g><g transform="translate(6 -2366)"><circle class="e" cx="1.5" cy="1.5" r="1.5" transform="translate(219 2573)"/></g><g transform="translate(-219 -2357)"><circle class="e" cx="1.5" cy="1.5" r="1.5" transform="translate(219 2573)"/></g><g transform="translate(-210 -2357)"><circle class="e" cx="1.5" cy="1.5" r="1.5" transform="translate(219 2573)"/></g><g transform="translate(-201 -2357)"><circle class="e" cx="1.5" cy="1.5" r="1.5" transform="translate(219 2573)"/></g><g transform="translate(-192 -2357)"><circle class="e" cx="1.5" cy="1.5" r="1.5" transform="translate(219 2573)"/></g><g transform="translate(-183 -2357)"><circle class="e" cx="1.5" cy="1.5" r="1.5" transform="translate(219 2573)"/></g><g transform="translate(-174 -2357)"><circle class="e" cx="1.5" cy="1.5" r="1.5" transform="translate(219 2573)"/></g><g transform="translate(-165 -2357)"><circle class="e" cx="1.5" cy="1.5" r="1.5" transform="translate(219 2573)"/></g><g transform="translate(-156 -2357)"><circle class="e" cx="1.5" cy="1.5" r="1.5" transform="translate(219 2573)"/></g><g transform="translate(-147 -2357)"><circle class="e" cx="1.5" cy="1.5" r="1.5" transform="translate(219 2573)"/></g><g transform="translate(-138 -2357)"><circle class="e" cx="1.5" cy="1.5" r="1.5" transform="translate(219 2573)"/></g><g transform="translate(-129 -2357)"><circle class="e" cx="1.5" cy="1.5" r="1.5" transform="translate(219 2573)"/></g><g transform="translate(-120 -2357)"><circle class="e" cx="1.5" cy="1.5" r="1.5" transform="translate(219 2573)"/></g><g transform="translate(-111 -2357)"><circle class="e" cx="1.5" cy="1.5" r="1.5" transform="translate(219 2573)"/></g><g transform="translate(-102 -2357)"><circle class="e" cx="1.5" cy="1.5" r="1.5" transform="translate(219 2573)"/></g><g transform="translate(-93 -2357)"><circle class="e" cx="1.5" cy="1.5" r="1.5" transform="translate(219 2573)"/></g><g transform="translate(-84 -2357)"><circle class="e" cx="1.5" cy="1.5" r="1.5" transform="translate(219 2573)"/></g><g transform="translate(-75 -2357)"><circle class="e" cx="1.5" cy="1.5" r="1.5" transform="translate(219 2573)"/></g><g transform="translate(-66 -2357)"><circle class="e" cx="1.5" cy="1.5" r="1.5" transform="translate(219 2573)"/></g><g transform="translate(-57 -2357)"><circle class="e" cx="1.5" cy="1.5" r="1.5" transform="translate(219 2573)"/></g><g transform="translate(-48 -2357)"><circle class="e" cx="1.5" cy="1.5" r="1.5" transform="translate(219 2573)"/></g><g transform="translate(-39 -2357)"><circle class="e" cx="1.5" cy="1.5" r="1.5" transform="translate(219 2573)"/></g><g transform="translate(-30 -2357)"><circle class="e" cx="1.5" cy="1.5" r="1.5" transform="translate(219 2573)"/></g><g transform="translate(-21 -2357)"><circle class="e" cx="1.5" cy="1.5" r="1.5" transform="translate(219 2573)"/></g><g transform="translate(-12 -2357)"><circle class="e" cx="1.5" cy="1.5" r="1.5" transform="translate(219 2573)"/></g><g transform="translate(-3 -2357)"><circle class="e" cx="1.5" cy="1.5" r="1.5" transform="translate(219 2573)"/></g><g transform="translate(6 -2357)"><circle class="e" cx="1.5" cy="1.5" r="1.5" transform="translate(219 2573)"/></g><g transform="translate(-219 -2348)"><circle class="e" cx="1.5" cy="1.5" r="1.5" transform="translate(219 2573)"/></g><g transform="translate(-210 -2348)"><circle class="e" cx="1.5" cy="1.5" r="1.5" transform="translate(219 2573)"/></g><g transform="translate(-201 -2348)"><circle class="e" cx="1.5" cy="1.5" r="1.5" transform="translate(219 2573)"/></g><g transform="translate(-192 -2348)"><circle class="e" cx="1.5" cy="1.5" r="1.5" transform="translate(219 2573)"/></g><g transform="translate(-183 -2348)"><circle class="e" cx="1.5" cy="1.5" r="1.5" transform="translate(219 2573)"/></g><g transform="translate(-174 -2348)"><circle class="e" cx="1.5" cy="1.5" r="1.5" transform="translate(219 2573)"/></g><g transform="translate(-165 -2348)"><circle class="e" cx="1.5" cy="1.5" r="1.5" transform="translate(219 2573)"/></g><g transform="translate(-156 -2348)"><circle class="e" cx="1.5" cy="1.5" r="1.5" transform="translate(219 2573)"/></g><g transform="translate(-147 -2348)"><circle class="e" cx="1.5" cy="1.5" r="1.5" transform="translate(219 2573)"/></g><g transform="translate(-138 -2348)"><circle class="e" cx="1.5" cy="1.5" r="1.5" transform="translate(219 2573)"/></g><g transform="translate(-129 -2348)"><circle class="e" cx="1.5" cy="1.5" r="1.5" transform="translate(219 2573)"/></g><g transform="translate(-120 -2348)"><circle class="e" cx="1.5" cy="1.5" r="1.5" transform="translate(219 2573)"/></g><g transform="translate(-111 -2348)"><circle class="e" cx="1.5" cy="1.5" r="1.5" transform="translate(219 2573)"/></g><g transform="translate(-102 -2348)"><circle class="e" cx="1.5" cy="1.5" r="1.5" transform="translate(219 2573)"/></g><g transform="translate(-93 -2348)"><circle class="e" cx="1.5" cy="1.5" r="1.5" transform="translate(219 2573)"/></g><g transform="translate(-84 -2348)"><circle class="e" cx="1.5" cy="1.5" r="1.5" transform="translate(219 2573)"/></g><g transform="translate(-75 -2348)"><circle class="e" cx="1.5" cy="1.5" r="1.5" transform="translate(219 2573)"/></g><g transform="translate(-66 -2348)"><circle class="e" cx="1.5" cy="1.5" r="1.5" transform="translate(219 2573)"/></g><g transform="translate(-57 -2348)"><circle class="e" cx="1.5" cy="1.5" r="1.5" transform="translate(219 2573)"/></g><g transform="translate(-48 -2348)"><circle class="e" cx="1.5" cy="1.5" r="1.5" transform="translate(219 2573)"/></g><g transform="translate(-39 -2348)"><circle class="e" cx="1.5" cy="1.5" r="1.5" transform="translate(219 2573)"/></g><g transform="translate(-30 -2348)"><circle class="e" cx="1.5" cy="1.5" r="1.5" transform="translate(219 2573)"/></g><g transform="translate(-21 -2348)"><circle class="e" cx="1.5" cy="1.5" r="1.5" transform="translate(219 2573)"/></g><g transform="translate(-12 -2348)"><circle class="e" cx="1.5" cy="1.5" r="1.5" transform="translate(219 2573)"/></g><g transform="translate(-3 -2348)"><circle class="e" cx="1.5" cy="1.5" r="1.5" transform="translate(219 2573)"/></g><g transform="translate(6 -2348)"><circle class="e" cx="1.5" cy="1.5" r="1.5" transform="translate(219 2573)"/></g></g></g></svg>