<svg xmlns="http://www.w3.org/2000/svg" width="28.286" height="21.214" viewBox="0 0 28.286 21.214">
  <path id="Path_89" data-name="Path 89" d="M24.75,0H3.536A3.535,3.535,0,0,0,0,3.536V17.679a3.535,3.535,0,0,0,3.536,3.536H24.75a3.535,3.535,0,0,0,3.536-3.536V3.536A3.535,3.535,0,0,0,24.75,0Zm.884,1.768L14.143,10.607,2.652,1.768ZM1.768,17.679V3.536L9.723,9.723,1.847,18.191A2,2,0,0,1,1.768,17.679ZM3.147,19.4l7.973-8.5,3.023,2.281,2.89-2.3,8.106,8.512C25.015,19.429,3.271,19.429,3.147,19.4Zm23.371-1.724a2,2,0,0,1-.08.513L18.563,9.723l7.955-6.188Z" transform="translate(0)" fill="#f7faff"/>
</svg>
