<svg xmlns="http://www.w3.org/2000/svg" viewBox="0 0 225.483 69.837"><defs><style>.a{fill:#f1f7fe;}</style></defs><g transform="translate(-35 -26.163)"><g transform="translate(-24 -14.837)"><g transform="translate(59 41)"><path class="a" d="M34.921,69.837A34.918,34.918,0,1,1,34.921,0a3.3,3.3,0,1,1,0,6.6,28.32,28.32,0,1,0,28.32,28.32,3.3,3.3,0,1,1,6.6,0A34.955,34.955,0,0,1,34.921,69.837Z" transform="translate(0 0)"/></g><g transform="translate(71.579 53.579)"><path class="a" d="M46.332,68.674A22.342,22.342,0,1,1,68.674,46.332,22.368,22.368,0,0,1,46.332,68.674Zm0-38.14a15.8,15.8,0,1,0,15.8,15.8A15.819,15.819,0,0,0,46.332,30.534Z" transform="translate(-23.99 -23.99)"/></g></g><g transform="translate(122.254 43.004)"><path class="a" d="M180.134,33.845a10.578,10.578,0,0,1-10.2,9.889,10.97,10.97,0,0,1-11.421-11.62,10.558,10.558,0,0,1,10.2-9.893A10.982,10.982,0,0,1,180.134,33.845Zm-17.373-.864a6.548,6.548,0,1,0,13.092,0,6.548,6.548,0,1,0-13.092,0Z" transform="translate(-158.48 -22.208)"/><path class="a" d="M239.02,33.512a10.294,10.294,0,0,1-10.651,10.412H220.84V26.716a3.617,3.617,0,0,1,3.616-3.616h3.908A10.276,10.276,0,0,1,239.02,33.512Zm-4.537-2.189a5.654,5.654,0,0,0-5.53-4.176h-3.807a.054.054,0,0,0-.053.053V39.881h3.272C232.813,39.877,235.707,36.2,234.483,31.322Z" transform="translate(-195.557 -22.738)"/><path class="a" d="M278.326,37.045v6.872h-4.285l.028-6.844L266.69,23.09h1.893a4.732,4.732,0,0,1,4.212,2.579l3.381,6.617,4.7-9.2h4.788Z" transform="translate(-222.818 -22.732)"/><path class="a" d="M331.968,37.235c0,4.849-4.4,6.515-7.914,6.515-6.1,0-8.6-3.45-9.074-7.051h4.285c.564,2.052,1.816,3.093,4.76,3.093,2.408,0,3.657-.892,3.657-2.38,0-1.549-1.46-1.756-5.117-2.558-3.718-.774-7.051-1.995-7.051-6.1,0-4.375,3.9-6.548,7.853-6.548,4.46,0,6.84,1.91,7.861,4.435a1.48,1.48,0,0,1-1.383,2.019h-2.4c-.446-1.46-1.488-2.5-4.046-2.5-2.53,0-3.6,1.07-3.6,2.408,0,1.22,1.042,1.516,3.779,2.112C329.142,31.88,331.968,33.1,331.968,37.235Z" transform="translate(-251.529 -22.209)"/><path class="a" d="M380.883,37.235c0,4.849-4.4,6.515-7.914,6.515-4.646,0-7.2-2-8.368-4.549a1.755,1.755,0,0,1,1.581-2.5h2c.564,2.052,1.816,3.093,4.76,3.093,2.408,0,3.657-.892,3.657-2.38,0-1.549-1.46-1.756-5.117-2.558-3.718-.774-7.051-1.995-7.051-6.1,0-4.375,3.9-6.548,7.853-6.548,5.6,0,7.914,3,8.388,6.455h-4.314c-.446-1.46-1.488-2.5-4.046-2.5-2.53,0-3.6,1.07-3.6,2.408,0,1.22,1.042,1.516,3.779,2.112C378.057,31.88,380.883,33.1,380.883,37.235Z" transform="translate(-280.931 -22.209)"/><path class="a" d="M417.553,27.136v4.2H426v4.046h-8.449v4.492h9.252v.247a3.8,3.8,0,0,1-3.8,3.8H413.3V23.09h13.505v4.046Z" transform="translate(-309.987 -22.732)"/><path class="a" d="M464.256,37.045v3.016a3.857,3.857,0,0,1-3.856,3.856h-.43L460,37.073,452.62,23.09h4.788l4.7,9.2,4.7-9.2h4.788Z" transform="translate(-333.365 -22.732)"/></g><g transform="translate(129.353 72.014)"><path class="a" d="M181.857,96.391h-1.1a1.623,1.623,0,0,0-1.727-1.654c-1.228,0-1.946.892-1.946,2.283v.511c0,1.4.7,2.262,1.946,2.262a1.591,1.591,0,0,0,1.727-1.618h1.111a2.59,2.59,0,0,1-2.834,2.583,2.913,2.913,0,0,1-3.045-3.207v-.535a2.936,2.936,0,0,1,3.045-3.235A2.585,2.585,0,0,1,181.857,96.391Z" transform="translate(-175.99 -93.772)"/><path class="a" d="M219.346,96.979v.555a3.057,3.057,0,1,1-6.106,0v-.555a3.057,3.057,0,1,1,6.106,0ZM214.339,97v.519c0,1.456.71,2.262,1.954,2.262s1.954-.811,1.954-2.262V97c0-1.443-.726-2.27-1.954-2.27S214.339,95.552,214.339,97Z" transform="translate(-198.138 -93.76)"/><path class="a" d="M258.238,100.779v-4.46l-2.27,4.464h-.774l-2.27-4.464v4.464H251.84v-6.8h1.091l2.656,5.218,2.635-5.218h1.091v6.8Z" transform="translate(-221.088 -93.891)"/><path class="a" d="M297.329,93.98c1.273,0,2.238.645,2.238,1.974v.219c0,1.326-.965,1.974-2.238,1.974h-1.646v2.635H294.6v-6.8Zm-1.654,3.2h1.581c.681,0,1.2-.345,1.2-1.026v-.182c0-.681-.519-1.038-1.2-1.038h-1.581Z" transform="translate(-246.511 -93.891)"/><path class="a" d="M335.519,98.136a2.79,2.79,0,0,1-5.579,0V93.98h1.083v4.135a1.709,1.709,0,1,0,3.414,0V93.98h1.083Z" transform="translate(-267.523 -93.891)"/><path class="a" d="M369.879,94.943v5.842H368.8V94.943H366.38V93.99H372.3v.953Z" transform="translate(-289.189 -93.897)"/><path class="a" d="M403.84,100.779v-6.8h1.083v6.8Z" transform="translate(-311.461 -93.891)"/><path class="a" d="M435.1,100.779l-3.191-4.772v4.772H430.83v-6.8h1.018l3.2,4.764V93.98h1.07v6.8Z" transform="translate(-327.509 -93.891)"/><path class="a" d="M473.311,96.239h-1.1a1.6,1.6,0,0,0-1.727-1.508c-1.224,0-1.946.892-1.946,2.283v.511c0,1.4.734,2.262,1.983,2.262a2.289,2.289,0,0,0,1.727-.637V98.068h-1.727v-.928h2.8v2.473a3.578,3.578,0,0,1-2.789,1.135,2.942,2.942,0,0,1-3.089-3.207v-.535a2.938,2.938,0,0,1,3.045-3.235A2.581,2.581,0,0,1,473.311,96.239Z" transform="translate(-349.276 -93.766)"/></g></g></svg>