<svg xmlns="http://www.w3.org/2000/svg" width="79" height="79.27" viewBox="0 0 79 79.27">
  <g id="Group_820" data-name="Group 820" transform="translate(-1081.5 -673.5)">
    <path id="Path_435" data-name="Path 435" d="M1136.63,716.89a110.138,110.138,0,0,1-4.78,10.39,25.954,25.954,0,0,1-3.77,5.61,6.235,6.235,0,0,1-2.72,1.01,31.422,31.422,0,0,1-6.72.27,10.258,10.258,0,0,1-5.09-1.28,19.264,19.264,0,0,1-2.57-3.48,90.582,90.582,0,0,1-5.62-11.58l-2.28-6.7-.02-.27c.14.03.5.32-.02-.39v-.01l-.04-.57-.13-.17v-.01a6.624,6.624,0,0,1-.02-1.18c.04-.76.16-1.52.27-2.27a39.879,39.879,0,0,1,2.05-7.97,15.491,15.491,0,0,1,1.32-2.64c.63-1,1.55-2.17,2.81-2.28a2.546,2.546,0,0,1,1.7.52,34.237,34.237,0,0,0,5.8,3.06,10.188,10.188,0,0,0,8.013,0,34.134,34.134,0,0,0,5.814-3.062c1.69-1.18,3.41-.09,4.56,1.29a19.762,19.762,0,0,1,3.37,6.87,22.95,22.95,0,0,1,.87,4.27c.09.87.01,3.4.01,4.08l-.79,1.16a10.165,10.165,0,0,0-.6,1,11.95,11.95,0,0,0-1.38,4.37C1136.66,716.91,1136.64,716.9,1136.63,716.89Z" fill="none" stroke="#1647d3" stroke-miterlimit="10" stroke-width="1"/>
    <circle id="Ellipse_500" data-name="Ellipse 500" cx="39.5" cy="39.5" r="39.5" transform="translate(1081.5 673.5)" fill="#1144da"/>
    <path id="Path_436" data-name="Path 436" d="M1145.44,744.43a39.98,39.98,0,0,1-48.88,0,4.585,4.585,0,0,1,1.71-4.81l6.77-5.08a1.77,1.77,0,0,1,2.37.21c.08.09.16.17.25.27a25.572,25.572,0,0,0,6.83,5.4,4.791,4.791,0,0,1,2.17,2.1l2.74,5.03a1.827,1.827,0,0,0,3.2,0l2.74-5.03a4.791,4.791,0,0,1,2.17-2.1c2.71-1.24,5.58-4.06,7.08-5.67a1.387,1.387,0,0,1,.26-.23,1.77,1.77,0,0,1,2.11.02l6.77,5.08A4.585,4.585,0,0,1,1145.44,744.43Z" fill="#00137d"/>
    <path id="Path_437" data-name="Path 437" d="M1134.85,734.52a1.387,1.387,0,0,0-.26.23c-1.5,1.61-4.37,4.43-7.08,5.67a4.791,4.791,0,0,0-2.17,2.1l-2.74,5.03a1.827,1.827,0,0,1-3.2,0l-2.74-5.03a4.791,4.791,0,0,0-2.17-2.1,25.572,25.572,0,0,1-6.83-5.4,17.36,17.36,0,0,0,3.32-5.61c.87,1.43,1.75,1.66,2.57,2.48a10.258,10.258,0,0,0,5.09,1.28,31.422,31.422,0,0,0,6.72-.27,6.235,6.235,0,0,0,2.72-1.01,17.646,17.646,0,0,0,3.77-4.61C1131.96,729.84,1134.05,733.3,1134.85,734.52Z" fill="#abc6d6"/>
    <path id="Path_439" data-name="Path 439" d="M1139.65,710.38c-.01.32-.02.51-.02.51S1138.92,711.39,1139.65,710.38Z" fill="#fcc9bf"/>
    <path id="Path_440" data-name="Path 440" d="M1142.8,703.34a8.784,8.784,0,0,1-1.28,4.13c-.41.75-.89,1.47-1.37,2.19-.16.24-.33.48-.5.72-.07.1-1.362,2.085-1.432,2.185-.45.63,1.3-5.375,1.212-6.245a22.95,22.95,0,0,0-.87-4.27,19.762,19.762,0,0,0-3.37-6.87c-1.15-1.38-2.87-2.47-4.56-1.29a33.292,33.292,0,0,1-5.5,2.929,10.838,10.838,0,0,1-8.633,0A33.326,33.326,0,0,1,1111,693.89a2.546,2.546,0,0,0-1.7-.52c-1.26.11-2.18,1.28-2.81,2.28a15.491,15.491,0,0,0-1.32,2.64,39.879,39.879,0,0,0-2.05,7.97c-.11.75-.23,1.51-.27,2.27a6.624,6.624,0,0,0,.02,1.18v.01l.17.74a12.094,12.094,0,0,1-1.36-2.06,24.858,24.858,0,0,1-1.53-4.73,16.915,16.915,0,0,1,1.39-11.9,15.738,15.738,0,0,1,2.64-3.48c3.26-3.28,7.48-6.23,12.27-6.15,4.49.08,11.84-.08,15.94-1.73a.426.426,0,0,1,.57.5c-.31,1.18-.41,3.09,2.19,3.09,3.76,0,6.58-2,6.58,4a34.479,34.479,0,0,1-.92,8.941l.036.087a2.917,2.917,0,0,1,.974,1.152A10.5,10.5,0,0,1,1142.8,703.34Z" fill="#00137d"/>
    <g id="Group_817" data-name="Group 817">
      <path id="Path_441" data-name="Path 441" d="M1104.937,716.954a1.957,1.957,0,0,1-1.677.5,3.766,3.766,0,0,1-1.587-.812,8.769,8.769,0,0,1-1.315-1.319c-.141-.172-.279-.349-.408-.53-1.27-1.78-2.11-4.98-.59-6.88a1.249,1.249,0,0,1,1.92,0,3.72,3.72,0,0,1,.4.49,16.331,16.331,0,0,1,1.1,1.743,9.775,9.775,0,0,1,.646,1.789c.255.849.541,1.689.818,2.531a1.071,1.071,0,0,0,.09.272l.1.3.2.6a9.338,9.338,0,0,1,.363,1.157.19.19,0,0,1,0,.082A.181.181,0,0,1,1104.937,716.954Z" fill="#abc6d6"/>
      <path id="Path_442" data-name="Path 442" d="M1141.63,714.89s-1.92,2.56-3.71,2.56a2.055,2.055,0,0,1-1.351-.572,11.856,11.856,0,0,1,1.481-4.318,10.165,10.165,0,0,1,.6-1l.6-.777c.589-.823.93-1.672,1.939-2.973a3.6,3.6,0,0,1,.33-.34.9.9,0,0,1,1.46.14C1143.81,708.69,1144.71,710.57,1141.63,714.89Z" fill="#abc6d6"/>
      <path id="Path_444" data-name="Path 444" d="M1138.05,712.56a12.825,12.825,0,0,0-.873,2.066c-.138.427-.21.867-.316,1.3a20.345,20.345,0,0,1-1.125,3.135q-.789,1.861-1.638,3.7c-.677,1.461-1.385,2.908-2.144,4.327-.035.064-.069.129-.1.193a25.954,25.954,0,0,1-3.77,5.61,6.235,6.235,0,0,1-2.72,1.01,31.422,31.422,0,0,1-6.72.27,10.258,10.258,0,0,1-5.09-1.28,19.264,19.264,0,0,1-2.57-3.48,90.582,90.582,0,0,1-5.62-11.58l-1.054-3.1-.6-1.762q-.109-.322-.213-.645a11.912,11.912,0,0,1-.661-3.807,20.687,20.687,0,0,1,.288-2.257,39.879,39.879,0,0,1,2.05-7.97,15.491,15.491,0,0,1,1.32-2.64c.63-1,1.55-2.17,2.81-2.28a2.546,2.546,0,0,1,1.7.52,33.741,33.741,0,0,0,5.608,2.977,10.6,10.6,0,0,0,8.4,0,33.67,33.67,0,0,0,5.619-2.979c1.69-1.18,3.41-.09,4.56,1.29a19.762,19.762,0,0,1,3.37,6.87,22.95,22.95,0,0,1,.87,4.27C1139.391,710.8,1138.326,712.039,1138.05,712.56Z" fill="#b9d5e6"/>
    </g>
  </g>
</svg>
