<svg xmlns="http://www.w3.org/2000/svg" viewBox="0 0 33.054 45.301"><defs><style>.a{fill:#1fa8fe;}.b{fill:#c8d7ec;}.c{fill:none;}</style></defs><g transform="translate(-9.294)"><path class="a" d="M28.719,12a8.162,8.162,0,1,0,8.162,8.162A8.172,8.172,0,0,0,28.719,12Zm0,13.992a5.83,5.83,0,1,1,5.83-5.83A5.837,5.837,0,0,1,28.719,25.992Z" transform="translate(-2.738 -3.259)"/><path class="b" d="M37.887,5A17.06,17.06,0,0,0,13.76,5c-5.963,5.962-5.729,17.18-.63,23.977L25.824,45.3,38.5,29C43.616,22.177,43.85,10.959,37.887,5Zm-.833,22.965L25.824,42.175,14.574,27.934c-4.625-6.167-4.937-16.3.445-21.679a15.28,15.28,0,0,1,21.61,0C42.011,11.636,41.7,21.767,37.054,27.962Z" transform="translate(0 0)"/><ellipse class="c" cx="6.611" cy="6.611" rx="6.611" ry="6.611" transform="translate(19.16 10.467)"/></g></svg>