<svg xmlns="http://www.w3.org/2000/svg" viewBox="0 0 22.446 22.4"><defs><style>.a{fill:#001157;}</style></defs><g transform="translate(0 0)"><path class="a" d="M.662,2.5,2.741.425a1.477,1.477,0,0,1,2.079,0L7.938,4.569a1.561,1.561,0,0,1,0,2.072l-1.27,1.27a35.726,35.726,0,0,0,3.349,3.912A42.809,42.809,0,0,0,14.5,15.641l1.227-1.227a1.57,1.57,0,0,1,2.079,0l4.158,3.111a1.369,1.369,0,0,1,0,2.072l-2.079,2.072c-1.148,1.148-2.642.78-4.158,0a44.5,44.5,0,0,1-8.51-6.482A48.624,48.624,0,0,1,.669,6.647C.063,5.009-.486,3.645.662,2.5ZM1.7,5.608a43.705,43.705,0,0,0,6.229,8.287c2.627,2.844,8.828,6.735,8.828,6.735a2.666,2.666,0,0,0,2.173-.094l1.321-1.321c.274-.455.4-.982,0-1.321l-2.642-1.978a1,1,0,0,0-1.321,0L14.659,17.54c-.383-.267-6.5-4.28-9.911-9.8L6.415,6.07a.991.991,0,0,0,0-1.321L4.43,2.114a.847.847,0,0,0-1.321,0L1.788,3.435A2.147,2.147,0,0,0,1.7,5.608Z" transform="translate(0.008 0.002)"/></g></svg>