<svg xmlns="http://www.w3.org/2000/svg" xmlns:xlink="http://www.w3.org/1999/xlink" viewBox="0 0 208 232"><defs><style>.a{fill:none;}.b{opacity:0.696;clip-path:url(#a);}.c{fill:#fff;}</style><clipPath id="a"><rect class="a" width="232" height="208"/></clipPath></defs><g class="b" transform="translate(208) rotate(90)"><g transform="translate(-219 -2573)"><circle class="c" cx="1.5" cy="1.5" r="1.5" transform="translate(219 2573)"/></g><g transform="translate(-204 -2573)"><circle class="c" cx="1.5" cy="1.5" r="1.5" transform="translate(219 2573)"/></g><g transform="translate(-189 -2573)"><circle class="c" cx="1.5" cy="1.5" r="1.5" transform="translate(219 2573)"/></g><g transform="translate(-174 -2573)"><circle class="c" cx="1.5" cy="1.5" r="1.5" transform="translate(219 2573)"/></g><g transform="translate(-159 -2573)"><circle class="c" cx="1.5" cy="1.5" r="1.5" transform="translate(219 2573)"/></g><g transform="translate(-144 -2573)"><circle class="c" cx="1.5" cy="1.5" r="1.5" transform="translate(219 2573)"/></g><g transform="translate(-129 -2573)"><circle class="c" cx="1.5" cy="1.5" r="1.5" transform="translate(219 2573)"/></g><g transform="translate(-114 -2573)"><circle class="c" cx="1.5" cy="1.5" r="1.5" transform="translate(219 2573)"/></g><g transform="translate(-99 -2573)"><circle class="c" cx="1.5" cy="1.5" r="1.5" transform="translate(219 2573)"/></g><g transform="translate(-84 -2573)"><circle class="c" cx="1.5" cy="1.5" r="1.5" transform="translate(219 2573)"/></g><g transform="translate(-69 -2573)"><circle class="c" cx="1.5" cy="1.5" r="1.5" transform="translate(219 2573)"/></g><g transform="translate(-54 -2573)"><circle class="c" cx="1.5" cy="1.5" r="1.5" transform="translate(219 2573)"/></g><g transform="translate(-39 -2573)"><circle class="c" cx="1.5" cy="1.5" r="1.5" transform="translate(219 2573)"/></g><g transform="translate(-24 -2573)"><circle class="c" cx="1.5" cy="1.5" r="1.5" transform="translate(219 2573)"/></g><g transform="translate(-9 -2573)"><circle class="c" cx="1.5" cy="1.5" r="1.5" transform="translate(219 2573)"/></g><g transform="translate(6 -2573)"><circle class="c" cx="1.5" cy="1.5" r="1.5" transform="translate(219 2573)"/></g><g transform="translate(-219 -2558)"><circle class="c" cx="1.5" cy="1.5" r="1.5" transform="translate(219 2573)"/></g><g transform="translate(-204 -2558)"><circle class="c" cx="1.5" cy="1.5" r="1.5" transform="translate(219 2573)"/></g><g transform="translate(-189 -2558)"><circle class="c" cx="1.5" cy="1.5" r="1.5" transform="translate(219 2573)"/></g><g transform="translate(-174 -2558)"><circle class="c" cx="1.5" cy="1.5" r="1.5" transform="translate(219 2573)"/></g><g transform="translate(-159 -2558)"><circle class="c" cx="1.5" cy="1.5" r="1.5" transform="translate(219 2573)"/></g><g transform="translate(-144 -2558)"><circle class="c" cx="1.5" cy="1.5" r="1.5" transform="translate(219 2573)"/></g><g transform="translate(-129 -2558)"><circle class="c" cx="1.5" cy="1.5" r="1.5" transform="translate(219 2573)"/></g><g transform="translate(-114 -2558)"><circle class="c" cx="1.5" cy="1.5" r="1.5" transform="translate(219 2573)"/></g><g transform="translate(-99 -2558)"><circle class="c" cx="1.5" cy="1.5" r="1.5" transform="translate(219 2573)"/></g><g transform="translate(-84 -2558)"><circle class="c" cx="1.5" cy="1.5" r="1.5" transform="translate(219 2573)"/></g><g transform="translate(-69 -2558)"><circle class="c" cx="1.5" cy="1.5" r="1.5" transform="translate(219 2573)"/></g><g transform="translate(-54 -2558)"><circle class="c" cx="1.5" cy="1.5" r="1.5" transform="translate(219 2573)"/></g><g transform="translate(-39 -2558)"><circle class="c" cx="1.5" cy="1.5" r="1.5" transform="translate(219 2573)"/></g><g transform="translate(-24 -2558)"><circle class="c" cx="1.5" cy="1.5" r="1.5" transform="translate(219 2573)"/></g><g transform="translate(-9 -2558)"><circle class="c" cx="1.5" cy="1.5" r="1.5" transform="translate(219 2573)"/></g><g transform="translate(6 -2558)"><circle class="c" cx="1.5" cy="1.5" r="1.5" transform="translate(219 2573)"/></g><g transform="translate(-219 -2543)"><circle class="c" cx="1.5" cy="1.5" r="1.5" transform="translate(219 2573)"/></g><g transform="translate(-204 -2543)"><circle class="c" cx="1.5" cy="1.5" r="1.5" transform="translate(219 2573)"/></g><g transform="translate(-189 -2543)"><circle class="c" cx="1.5" cy="1.5" r="1.5" transform="translate(219 2573)"/></g><g transform="translate(-174 -2543)"><circle class="c" cx="1.5" cy="1.5" r="1.5" transform="translate(219 2573)"/></g><g transform="translate(-159 -2543)"><circle class="c" cx="1.5" cy="1.5" r="1.5" transform="translate(219 2573)"/></g><g transform="translate(-144 -2543)"><circle class="c" cx="1.5" cy="1.5" r="1.5" transform="translate(219 2573)"/></g><g transform="translate(-129 -2543)"><circle class="c" cx="1.5" cy="1.5" r="1.5" transform="translate(219 2573)"/></g><g transform="translate(-114 -2543)"><circle class="c" cx="1.5" cy="1.5" r="1.5" transform="translate(219 2573)"/></g><g transform="translate(-99 -2543)"><circle class="c" cx="1.5" cy="1.5" r="1.5" transform="translate(219 2573)"/></g><g transform="translate(-84 -2543)"><circle class="c" cx="1.5" cy="1.5" r="1.5" transform="translate(219 2573)"/></g><g transform="translate(-69 -2543)"><circle class="c" cx="1.5" cy="1.5" r="1.5" transform="translate(219 2573)"/></g><g transform="translate(-54 -2543)"><circle class="c" cx="1.5" cy="1.5" r="1.5" transform="translate(219 2573)"/></g><g transform="translate(-39 -2543)"><circle class="c" cx="1.5" cy="1.5" r="1.5" transform="translate(219 2573)"/></g><g transform="translate(-24 -2543)"><circle class="c" cx="1.5" cy="1.5" r="1.5" transform="translate(219 2573)"/></g><g transform="translate(-9 -2543)"><circle class="c" cx="1.5" cy="1.5" r="1.5" transform="translate(219 2573)"/></g><g transform="translate(6 -2543)"><circle class="c" cx="1.5" cy="1.5" r="1.5" transform="translate(219 2573)"/></g><g transform="translate(-219 -2528)"><circle class="c" cx="1.5" cy="1.5" r="1.5" transform="translate(219 2573)"/></g><g transform="translate(-204 -2528)"><circle class="c" cx="1.5" cy="1.5" r="1.5" transform="translate(219 2573)"/></g><g transform="translate(-189 -2528)"><circle class="c" cx="1.5" cy="1.5" r="1.5" transform="translate(219 2573)"/></g><g transform="translate(-174 -2528)"><circle class="c" cx="1.5" cy="1.5" r="1.5" transform="translate(219 2573)"/></g><g transform="translate(-159 -2528)"><circle class="c" cx="1.5" cy="1.5" r="1.5" transform="translate(219 2573)"/></g><g transform="translate(-144 -2528)"><circle class="c" cx="1.5" cy="1.5" r="1.5" transform="translate(219 2573)"/></g><g transform="translate(-129 -2528)"><circle class="c" cx="1.5" cy="1.5" r="1.5" transform="translate(219 2573)"/></g><g transform="translate(-114 -2528)"><circle class="c" cx="1.5" cy="1.5" r="1.5" transform="translate(219 2573)"/></g><g transform="translate(-99 -2528)"><circle class="c" cx="1.5" cy="1.5" r="1.5" transform="translate(219 2573)"/></g><g transform="translate(-84 -2528)"><circle class="c" cx="1.5" cy="1.5" r="1.5" transform="translate(219 2573)"/></g><g transform="translate(-69 -2528)"><circle class="c" cx="1.5" cy="1.5" r="1.5" transform="translate(219 2573)"/></g><g transform="translate(-54 -2528)"><circle class="c" cx="1.5" cy="1.5" r="1.5" transform="translate(219 2573)"/></g><g transform="translate(-39 -2528)"><circle class="c" cx="1.5" cy="1.5" r="1.5" transform="translate(219 2573)"/></g><g transform="translate(-24 -2528)"><circle class="c" cx="1.5" cy="1.5" r="1.5" transform="translate(219 2573)"/></g><g transform="translate(-9 -2528)"><circle class="c" cx="1.5" cy="1.5" r="1.5" transform="translate(219 2573)"/></g><g transform="translate(6 -2528)"><circle class="c" cx="1.5" cy="1.5" r="1.5" transform="translate(219 2573)"/></g><g transform="translate(-219 -2513)"><circle class="c" cx="1.5" cy="1.5" r="1.5" transform="translate(219 2573)"/></g><g transform="translate(-204 -2513)"><circle class="c" cx="1.5" cy="1.5" r="1.5" transform="translate(219 2573)"/></g><g transform="translate(-189 -2513)"><circle class="c" cx="1.5" cy="1.5" r="1.5" transform="translate(219 2573)"/></g><g transform="translate(-174 -2513)"><circle class="c" cx="1.5" cy="1.5" r="1.5" transform="translate(219 2573)"/></g><g transform="translate(-159 -2513)"><circle class="c" cx="1.5" cy="1.5" r="1.5" transform="translate(219 2573)"/></g><g transform="translate(-144 -2513)"><circle class="c" cx="1.5" cy="1.5" r="1.5" transform="translate(219 2573)"/></g><g transform="translate(-129 -2513)"><circle class="c" cx="1.5" cy="1.5" r="1.5" transform="translate(219 2573)"/></g><g transform="translate(-114 -2513)"><circle class="c" cx="1.5" cy="1.5" r="1.5" transform="translate(219 2573)"/></g><g transform="translate(-99 -2513)"><circle class="c" cx="1.5" cy="1.5" r="1.5" transform="translate(219 2573)"/></g><g transform="translate(-84 -2513)"><circle class="c" cx="1.5" cy="1.5" r="1.5" transform="translate(219 2573)"/></g><g transform="translate(-69 -2513)"><circle class="c" cx="1.5" cy="1.5" r="1.5" transform="translate(219 2573)"/></g><g transform="translate(-54 -2513)"><circle class="c" cx="1.5" cy="1.5" r="1.5" transform="translate(219 2573)"/></g><g transform="translate(-39 -2513)"><circle class="c" cx="1.5" cy="1.5" r="1.5" transform="translate(219 2573)"/></g><g transform="translate(-24 -2513)"><circle class="c" cx="1.5" cy="1.5" r="1.5" transform="translate(219 2573)"/></g><g transform="translate(-9 -2513)"><circle class="c" cx="1.5" cy="1.5" r="1.5" transform="translate(219 2573)"/></g><g transform="translate(6 -2513)"><circle class="c" cx="1.5" cy="1.5" r="1.5" transform="translate(219 2573)"/></g><g transform="translate(-219 -2498)"><circle class="c" cx="1.5" cy="1.5" r="1.5" transform="translate(219 2573)"/></g><g transform="translate(-204 -2498)"><circle class="c" cx="1.5" cy="1.5" r="1.5" transform="translate(219 2573)"/></g><g transform="translate(-189 -2498)"><circle class="c" cx="1.5" cy="1.5" r="1.5" transform="translate(219 2573)"/></g><g transform="translate(-174 -2498)"><circle class="c" cx="1.5" cy="1.5" r="1.5" transform="translate(219 2573)"/></g><g transform="translate(-159 -2498)"><circle class="c" cx="1.5" cy="1.5" r="1.5" transform="translate(219 2573)"/></g><g transform="translate(-144 -2498)"><circle class="c" cx="1.5" cy="1.5" r="1.5" transform="translate(219 2573)"/></g><g transform="translate(-129 -2498)"><circle class="c" cx="1.5" cy="1.5" r="1.5" transform="translate(219 2573)"/></g><g transform="translate(-114 -2498)"><circle class="c" cx="1.5" cy="1.5" r="1.5" transform="translate(219 2573)"/></g><g transform="translate(-99 -2498)"><circle class="c" cx="1.5" cy="1.5" r="1.5" transform="translate(219 2573)"/></g><g transform="translate(-84 -2498)"><circle class="c" cx="1.5" cy="1.5" r="1.5" transform="translate(219 2573)"/></g><g transform="translate(-69 -2498)"><circle class="c" cx="1.5" cy="1.5" r="1.5" transform="translate(219 2573)"/></g><g transform="translate(-54 -2498)"><circle class="c" cx="1.5" cy="1.5" r="1.5" transform="translate(219 2573)"/></g><g transform="translate(-39 -2498)"><circle class="c" cx="1.5" cy="1.5" r="1.5" transform="translate(219 2573)"/></g><g transform="translate(-24 -2498)"><circle class="c" cx="1.5" cy="1.5" r="1.5" transform="translate(219 2573)"/></g><g transform="translate(-9 -2498)"><circle class="c" cx="1.5" cy="1.5" r="1.5" transform="translate(219 2573)"/></g><g transform="translate(6 -2498)"><circle class="c" cx="1.5" cy="1.5" r="1.5" transform="translate(219 2573)"/></g><g transform="translate(-219 -2483)"><circle class="c" cx="1.5" cy="1.5" r="1.5" transform="translate(219 2573)"/></g><g transform="translate(-204 -2483)"><circle class="c" cx="1.5" cy="1.5" r="1.5" transform="translate(219 2573)"/></g><g transform="translate(-189 -2483)"><circle class="c" cx="1.5" cy="1.5" r="1.5" transform="translate(219 2573)"/></g><g transform="translate(-174 -2483)"><circle class="c" cx="1.5" cy="1.5" r="1.5" transform="translate(219 2573)"/></g><g transform="translate(-159 -2483)"><circle class="c" cx="1.5" cy="1.5" r="1.5" transform="translate(219 2573)"/></g><g transform="translate(-144 -2483)"><circle class="c" cx="1.5" cy="1.5" r="1.5" transform="translate(219 2573)"/></g><g transform="translate(-129 -2483)"><circle class="c" cx="1.5" cy="1.5" r="1.5" transform="translate(219 2573)"/></g><g transform="translate(-114 -2483)"><circle class="c" cx="1.5" cy="1.5" r="1.5" transform="translate(219 2573)"/></g><g transform="translate(-99 -2483)"><circle class="c" cx="1.5" cy="1.5" r="1.5" transform="translate(219 2573)"/></g><g transform="translate(-84 -2483)"><circle class="c" cx="1.5" cy="1.5" r="1.5" transform="translate(219 2573)"/></g><g transform="translate(-69 -2483)"><circle class="c" cx="1.5" cy="1.5" r="1.5" transform="translate(219 2573)"/></g><g transform="translate(-54 -2483)"><circle class="c" cx="1.5" cy="1.5" r="1.5" transform="translate(219 2573)"/></g><g transform="translate(-39 -2483)"><circle class="c" cx="1.5" cy="1.5" r="1.5" transform="translate(219 2573)"/></g><g transform="translate(-24 -2483)"><circle class="c" cx="1.5" cy="1.5" r="1.5" transform="translate(219 2573)"/></g><g transform="translate(-9 -2483)"><circle class="c" cx="1.5" cy="1.5" r="1.5" transform="translate(219 2573)"/></g><g transform="translate(6 -2483)"><circle class="c" cx="1.5" cy="1.5" r="1.5" transform="translate(219 2573)"/></g><g transform="translate(-219 -2468)"><circle class="c" cx="1.5" cy="1.5" r="1.5" transform="translate(219 2573)"/></g><g transform="translate(-204 -2468)"><circle class="c" cx="1.5" cy="1.5" r="1.5" transform="translate(219 2573)"/></g><g transform="translate(-189 -2468)"><circle class="c" cx="1.5" cy="1.5" r="1.5" transform="translate(219 2573)"/></g><g transform="translate(-174 -2468)"><circle class="c" cx="1.5" cy="1.5" r="1.5" transform="translate(219 2573)"/></g><g transform="translate(-159 -2468)"><circle class="c" cx="1.5" cy="1.5" r="1.5" transform="translate(219 2573)"/></g><g transform="translate(-144 -2468)"><circle class="c" cx="1.5" cy="1.5" r="1.5" transform="translate(219 2573)"/></g><g transform="translate(-129 -2468)"><circle class="c" cx="1.5" cy="1.5" r="1.5" transform="translate(219 2573)"/></g><g transform="translate(-114 -2468)"><circle class="c" cx="1.5" cy="1.5" r="1.5" transform="translate(219 2573)"/></g><g transform="translate(-99 -2468)"><circle class="c" cx="1.5" cy="1.5" r="1.5" transform="translate(219 2573)"/></g><g transform="translate(-84 -2468)"><circle class="c" cx="1.5" cy="1.5" r="1.5" transform="translate(219 2573)"/></g><g transform="translate(-69 -2468)"><circle class="c" cx="1.5" cy="1.5" r="1.5" transform="translate(219 2573)"/></g><g transform="translate(-54 -2468)"><circle class="c" cx="1.5" cy="1.5" r="1.5" transform="translate(219 2573)"/></g><g transform="translate(-39 -2468)"><circle class="c" cx="1.5" cy="1.5" r="1.5" transform="translate(219 2573)"/></g><g transform="translate(-24 -2468)"><circle class="c" cx="1.5" cy="1.5" r="1.5" transform="translate(219 2573)"/></g><g transform="translate(-9 -2468)"><circle class="c" cx="1.5" cy="1.5" r="1.5" transform="translate(219 2573)"/></g><g transform="translate(6 -2468)"><circle class="c" cx="1.5" cy="1.5" r="1.5" transform="translate(219 2573)"/></g><g transform="translate(-219 -2453)"><circle class="c" cx="1.5" cy="1.5" r="1.5" transform="translate(219 2573)"/></g><g transform="translate(-204 -2453)"><circle class="c" cx="1.5" cy="1.5" r="1.5" transform="translate(219 2573)"/></g><g transform="translate(-189 -2453)"><circle class="c" cx="1.5" cy="1.5" r="1.5" transform="translate(219 2573)"/></g><g transform="translate(-174 -2453)"><circle class="c" cx="1.5" cy="1.5" r="1.5" transform="translate(219 2573)"/></g><g transform="translate(-159 -2453)"><circle class="c" cx="1.5" cy="1.5" r="1.5" transform="translate(219 2573)"/></g><g transform="translate(-144 -2453)"><circle class="c" cx="1.5" cy="1.5" r="1.5" transform="translate(219 2573)"/></g><g transform="translate(-129 -2453)"><circle class="c" cx="1.5" cy="1.5" r="1.5" transform="translate(219 2573)"/></g><g transform="translate(-114 -2453)"><circle class="c" cx="1.5" cy="1.5" r="1.5" transform="translate(219 2573)"/></g><g transform="translate(-99 -2453)"><circle class="c" cx="1.5" cy="1.5" r="1.5" transform="translate(219 2573)"/></g><g transform="translate(-84 -2453)"><circle class="c" cx="1.5" cy="1.5" r="1.5" transform="translate(219 2573)"/></g><g transform="translate(-69 -2453)"><circle class="c" cx="1.5" cy="1.5" r="1.5" transform="translate(219 2573)"/></g><g transform="translate(-54 -2453)"><circle class="c" cx="1.5" cy="1.5" r="1.5" transform="translate(219 2573)"/></g><g transform="translate(-39 -2453)"><circle class="c" cx="1.5" cy="1.5" r="1.5" transform="translate(219 2573)"/></g><g transform="translate(-24 -2453)"><circle class="c" cx="1.5" cy="1.5" r="1.5" transform="translate(219 2573)"/></g><g transform="translate(-9 -2453)"><circle class="c" cx="1.5" cy="1.5" r="1.5" transform="translate(219 2573)"/></g><g transform="translate(6 -2453)"><circle class="c" cx="1.5" cy="1.5" r="1.5" transform="translate(219 2573)"/></g><g transform="translate(-219 -2438)"><circle class="c" cx="1.5" cy="1.5" r="1.5" transform="translate(219 2573)"/></g><g transform="translate(-204 -2438)"><circle class="c" cx="1.5" cy="1.5" r="1.5" transform="translate(219 2573)"/></g><g transform="translate(-189 -2438)"><circle class="c" cx="1.5" cy="1.5" r="1.5" transform="translate(219 2573)"/></g><g transform="translate(-174 -2438)"><circle class="c" cx="1.5" cy="1.5" r="1.5" transform="translate(219 2573)"/></g><g transform="translate(-159 -2438)"><circle class="c" cx="1.5" cy="1.5" r="1.5" transform="translate(219 2573)"/></g><g transform="translate(-144 -2438)"><circle class="c" cx="1.5" cy="1.5" r="1.5" transform="translate(219 2573)"/></g><g transform="translate(-129 -2438)"><circle class="c" cx="1.5" cy="1.5" r="1.5" transform="translate(219 2573)"/></g><g transform="translate(-114 -2438)"><circle class="c" cx="1.5" cy="1.5" r="1.5" transform="translate(219 2573)"/></g><g transform="translate(-99 -2438)"><circle class="c" cx="1.5" cy="1.5" r="1.5" transform="translate(219 2573)"/></g><g transform="translate(-84 -2438)"><circle class="c" cx="1.5" cy="1.5" r="1.5" transform="translate(219 2573)"/></g><g transform="translate(-69 -2438)"><circle class="c" cx="1.5" cy="1.5" r="1.5" transform="translate(219 2573)"/></g><g transform="translate(-54 -2438)"><circle class="c" cx="1.5" cy="1.5" r="1.5" transform="translate(219 2573)"/></g><g transform="translate(-39 -2438)"><circle class="c" cx="1.5" cy="1.5" r="1.5" transform="translate(219 2573)"/></g><g transform="translate(-24 -2438)"><circle class="c" cx="1.5" cy="1.5" r="1.5" transform="translate(219 2573)"/></g><g transform="translate(-9 -2438)"><circle class="c" cx="1.5" cy="1.5" r="1.5" transform="translate(219 2573)"/></g><g transform="translate(6 -2438)"><circle class="c" cx="1.5" cy="1.5" r="1.5" transform="translate(219 2573)"/></g><g transform="translate(-219 -2423)"><circle class="c" cx="1.5" cy="1.5" r="1.5" transform="translate(219 2573)"/></g><g transform="translate(-204 -2423)"><circle class="c" cx="1.5" cy="1.5" r="1.5" transform="translate(219 2573)"/></g><g transform="translate(-189 -2423)"><circle class="c" cx="1.5" cy="1.5" r="1.5" transform="translate(219 2573)"/></g><g transform="translate(-174 -2423)"><circle class="c" cx="1.5" cy="1.5" r="1.5" transform="translate(219 2573)"/></g><g transform="translate(-159 -2423)"><circle class="c" cx="1.5" cy="1.5" r="1.5" transform="translate(219 2573)"/></g><g transform="translate(-144 -2423)"><circle class="c" cx="1.5" cy="1.5" r="1.5" transform="translate(219 2573)"/></g><g transform="translate(-129 -2423)"><circle class="c" cx="1.5" cy="1.5" r="1.5" transform="translate(219 2573)"/></g><g transform="translate(-114 -2423)"><circle class="c" cx="1.5" cy="1.5" r="1.5" transform="translate(219 2573)"/></g><g transform="translate(-99 -2423)"><circle class="c" cx="1.5" cy="1.5" r="1.5" transform="translate(219 2573)"/></g><g transform="translate(-84 -2423)"><circle class="c" cx="1.5" cy="1.5" r="1.5" transform="translate(219 2573)"/></g><g transform="translate(-69 -2423)"><circle class="c" cx="1.5" cy="1.5" r="1.5" transform="translate(219 2573)"/></g><g transform="translate(-54 -2423)"><circle class="c" cx="1.5" cy="1.5" r="1.5" transform="translate(219 2573)"/></g><g transform="translate(-39 -2423)"><circle class="c" cx="1.5" cy="1.5" r="1.5" transform="translate(219 2573)"/></g><g transform="translate(-24 -2423)"><circle class="c" cx="1.5" cy="1.5" r="1.5" transform="translate(219 2573)"/></g><g transform="translate(-9 -2423)"><circle class="c" cx="1.5" cy="1.5" r="1.5" transform="translate(219 2573)"/></g><g transform="translate(6 -2423)"><circle class="c" cx="1.5" cy="1.5" r="1.5" transform="translate(219 2573)"/></g><g transform="translate(-219 -2408)"><circle class="c" cx="1.5" cy="1.5" r="1.5" transform="translate(219 2573)"/></g><g transform="translate(-204 -2408)"><circle class="c" cx="1.5" cy="1.5" r="1.5" transform="translate(219 2573)"/></g><g transform="translate(-189 -2408)"><circle class="c" cx="1.5" cy="1.5" r="1.5" transform="translate(219 2573)"/></g><g transform="translate(-174 -2408)"><circle class="c" cx="1.5" cy="1.5" r="1.5" transform="translate(219 2573)"/></g><g transform="translate(-159 -2408)"><circle class="c" cx="1.5" cy="1.5" r="1.5" transform="translate(219 2573)"/></g><g transform="translate(-144 -2408)"><circle class="c" cx="1.5" cy="1.5" r="1.5" transform="translate(219 2573)"/></g><g transform="translate(-129 -2408)"><circle class="c" cx="1.5" cy="1.5" r="1.5" transform="translate(219 2573)"/></g><g transform="translate(-114 -2408)"><circle class="c" cx="1.5" cy="1.5" r="1.5" transform="translate(219 2573)"/></g><g transform="translate(-99 -2408)"><circle class="c" cx="1.5" cy="1.5" r="1.5" transform="translate(219 2573)"/></g><g transform="translate(-84 -2408)"><circle class="c" cx="1.5" cy="1.5" r="1.5" transform="translate(219 2573)"/></g><g transform="translate(-69 -2408)"><circle class="c" cx="1.5" cy="1.5" r="1.5" transform="translate(219 2573)"/></g><g transform="translate(-54 -2408)"><circle class="c" cx="1.5" cy="1.5" r="1.5" transform="translate(219 2573)"/></g><g transform="translate(-39 -2408)"><circle class="c" cx="1.5" cy="1.5" r="1.5" transform="translate(219 2573)"/></g><g transform="translate(-24 -2408)"><circle class="c" cx="1.5" cy="1.5" r="1.5" transform="translate(219 2573)"/></g><g transform="translate(-9 -2408)"><circle class="c" cx="1.5" cy="1.5" r="1.5" transform="translate(219 2573)"/></g><g transform="translate(6 -2408)"><circle class="c" cx="1.5" cy="1.5" r="1.5" transform="translate(219 2573)"/></g><g transform="translate(-219 -2393)"><circle class="c" cx="1.5" cy="1.5" r="1.5" transform="translate(219 2573)"/></g><g transform="translate(-204 -2393)"><circle class="c" cx="1.5" cy="1.5" r="1.5" transform="translate(219 2573)"/></g><g transform="translate(-189 -2393)"><circle class="c" cx="1.5" cy="1.5" r="1.5" transform="translate(219 2573)"/></g><g transform="translate(-174 -2393)"><circle class="c" cx="1.5" cy="1.5" r="1.5" transform="translate(219 2573)"/></g><g transform="translate(-159 -2393)"><circle class="c" cx="1.5" cy="1.5" r="1.5" transform="translate(219 2573)"/></g><g transform="translate(-144 -2393)"><circle class="c" cx="1.5" cy="1.5" r="1.5" transform="translate(219 2573)"/></g><g transform="translate(-129 -2393)"><circle class="c" cx="1.5" cy="1.5" r="1.5" transform="translate(219 2573)"/></g><g transform="translate(-114 -2393)"><circle class="c" cx="1.5" cy="1.5" r="1.5" transform="translate(219 2573)"/></g><g transform="translate(-99 -2393)"><circle class="c" cx="1.5" cy="1.5" r="1.5" transform="translate(219 2573)"/></g><g transform="translate(-84 -2393)"><circle class="c" cx="1.5" cy="1.5" r="1.5" transform="translate(219 2573)"/></g><g transform="translate(-69 -2393)"><circle class="c" cx="1.5" cy="1.5" r="1.5" transform="translate(219 2573)"/></g><g transform="translate(-54 -2393)"><circle class="c" cx="1.5" cy="1.5" r="1.5" transform="translate(219 2573)"/></g><g transform="translate(-39 -2393)"><circle class="c" cx="1.5" cy="1.5" r="1.5" transform="translate(219 2573)"/></g><g transform="translate(-24 -2393)"><circle class="c" cx="1.5" cy="1.5" r="1.5" transform="translate(219 2573)"/></g><g transform="translate(-9 -2393)"><circle class="c" cx="1.5" cy="1.5" r="1.5" transform="translate(219 2573)"/></g><g transform="translate(6 -2393)"><circle class="c" cx="1.5" cy="1.5" r="1.5" transform="translate(219 2573)"/></g><g transform="translate(-219 -2378)"><circle class="c" cx="1.5" cy="1.5" r="1.5" transform="translate(219 2573)"/></g><g transform="translate(-204 -2378)"><circle class="c" cx="1.5" cy="1.5" r="1.5" transform="translate(219 2573)"/></g><g transform="translate(-189 -2378)"><circle class="c" cx="1.5" cy="1.5" r="1.5" transform="translate(219 2573)"/></g><g transform="translate(-174 -2378)"><circle class="c" cx="1.5" cy="1.5" r="1.5" transform="translate(219 2573)"/></g><g transform="translate(-159 -2378)"><circle class="c" cx="1.5" cy="1.5" r="1.5" transform="translate(219 2573)"/></g><g transform="translate(-144 -2378)"><circle class="c" cx="1.5" cy="1.5" r="1.5" transform="translate(219 2573)"/></g><g transform="translate(-129 -2378)"><circle class="c" cx="1.5" cy="1.5" r="1.5" transform="translate(219 2573)"/></g><g transform="translate(-114 -2378)"><circle class="c" cx="1.5" cy="1.5" r="1.5" transform="translate(219 2573)"/></g><g transform="translate(-99 -2378)"><circle class="c" cx="1.5" cy="1.5" r="1.5" transform="translate(219 2573)"/></g><g transform="translate(-84 -2378)"><circle class="c" cx="1.5" cy="1.5" r="1.5" transform="translate(219 2573)"/></g><g transform="translate(-69 -2378)"><circle class="c" cx="1.5" cy="1.5" r="1.5" transform="translate(219 2573)"/></g><g transform="translate(-54 -2378)"><circle class="c" cx="1.5" cy="1.5" r="1.5" transform="translate(219 2573)"/></g><g transform="translate(-39 -2378)"><circle class="c" cx="1.5" cy="1.5" r="1.5" transform="translate(219 2573)"/></g><g transform="translate(-24 -2378)"><circle class="c" cx="1.5" cy="1.5" r="1.5" transform="translate(219 2573)"/></g><g transform="translate(-9 -2378)"><circle class="c" cx="1.5" cy="1.5" r="1.5" transform="translate(219 2573)"/></g><g transform="translate(6 -2378)"><circle class="c" cx="1.5" cy="1.5" r="1.5" transform="translate(219 2573)"/></g></g></svg>