<svg xmlns="http://www.w3.org/2000/svg" viewBox="0 0 135.742 108.73"><defs><style>.a,.b,.d,.f{fill:none;}.a,.b{stroke:#1fa8fe;}.a,.d{stroke-linecap:round;}.a,.b,.c,.d{stroke-width:4px;}.c{fill:#fff;}.c,.d{stroke:#dfeefd;}.e{stroke:none;}</style></defs><g transform="translate(-1.044 2)"><line class="a" y1="8.516" transform="translate(31.452)"/><line class="a" y1="8.516" transform="translate(107.529)"/><g class="b" transform="translate(29.021 74.655)"><ellipse class="e" cx="3.309" cy="3.309" rx="3.309" ry="3.309"/><ellipse class="f" cx="3.309" cy="3.309" rx="1.309" ry="1.309"/></g><g class="b" transform="translate(105.097 74.655)"><ellipse class="e" cx="3.309" cy="3.309" rx="3.309" ry="3.309"/><ellipse class="f" cx="3.309" cy="3.309" rx="1.309" ry="1.309"/></g><g class="b" transform="translate(17.772 44.967)"><ellipse class="e" cx="3.309" cy="3.309" rx="3.309" ry="3.309"/><ellipse class="f" cx="3.309" cy="3.309" rx="1.309" ry="1.309"/></g><g class="b" transform="translate(93.848 44.967)"><ellipse class="e" cx="3.309" cy="3.309" rx="3.309" ry="3.309"/><ellipse class="f" cx="3.309" cy="3.309" rx="1.309" ry="1.309"/></g><g class="b" transform="translate(38.832 74.655)"><ellipse class="e" cx="3.309" cy="3.309" rx="3.309" ry="3.309"/><ellipse class="f" cx="3.309" cy="3.309" rx="1.309" ry="1.309"/></g><g class="b" transform="translate(114.908 74.655)"><ellipse class="e" cx="3.309" cy="3.309" rx="3.309" ry="3.309"/><ellipse class="f" cx="3.309" cy="3.309" rx="1.309" ry="1.309"/></g><g class="b" transform="translate(29.021 44.967)"><ellipse class="e" cx="3.309" cy="3.309" rx="3.309" ry="3.309"/><ellipse class="f" cx="3.309" cy="3.309" rx="1.309" ry="1.309"/></g><g class="b" transform="translate(105.097 44.967)"><ellipse class="e" cx="3.309" cy="3.309" rx="3.309" ry="3.309"/><ellipse class="f" cx="3.309" cy="3.309" rx="1.309" ry="1.309"/></g><g class="b" transform="translate(29.021 65.378)"><ellipse class="e" cx="3.309" cy="3.309" rx="3.309" ry="3.309"/><ellipse class="f" cx="3.309" cy="3.309" rx="1.309" ry="1.309"/></g><g class="b" transform="translate(105.097 65.378)"><ellipse class="e" cx="3.309" cy="3.309" rx="3.309" ry="3.309"/><ellipse class="f" cx="3.309" cy="3.309" rx="1.309" ry="1.309"/></g><g class="c" transform="translate(29.021 85.41)"><ellipse class="e" cx="3.309" cy="3.309" rx="3.309" ry="3.309"/><ellipse class="f" cx="3.309" cy="3.309" rx="1.309" ry="1.309"/></g><g class="c" transform="translate(105.097 85.41)"><ellipse class="e" cx="3.309" cy="3.309" rx="3.309" ry="3.309"/><ellipse class="f" cx="3.309" cy="3.309" rx="1.309" ry="1.309"/></g><g class="c" transform="translate(29.021 33.455)"><ellipse class="e" cx="3.309" cy="3.309" rx="3.309" ry="3.309"/><ellipse class="f" cx="3.309" cy="3.309" rx="1.309" ry="1.309"/></g><g class="c" transform="translate(105.097 33.455)"><ellipse class="e" cx="3.309" cy="3.309" rx="3.309" ry="3.309"/><ellipse class="f" cx="3.309" cy="3.309" rx="1.309" ry="1.309"/></g><g class="c" transform="translate(17.772 55.721)"><ellipse class="e" cx="3.309" cy="3.309" rx="3.309" ry="3.309"/><ellipse class="f" cx="3.309" cy="3.309" rx="1.309" ry="1.309"/></g><g class="c" transform="translate(93.848 55.721)"><ellipse class="e" cx="3.309" cy="3.309" rx="3.309" ry="3.309"/><ellipse class="f" cx="3.309" cy="3.309" rx="1.309" ry="1.309"/></g><g class="c" transform="translate(38.832 85.41)"><ellipse class="e" cx="3.309" cy="3.309" rx="3.309" ry="3.309"/><ellipse class="f" cx="3.309" cy="3.309" rx="1.309" ry="1.309"/></g><g class="c" transform="translate(114.908 85.41)"><ellipse class="e" cx="3.309" cy="3.309" rx="3.309" ry="3.309"/><ellipse class="f" cx="3.309" cy="3.309" rx="1.309" ry="1.309"/></g><g class="c" transform="translate(29.021 55.721)"><ellipse class="e" cx="3.309" cy="3.309" rx="3.309" ry="3.309"/><ellipse class="f" cx="3.309" cy="3.309" rx="1.309" ry="1.309"/></g><g class="c" transform="translate(105.097 55.721)"><ellipse class="e" cx="3.309" cy="3.309" rx="3.309" ry="3.309"/><ellipse class="f" cx="3.309" cy="3.309" rx="1.309" ry="1.309"/></g><g class="b" transform="translate(77.264 8.16) rotate(90)"><circle class="e" cx="7.886" cy="7.886" r="7.886"/><circle class="f" cx="7.886" cy="7.886" r="5.886"/></g><line class="a" y2="10.831" transform="translate(69.378 16.432)"/><line class="b" x2="32.454" transform="translate(52.844 38.395)"/><line class="a" x1="8.953" y2="12.31" transform="translate(53.963 39.263)"/><line class="a" x1="8.953" y2="12.31" transform="translate(72.469 47.646) rotate(-71)"/><path class="d" d="M17.627,0H38.038a8.35,8.35,0,0,1,8.35,8.35l9.278,78.86a8.35,8.35,0,0,1-8.35,8.35H8.35A8.35,8.35,0,0,1,0,87.209L9.278,8.35A8.35,8.35,0,0,1,17.627,0Z" transform="translate(3.044 9.171)"/><path class="d" d="M17.627,0H38.038a8.35,8.35,0,0,1,8.35,8.35l9.278,78.86a8.35,8.35,0,0,1-8.35,8.35H8.35A8.35,8.35,0,0,1,0,87.209L9.278,8.35A8.35,8.35,0,0,1,17.627,0Z" transform="translate(79.12 9.171)"/></g></svg>