<svg xmlns="http://www.w3.org/2000/svg" viewBox="0 0 106.414 108.937"><defs><style>.a{fill:none;}.b,.c{stroke:none;}.c{fill:#dfeefd;}</style></defs><g class="a" transform="translate(0 0)"><path class="b" d="M17.337,92.505a53.01,53.01,0,1,1,16.618,10.319l-16.618,6.113Z"/><path class="c" d="M 21.33735847473145 103.2035140991211 L 32.57421493530273 99.07023620605469 L 33.99341201782227 98.54819488525391 L 35.40303039550781 99.09559631347656 C 41.07344818115234 101.2975387573242 47.06363296508789 102.4140167236328 53.20719528198242 102.4140167236328 C 59.85208511352539 102.4140167236328 66.29602813720703 101.1135406494141 72.36001586914062 98.54869079589844 C 78.21910095214844 96.07052612304688 83.48190307617188 92.52194213867188 88.00226593017578 88.00156402587891 C 92.52257537841797 83.48117828369141 96.07108306884766 78.21836090087891 98.54921722412109 72.35929107666016 C 101.1139602661133 66.29539489746094 102.4143981933594 59.85161590576172 102.4143981933594 53.20694351196289 C 102.4143981933594 46.56230545043945 101.1139602661133 40.1185417175293 98.54921722412109 34.05466842651367 C 96.07108306884766 28.19561576843262 92.52257537841797 22.93279647827148 88.00226593017578 18.41245079040527 C 83.48190307617188 13.89205169677734 78.21910095214844 10.34348773956299 72.36001586914062 7.86530590057373 C 66.29602813720703 5.300469875335693 59.85208511352539 3.999996900558472 53.20719528198242 3.999996900558472 C 46.56261444091797 3.999996900558472 40.11886978149414 5.300469875335693 34.05493927001953 7.86530590057373 C 28.19586753845215 10.343505859375 22.93301391601562 13.89206981658936 18.41259574890137 18.4124698638916 C 13.89215850830078 22.93286895751953 10.34355926513672 28.19568824768066 7.865340709686279 34.05472564697266 C 5.300486087799072 40.11861419677734 3.999995231628418 46.56235885620117 3.999995231628418 53.20694351196289 C 3.999995231628418 60.24494171142578 5.453649997711182 67.03907012939453 8.320576667785645 73.400634765625 C 9.696504592895508 76.45370483398438 11.39543151855469 79.37985229492188 13.37019538879395 82.09776306152344 C 15.32924938201904 84.7940673828125 17.57157707214355 87.30196380615234 20.03488540649414 89.5517578125 L 21.33735847473145 90.74134063720703 L 21.33735847473145 92.50528717041016 L 21.33735847473145 103.2035140991211 M 17.33735847473145 108.9368667602539 L 17.33735847473145 92.50528717041016 C 6.684377193450928 82.77567291259766 -4.718017407867592e-06 68.77119445800781 -4.718017407867592e-06 53.20694351196289 C -4.718017407867592e-06 23.82177925109863 23.82208633422852 -2.983509375553695e-06 53.20719528198242 -2.983509375553695e-06 C 82.59361267089844 -2.983509375553695e-06 106.4143981933594 23.82177925109863 106.4143981933594 53.20694351196289 C 106.4143981933594 82.59223175048828 82.59361267089844 106.4140167236328 53.20719528198242 106.4140167236328 C 46.41692352294922 106.4140167236328 39.92596054077148 105.1429443359375 33.95508575439453 102.8243255615234 L 17.33735847473145 108.9368667602539 Z"/></g></svg>